%TF.GenerationSoftware,KiCad,Pcbnew,(6.99.0-818-g79c7d55a40)*%
%TF.CreationDate,2022-02-14T22:26:38+08:00*%
%TF.ProjectId,Project,50726f6a-6563-4742-9e6b-696361645f70,rev?*%
%TF.SameCoordinates,Original*%
%TF.FileFunction,Copper,L2,Bot*%
%TF.FilePolarity,Positive*%
%FSLAX46Y46*%
G04 Gerber Fmt 4.6, Leading zero omitted, Abs format (unit mm)*
G04 Created by KiCad (PCBNEW (6.99.0-818-g79c7d55a40)) date 2022-02-14 22:26:38*
%MOMM*%
%LPD*%
G01*
G04 APERTURE LIST*
%ADD10C,0.100000*%
%ADD11C,0.150000*%
%ADD12C,0.300000*%
%ADD13C,0.400000*%
%TA.AperFunction,ComponentPad*%
%ADD14O,0.800000X1.400000*%
%TD*%
%TA.AperFunction,ComponentPad*%
%ADD15C,0.500000*%
%TD*%
%TA.AperFunction,SMDPad,CuDef*%
%ADD16R,3.025000X2.975000*%
%TD*%
%TA.AperFunction,SMDPad,CuDef*%
%ADD17R,1.375000X1.525000*%
%TD*%
%TA.AperFunction,ComponentPad*%
%ADD18R,1.600000X1.600000*%
%TD*%
%TA.AperFunction,ComponentPad*%
%ADD19C,1.600000*%
%TD*%
%TA.AperFunction,ComponentPad*%
%ADD20C,1.200000*%
%TD*%
%TA.AperFunction,ComponentPad*%
%ADD21O,1.200000X2.400000*%
%TD*%
%TA.AperFunction,ComponentPad*%
%ADD22O,1.200000X2.100000*%
%TD*%
%TA.AperFunction,ComponentPad*%
%ADD23R,1.500000X1.500000*%
%TD*%
%TA.AperFunction,ComponentPad*%
%ADD24C,1.500000*%
%TD*%
%TA.AperFunction,ComponentPad*%
%ADD25C,2.300000*%
%TD*%
%TA.AperFunction,ViaPad*%
%ADD26C,0.500000*%
%TD*%
%TA.AperFunction,Conductor*%
%ADD27C,0.200000*%
%TD*%
%TA.AperFunction,Conductor*%
%ADD28C,0.250000*%
%TD*%
G04 APERTURE END LIST*
D10*
D11*
X177002200Y-166007200D02*
X177002200Y-198007200D01*
X285002200Y-198007200D01*
X285002200Y-166007200D01*
X177002200Y-166007200D01*
D10*
D11*
X10000000Y-10000000D02*
X10000000Y-200007200D01*
X287002200Y-200007200D01*
X287002200Y-10000000D01*
X10000000Y-10000000D01*
D10*
D11*
X12000000Y-12000000D02*
X12000000Y-198007200D01*
X285002200Y-198007200D01*
X285002200Y-12000000D01*
X12000000Y-12000000D01*
D10*
D11*
X60000000Y-12000000D02*
X60000000Y-10000000D01*
D10*
D11*
X110000000Y-12000000D02*
X110000000Y-10000000D01*
D10*
D11*
X160000000Y-12000000D02*
X160000000Y-10000000D01*
D10*
D11*
X210000000Y-12000000D02*
X210000000Y-10000000D01*
D10*
D11*
X260000000Y-12000000D02*
X260000000Y-10000000D01*
D10*
D11*
X35990476Y-11588095D02*
X35247619Y-11588095D01*
X35619047Y-11588095D02*
X35619047Y-10288095D01*
X35619047Y-10288095D02*
X35495238Y-10473809D01*
X35495238Y-10473809D02*
X35371428Y-10597619D01*
X35371428Y-10597619D02*
X35247619Y-10659523D01*
D10*
D11*
X85247619Y-10411904D02*
X85309523Y-10350000D01*
X85309523Y-10350000D02*
X85433333Y-10288095D01*
X85433333Y-10288095D02*
X85742857Y-10288095D01*
X85742857Y-10288095D02*
X85866666Y-10350000D01*
X85866666Y-10350000D02*
X85928571Y-10411904D01*
X85928571Y-10411904D02*
X85990476Y-10535714D01*
X85990476Y-10535714D02*
X85990476Y-10659523D01*
X85990476Y-10659523D02*
X85928571Y-10845238D01*
X85928571Y-10845238D02*
X85185714Y-11588095D01*
X85185714Y-11588095D02*
X85990476Y-11588095D01*
D10*
D11*
X135185714Y-10288095D02*
X135990476Y-10288095D01*
X135990476Y-10288095D02*
X135557142Y-10783333D01*
X135557142Y-10783333D02*
X135742857Y-10783333D01*
X135742857Y-10783333D02*
X135866666Y-10845238D01*
X135866666Y-10845238D02*
X135928571Y-10907142D01*
X135928571Y-10907142D02*
X135990476Y-11030952D01*
X135990476Y-11030952D02*
X135990476Y-11340476D01*
X135990476Y-11340476D02*
X135928571Y-11464285D01*
X135928571Y-11464285D02*
X135866666Y-11526190D01*
X135866666Y-11526190D02*
X135742857Y-11588095D01*
X135742857Y-11588095D02*
X135371428Y-11588095D01*
X135371428Y-11588095D02*
X135247619Y-11526190D01*
X135247619Y-11526190D02*
X135185714Y-11464285D01*
D10*
D11*
X185866666Y-10721428D02*
X185866666Y-11588095D01*
X185557142Y-10226190D02*
X185247619Y-11154761D01*
X185247619Y-11154761D02*
X186052380Y-11154761D01*
D10*
D11*
X235928571Y-10288095D02*
X235309523Y-10288095D01*
X235309523Y-10288095D02*
X235247619Y-10907142D01*
X235247619Y-10907142D02*
X235309523Y-10845238D01*
X235309523Y-10845238D02*
X235433333Y-10783333D01*
X235433333Y-10783333D02*
X235742857Y-10783333D01*
X235742857Y-10783333D02*
X235866666Y-10845238D01*
X235866666Y-10845238D02*
X235928571Y-10907142D01*
X235928571Y-10907142D02*
X235990476Y-11030952D01*
X235990476Y-11030952D02*
X235990476Y-11340476D01*
X235990476Y-11340476D02*
X235928571Y-11464285D01*
X235928571Y-11464285D02*
X235866666Y-11526190D01*
X235866666Y-11526190D02*
X235742857Y-11588095D01*
X235742857Y-11588095D02*
X235433333Y-11588095D01*
X235433333Y-11588095D02*
X235309523Y-11526190D01*
X235309523Y-11526190D02*
X235247619Y-11464285D01*
D10*
D11*
X285866666Y-10288095D02*
X285619047Y-10288095D01*
X285619047Y-10288095D02*
X285495238Y-10350000D01*
X285495238Y-10350000D02*
X285433333Y-10411904D01*
X285433333Y-10411904D02*
X285309523Y-10597619D01*
X285309523Y-10597619D02*
X285247619Y-10845238D01*
X285247619Y-10845238D02*
X285247619Y-11340476D01*
X285247619Y-11340476D02*
X285309523Y-11464285D01*
X285309523Y-11464285D02*
X285371428Y-11526190D01*
X285371428Y-11526190D02*
X285495238Y-11588095D01*
X285495238Y-11588095D02*
X285742857Y-11588095D01*
X285742857Y-11588095D02*
X285866666Y-11526190D01*
X285866666Y-11526190D02*
X285928571Y-11464285D01*
X285928571Y-11464285D02*
X285990476Y-11340476D01*
X285990476Y-11340476D02*
X285990476Y-11030952D01*
X285990476Y-11030952D02*
X285928571Y-10907142D01*
X285928571Y-10907142D02*
X285866666Y-10845238D01*
X285866666Y-10845238D02*
X285742857Y-10783333D01*
X285742857Y-10783333D02*
X285495238Y-10783333D01*
X285495238Y-10783333D02*
X285371428Y-10845238D01*
X285371428Y-10845238D02*
X285309523Y-10907142D01*
X285309523Y-10907142D02*
X285247619Y-11030952D01*
D10*
D11*
X60000000Y-198007200D02*
X60000000Y-200007200D01*
D10*
D11*
X110000000Y-198007200D02*
X110000000Y-200007200D01*
D10*
D11*
X160000000Y-198007200D02*
X160000000Y-200007200D01*
D10*
D11*
X210000000Y-198007200D02*
X210000000Y-200007200D01*
D10*
D11*
X260000000Y-198007200D02*
X260000000Y-200007200D01*
D10*
D11*
X35990476Y-199595295D02*
X35247619Y-199595295D01*
X35619047Y-199595295D02*
X35619047Y-198295295D01*
X35619047Y-198295295D02*
X35495238Y-198481009D01*
X35495238Y-198481009D02*
X35371428Y-198604819D01*
X35371428Y-198604819D02*
X35247619Y-198666723D01*
D10*
D11*
X85247619Y-198419104D02*
X85309523Y-198357200D01*
X85309523Y-198357200D02*
X85433333Y-198295295D01*
X85433333Y-198295295D02*
X85742857Y-198295295D01*
X85742857Y-198295295D02*
X85866666Y-198357200D01*
X85866666Y-198357200D02*
X85928571Y-198419104D01*
X85928571Y-198419104D02*
X85990476Y-198542914D01*
X85990476Y-198542914D02*
X85990476Y-198666723D01*
X85990476Y-198666723D02*
X85928571Y-198852438D01*
X85928571Y-198852438D02*
X85185714Y-199595295D01*
X85185714Y-199595295D02*
X85990476Y-199595295D01*
D10*
D11*
X135185714Y-198295295D02*
X135990476Y-198295295D01*
X135990476Y-198295295D02*
X135557142Y-198790533D01*
X135557142Y-198790533D02*
X135742857Y-198790533D01*
X135742857Y-198790533D02*
X135866666Y-198852438D01*
X135866666Y-198852438D02*
X135928571Y-198914342D01*
X135928571Y-198914342D02*
X135990476Y-199038152D01*
X135990476Y-199038152D02*
X135990476Y-199347676D01*
X135990476Y-199347676D02*
X135928571Y-199471485D01*
X135928571Y-199471485D02*
X135866666Y-199533390D01*
X135866666Y-199533390D02*
X135742857Y-199595295D01*
X135742857Y-199595295D02*
X135371428Y-199595295D01*
X135371428Y-199595295D02*
X135247619Y-199533390D01*
X135247619Y-199533390D02*
X135185714Y-199471485D01*
D10*
D11*
X185866666Y-198728628D02*
X185866666Y-199595295D01*
X185557142Y-198233390D02*
X185247619Y-199161961D01*
X185247619Y-199161961D02*
X186052380Y-199161961D01*
D10*
D11*
X235928571Y-198295295D02*
X235309523Y-198295295D01*
X235309523Y-198295295D02*
X235247619Y-198914342D01*
X235247619Y-198914342D02*
X235309523Y-198852438D01*
X235309523Y-198852438D02*
X235433333Y-198790533D01*
X235433333Y-198790533D02*
X235742857Y-198790533D01*
X235742857Y-198790533D02*
X235866666Y-198852438D01*
X235866666Y-198852438D02*
X235928571Y-198914342D01*
X235928571Y-198914342D02*
X235990476Y-199038152D01*
X235990476Y-199038152D02*
X235990476Y-199347676D01*
X235990476Y-199347676D02*
X235928571Y-199471485D01*
X235928571Y-199471485D02*
X235866666Y-199533390D01*
X235866666Y-199533390D02*
X235742857Y-199595295D01*
X235742857Y-199595295D02*
X235433333Y-199595295D01*
X235433333Y-199595295D02*
X235309523Y-199533390D01*
X235309523Y-199533390D02*
X235247619Y-199471485D01*
D10*
D11*
X285866666Y-198295295D02*
X285619047Y-198295295D01*
X285619047Y-198295295D02*
X285495238Y-198357200D01*
X285495238Y-198357200D02*
X285433333Y-198419104D01*
X285433333Y-198419104D02*
X285309523Y-198604819D01*
X285309523Y-198604819D02*
X285247619Y-198852438D01*
X285247619Y-198852438D02*
X285247619Y-199347676D01*
X285247619Y-199347676D02*
X285309523Y-199471485D01*
X285309523Y-199471485D02*
X285371428Y-199533390D01*
X285371428Y-199533390D02*
X285495238Y-199595295D01*
X285495238Y-199595295D02*
X285742857Y-199595295D01*
X285742857Y-199595295D02*
X285866666Y-199533390D01*
X285866666Y-199533390D02*
X285928571Y-199471485D01*
X285928571Y-199471485D02*
X285990476Y-199347676D01*
X285990476Y-199347676D02*
X285990476Y-199038152D01*
X285990476Y-199038152D02*
X285928571Y-198914342D01*
X285928571Y-198914342D02*
X285866666Y-198852438D01*
X285866666Y-198852438D02*
X285742857Y-198790533D01*
X285742857Y-198790533D02*
X285495238Y-198790533D01*
X285495238Y-198790533D02*
X285371428Y-198852438D01*
X285371428Y-198852438D02*
X285309523Y-198914342D01*
X285309523Y-198914342D02*
X285247619Y-199038152D01*
D10*
D11*
X10000000Y-60000000D02*
X12000000Y-60000000D01*
D10*
D11*
X10000000Y-110000000D02*
X12000000Y-110000000D01*
D10*
D11*
X10000000Y-160000000D02*
X12000000Y-160000000D01*
D10*
D11*
X10690476Y-35216666D02*
X11309523Y-35216666D01*
X10566666Y-35588095D02*
X10999999Y-34288095D01*
X10999999Y-34288095D02*
X11433333Y-35588095D01*
D10*
D11*
X11092857Y-84907142D02*
X11278571Y-84969047D01*
X11278571Y-84969047D02*
X11340476Y-85030952D01*
X11340476Y-85030952D02*
X11402380Y-85154761D01*
X11402380Y-85154761D02*
X11402380Y-85340476D01*
X11402380Y-85340476D02*
X11340476Y-85464285D01*
X11340476Y-85464285D02*
X11278571Y-85526190D01*
X11278571Y-85526190D02*
X11154761Y-85588095D01*
X11154761Y-85588095D02*
X10659523Y-85588095D01*
X10659523Y-85588095D02*
X10659523Y-84288095D01*
X10659523Y-84288095D02*
X11092857Y-84288095D01*
X11092857Y-84288095D02*
X11216666Y-84350000D01*
X11216666Y-84350000D02*
X11278571Y-84411904D01*
X11278571Y-84411904D02*
X11340476Y-84535714D01*
X11340476Y-84535714D02*
X11340476Y-84659523D01*
X11340476Y-84659523D02*
X11278571Y-84783333D01*
X11278571Y-84783333D02*
X11216666Y-84845238D01*
X11216666Y-84845238D02*
X11092857Y-84907142D01*
X11092857Y-84907142D02*
X10659523Y-84907142D01*
D10*
D11*
X11402380Y-135464285D02*
X11340476Y-135526190D01*
X11340476Y-135526190D02*
X11154761Y-135588095D01*
X11154761Y-135588095D02*
X11030952Y-135588095D01*
X11030952Y-135588095D02*
X10845238Y-135526190D01*
X10845238Y-135526190D02*
X10721428Y-135402380D01*
X10721428Y-135402380D02*
X10659523Y-135278571D01*
X10659523Y-135278571D02*
X10597619Y-135030952D01*
X10597619Y-135030952D02*
X10597619Y-134845238D01*
X10597619Y-134845238D02*
X10659523Y-134597619D01*
X10659523Y-134597619D02*
X10721428Y-134473809D01*
X10721428Y-134473809D02*
X10845238Y-134350000D01*
X10845238Y-134350000D02*
X11030952Y-134288095D01*
X11030952Y-134288095D02*
X11154761Y-134288095D01*
X11154761Y-134288095D02*
X11340476Y-134350000D01*
X11340476Y-134350000D02*
X11402380Y-134411904D01*
D10*
D11*
X10659523Y-185588095D02*
X10659523Y-184288095D01*
X10659523Y-184288095D02*
X10969047Y-184288095D01*
X10969047Y-184288095D02*
X11154761Y-184350000D01*
X11154761Y-184350000D02*
X11278571Y-184473809D01*
X11278571Y-184473809D02*
X11340476Y-184597619D01*
X11340476Y-184597619D02*
X11402380Y-184845238D01*
X11402380Y-184845238D02*
X11402380Y-185030952D01*
X11402380Y-185030952D02*
X11340476Y-185278571D01*
X11340476Y-185278571D02*
X11278571Y-185402380D01*
X11278571Y-185402380D02*
X11154761Y-185526190D01*
X11154761Y-185526190D02*
X10969047Y-185588095D01*
X10969047Y-185588095D02*
X10659523Y-185588095D01*
D10*
D11*
X287002200Y-60000000D02*
X285002200Y-60000000D01*
D10*
D11*
X287002200Y-110000000D02*
X285002200Y-110000000D01*
D10*
D11*
X287002200Y-160000000D02*
X285002200Y-160000000D01*
D10*
D11*
X285692676Y-35216666D02*
X286311723Y-35216666D01*
X285568866Y-35588095D02*
X286002199Y-34288095D01*
X286002199Y-34288095D02*
X286435533Y-35588095D01*
D10*
D11*
X286095057Y-84907142D02*
X286280771Y-84969047D01*
X286280771Y-84969047D02*
X286342676Y-85030952D01*
X286342676Y-85030952D02*
X286404580Y-85154761D01*
X286404580Y-85154761D02*
X286404580Y-85340476D01*
X286404580Y-85340476D02*
X286342676Y-85464285D01*
X286342676Y-85464285D02*
X286280771Y-85526190D01*
X286280771Y-85526190D02*
X286156961Y-85588095D01*
X286156961Y-85588095D02*
X285661723Y-85588095D01*
X285661723Y-85588095D02*
X285661723Y-84288095D01*
X285661723Y-84288095D02*
X286095057Y-84288095D01*
X286095057Y-84288095D02*
X286218866Y-84350000D01*
X286218866Y-84350000D02*
X286280771Y-84411904D01*
X286280771Y-84411904D02*
X286342676Y-84535714D01*
X286342676Y-84535714D02*
X286342676Y-84659523D01*
X286342676Y-84659523D02*
X286280771Y-84783333D01*
X286280771Y-84783333D02*
X286218866Y-84845238D01*
X286218866Y-84845238D02*
X286095057Y-84907142D01*
X286095057Y-84907142D02*
X285661723Y-84907142D01*
D10*
D11*
X286404580Y-135464285D02*
X286342676Y-135526190D01*
X286342676Y-135526190D02*
X286156961Y-135588095D01*
X286156961Y-135588095D02*
X286033152Y-135588095D01*
X286033152Y-135588095D02*
X285847438Y-135526190D01*
X285847438Y-135526190D02*
X285723628Y-135402380D01*
X285723628Y-135402380D02*
X285661723Y-135278571D01*
X285661723Y-135278571D02*
X285599819Y-135030952D01*
X285599819Y-135030952D02*
X285599819Y-134845238D01*
X285599819Y-134845238D02*
X285661723Y-134597619D01*
X285661723Y-134597619D02*
X285723628Y-134473809D01*
X285723628Y-134473809D02*
X285847438Y-134350000D01*
X285847438Y-134350000D02*
X286033152Y-134288095D01*
X286033152Y-134288095D02*
X286156961Y-134288095D01*
X286156961Y-134288095D02*
X286342676Y-134350000D01*
X286342676Y-134350000D02*
X286404580Y-134411904D01*
D10*
D11*
X285661723Y-185588095D02*
X285661723Y-184288095D01*
X285661723Y-184288095D02*
X285971247Y-184288095D01*
X285971247Y-184288095D02*
X286156961Y-184350000D01*
X286156961Y-184350000D02*
X286280771Y-184473809D01*
X286280771Y-184473809D02*
X286342676Y-184597619D01*
X286342676Y-184597619D02*
X286404580Y-184845238D01*
X286404580Y-184845238D02*
X286404580Y-185030952D01*
X286404580Y-185030952D02*
X286342676Y-185278571D01*
X286342676Y-185278571D02*
X286280771Y-185402380D01*
X286280771Y-185402380D02*
X286156961Y-185526190D01*
X286156961Y-185526190D02*
X285971247Y-185588095D01*
X285971247Y-185588095D02*
X285661723Y-185588095D01*
D10*
D11*
X200359342Y-193785771D02*
X200359342Y-192285771D01*
X200359342Y-192285771D02*
X200716485Y-192285771D01*
X200716485Y-192285771D02*
X200930771Y-192357200D01*
X200930771Y-192357200D02*
X201073628Y-192500057D01*
X201073628Y-192500057D02*
X201145057Y-192642914D01*
X201145057Y-192642914D02*
X201216485Y-192928628D01*
X201216485Y-192928628D02*
X201216485Y-193142914D01*
X201216485Y-193142914D02*
X201145057Y-193428628D01*
X201145057Y-193428628D02*
X201073628Y-193571485D01*
X201073628Y-193571485D02*
X200930771Y-193714342D01*
X200930771Y-193714342D02*
X200716485Y-193785771D01*
X200716485Y-193785771D02*
X200359342Y-193785771D01*
X202502200Y-193785771D02*
X202502200Y-193000057D01*
X202502200Y-193000057D02*
X202430771Y-192857200D01*
X202430771Y-192857200D02*
X202287914Y-192785771D01*
X202287914Y-192785771D02*
X202002200Y-192785771D01*
X202002200Y-192785771D02*
X201859342Y-192857200D01*
X202502200Y-193714342D02*
X202359342Y-193785771D01*
X202359342Y-193785771D02*
X202002200Y-193785771D01*
X202002200Y-193785771D02*
X201859342Y-193714342D01*
X201859342Y-193714342D02*
X201787914Y-193571485D01*
X201787914Y-193571485D02*
X201787914Y-193428628D01*
X201787914Y-193428628D02*
X201859342Y-193285771D01*
X201859342Y-193285771D02*
X202002200Y-193214342D01*
X202002200Y-193214342D02*
X202359342Y-193214342D01*
X202359342Y-193214342D02*
X202502200Y-193142914D01*
X203002200Y-192785771D02*
X203573628Y-192785771D01*
X203216485Y-192285771D02*
X203216485Y-193571485D01*
X203216485Y-193571485D02*
X203287914Y-193714342D01*
X203287914Y-193714342D02*
X203430771Y-193785771D01*
X203430771Y-193785771D02*
X203573628Y-193785771D01*
X204645057Y-193714342D02*
X204502200Y-193785771D01*
X204502200Y-193785771D02*
X204216486Y-193785771D01*
X204216486Y-193785771D02*
X204073628Y-193714342D01*
X204073628Y-193714342D02*
X204002200Y-193571485D01*
X204002200Y-193571485D02*
X204002200Y-193000057D01*
X204002200Y-193000057D02*
X204073628Y-192857200D01*
X204073628Y-192857200D02*
X204216486Y-192785771D01*
X204216486Y-192785771D02*
X204502200Y-192785771D01*
X204502200Y-192785771D02*
X204645057Y-192857200D01*
X204645057Y-192857200D02*
X204716486Y-193000057D01*
X204716486Y-193000057D02*
X204716486Y-193142914D01*
X204716486Y-193142914D02*
X204002200Y-193285771D01*
X205359342Y-193642914D02*
X205430771Y-193714342D01*
X205430771Y-193714342D02*
X205359342Y-193785771D01*
X205359342Y-193785771D02*
X205287914Y-193714342D01*
X205287914Y-193714342D02*
X205359342Y-193642914D01*
X205359342Y-193642914D02*
X205359342Y-193785771D01*
X205359342Y-192857200D02*
X205430771Y-192928628D01*
X205430771Y-192928628D02*
X205359342Y-193000057D01*
X205359342Y-193000057D02*
X205287914Y-192928628D01*
X205287914Y-192928628D02*
X205359342Y-192857200D01*
X205359342Y-192857200D02*
X205359342Y-193000057D01*
D10*
D11*
X177002200Y-194507200D02*
X285002200Y-194507200D01*
D10*
D11*
X178359342Y-196585771D02*
X178359342Y-195085771D01*
X179216485Y-196585771D02*
X178573628Y-195728628D01*
X179216485Y-195085771D02*
X178359342Y-195942914D01*
X179859342Y-196585771D02*
X179859342Y-195585771D01*
X179859342Y-195085771D02*
X179787914Y-195157200D01*
X179787914Y-195157200D02*
X179859342Y-195228628D01*
X179859342Y-195228628D02*
X179930771Y-195157200D01*
X179930771Y-195157200D02*
X179859342Y-195085771D01*
X179859342Y-195085771D02*
X179859342Y-195228628D01*
X181430771Y-196442914D02*
X181359343Y-196514342D01*
X181359343Y-196514342D02*
X181145057Y-196585771D01*
X181145057Y-196585771D02*
X181002200Y-196585771D01*
X181002200Y-196585771D02*
X180787914Y-196514342D01*
X180787914Y-196514342D02*
X180645057Y-196371485D01*
X180645057Y-196371485D02*
X180573628Y-196228628D01*
X180573628Y-196228628D02*
X180502200Y-195942914D01*
X180502200Y-195942914D02*
X180502200Y-195728628D01*
X180502200Y-195728628D02*
X180573628Y-195442914D01*
X180573628Y-195442914D02*
X180645057Y-195300057D01*
X180645057Y-195300057D02*
X180787914Y-195157200D01*
X180787914Y-195157200D02*
X181002200Y-195085771D01*
X181002200Y-195085771D02*
X181145057Y-195085771D01*
X181145057Y-195085771D02*
X181359343Y-195157200D01*
X181359343Y-195157200D02*
X181430771Y-195228628D01*
X182716486Y-196585771D02*
X182716486Y-195800057D01*
X182716486Y-195800057D02*
X182645057Y-195657200D01*
X182645057Y-195657200D02*
X182502200Y-195585771D01*
X182502200Y-195585771D02*
X182216486Y-195585771D01*
X182216486Y-195585771D02*
X182073628Y-195657200D01*
X182716486Y-196514342D02*
X182573628Y-196585771D01*
X182573628Y-196585771D02*
X182216486Y-196585771D01*
X182216486Y-196585771D02*
X182073628Y-196514342D01*
X182073628Y-196514342D02*
X182002200Y-196371485D01*
X182002200Y-196371485D02*
X182002200Y-196228628D01*
X182002200Y-196228628D02*
X182073628Y-196085771D01*
X182073628Y-196085771D02*
X182216486Y-196014342D01*
X182216486Y-196014342D02*
X182573628Y-196014342D01*
X182573628Y-196014342D02*
X182716486Y-195942914D01*
X184073629Y-196585771D02*
X184073629Y-195085771D01*
X184073629Y-196514342D02*
X183930771Y-196585771D01*
X183930771Y-196585771D02*
X183645057Y-196585771D01*
X183645057Y-196585771D02*
X183502200Y-196514342D01*
X183502200Y-196514342D02*
X183430771Y-196442914D01*
X183430771Y-196442914D02*
X183359343Y-196300057D01*
X183359343Y-196300057D02*
X183359343Y-195871485D01*
X183359343Y-195871485D02*
X183430771Y-195728628D01*
X183430771Y-195728628D02*
X183502200Y-195657200D01*
X183502200Y-195657200D02*
X183645057Y-195585771D01*
X183645057Y-195585771D02*
X183930771Y-195585771D01*
X183930771Y-195585771D02*
X184073629Y-195657200D01*
X185687914Y-195800057D02*
X186187914Y-195800057D01*
X186402200Y-196585771D02*
X185687914Y-196585771D01*
X185687914Y-196585771D02*
X185687914Y-195085771D01*
X185687914Y-195085771D02*
X186402200Y-195085771D01*
X187045057Y-196442914D02*
X187116486Y-196514342D01*
X187116486Y-196514342D02*
X187045057Y-196585771D01*
X187045057Y-196585771D02*
X186973629Y-196514342D01*
X186973629Y-196514342D02*
X187045057Y-196442914D01*
X187045057Y-196442914D02*
X187045057Y-196585771D01*
X187759343Y-196585771D02*
X187759343Y-195085771D01*
X187759343Y-195085771D02*
X188116486Y-195085771D01*
X188116486Y-195085771D02*
X188330772Y-195157200D01*
X188330772Y-195157200D02*
X188473629Y-195300057D01*
X188473629Y-195300057D02*
X188545058Y-195442914D01*
X188545058Y-195442914D02*
X188616486Y-195728628D01*
X188616486Y-195728628D02*
X188616486Y-195942914D01*
X188616486Y-195942914D02*
X188545058Y-196228628D01*
X188545058Y-196228628D02*
X188473629Y-196371485D01*
X188473629Y-196371485D02*
X188330772Y-196514342D01*
X188330772Y-196514342D02*
X188116486Y-196585771D01*
X188116486Y-196585771D02*
X187759343Y-196585771D01*
X189259343Y-196442914D02*
X189330772Y-196514342D01*
X189330772Y-196514342D02*
X189259343Y-196585771D01*
X189259343Y-196585771D02*
X189187915Y-196514342D01*
X189187915Y-196514342D02*
X189259343Y-196442914D01*
X189259343Y-196442914D02*
X189259343Y-196585771D01*
X189902201Y-196157200D02*
X190616487Y-196157200D01*
X189759344Y-196585771D02*
X190259344Y-195085771D01*
X190259344Y-195085771D02*
X190759344Y-196585771D01*
X191259343Y-196442914D02*
X191330772Y-196514342D01*
X191330772Y-196514342D02*
X191259343Y-196585771D01*
X191259343Y-196585771D02*
X191187915Y-196514342D01*
X191187915Y-196514342D02*
X191259343Y-196442914D01*
X191259343Y-196442914D02*
X191259343Y-196585771D01*
X193773629Y-196585771D02*
X193773629Y-195085771D01*
X193916487Y-196014342D02*
X194345058Y-196585771D01*
X194345058Y-195585771D02*
X193773629Y-196157200D01*
X194987915Y-196585771D02*
X194987915Y-195585771D01*
X194987915Y-195085771D02*
X194916487Y-195157200D01*
X194916487Y-195157200D02*
X194987915Y-195228628D01*
X194987915Y-195228628D02*
X195059344Y-195157200D01*
X195059344Y-195157200D02*
X194987915Y-195085771D01*
X194987915Y-195085771D02*
X194987915Y-195228628D01*
X196345059Y-196514342D02*
X196202201Y-196585771D01*
X196202201Y-196585771D02*
X195916487Y-196585771D01*
X195916487Y-196585771D02*
X195773630Y-196514342D01*
X195773630Y-196514342D02*
X195702201Y-196442914D01*
X195702201Y-196442914D02*
X195630773Y-196300057D01*
X195630773Y-196300057D02*
X195630773Y-195871485D01*
X195630773Y-195871485D02*
X195702201Y-195728628D01*
X195702201Y-195728628D02*
X195773630Y-195657200D01*
X195773630Y-195657200D02*
X195916487Y-195585771D01*
X195916487Y-195585771D02*
X196202201Y-195585771D01*
X196202201Y-195585771D02*
X196345059Y-195657200D01*
X197630773Y-196585771D02*
X197630773Y-195800057D01*
X197630773Y-195800057D02*
X197559344Y-195657200D01*
X197559344Y-195657200D02*
X197416487Y-195585771D01*
X197416487Y-195585771D02*
X197130773Y-195585771D01*
X197130773Y-195585771D02*
X196987915Y-195657200D01*
X197630773Y-196514342D02*
X197487915Y-196585771D01*
X197487915Y-196585771D02*
X197130773Y-196585771D01*
X197130773Y-196585771D02*
X196987915Y-196514342D01*
X196987915Y-196514342D02*
X196916487Y-196371485D01*
X196916487Y-196371485D02*
X196916487Y-196228628D01*
X196916487Y-196228628D02*
X196987915Y-196085771D01*
X196987915Y-196085771D02*
X197130773Y-196014342D01*
X197130773Y-196014342D02*
X197487915Y-196014342D01*
X197487915Y-196014342D02*
X197630773Y-195942914D01*
X198987916Y-196585771D02*
X198987916Y-195085771D01*
X198987916Y-196514342D02*
X198845058Y-196585771D01*
X198845058Y-196585771D02*
X198559344Y-196585771D01*
X198559344Y-196585771D02*
X198416487Y-196514342D01*
X198416487Y-196514342D02*
X198345058Y-196442914D01*
X198345058Y-196442914D02*
X198273630Y-196300057D01*
X198273630Y-196300057D02*
X198273630Y-195871485D01*
X198273630Y-195871485D02*
X198345058Y-195728628D01*
X198345058Y-195728628D02*
X198416487Y-195657200D01*
X198416487Y-195657200D02*
X198559344Y-195585771D01*
X198559344Y-195585771D02*
X198845058Y-195585771D01*
X198845058Y-195585771D02*
X198987916Y-195657200D01*
X201030773Y-197157200D02*
X200959344Y-197085771D01*
X200959344Y-197085771D02*
X200816487Y-196871485D01*
X200816487Y-196871485D02*
X200745059Y-196728628D01*
X200745059Y-196728628D02*
X200673630Y-196514342D01*
X200673630Y-196514342D02*
X200602201Y-196157200D01*
X200602201Y-196157200D02*
X200602201Y-195871485D01*
X200602201Y-195871485D02*
X200673630Y-195514342D01*
X200673630Y-195514342D02*
X200745059Y-195300057D01*
X200745059Y-195300057D02*
X200816487Y-195157200D01*
X200816487Y-195157200D02*
X200959344Y-194942914D01*
X200959344Y-194942914D02*
X201030773Y-194871485D01*
X202245059Y-195085771D02*
X201959344Y-195085771D01*
X201959344Y-195085771D02*
X201816487Y-195157200D01*
X201816487Y-195157200D02*
X201745059Y-195228628D01*
X201745059Y-195228628D02*
X201602201Y-195442914D01*
X201602201Y-195442914D02*
X201530773Y-195728628D01*
X201530773Y-195728628D02*
X201530773Y-196300057D01*
X201530773Y-196300057D02*
X201602201Y-196442914D01*
X201602201Y-196442914D02*
X201673630Y-196514342D01*
X201673630Y-196514342D02*
X201816487Y-196585771D01*
X201816487Y-196585771D02*
X202102201Y-196585771D01*
X202102201Y-196585771D02*
X202245059Y-196514342D01*
X202245059Y-196514342D02*
X202316487Y-196442914D01*
X202316487Y-196442914D02*
X202387916Y-196300057D01*
X202387916Y-196300057D02*
X202387916Y-195942914D01*
X202387916Y-195942914D02*
X202316487Y-195800057D01*
X202316487Y-195800057D02*
X202245059Y-195728628D01*
X202245059Y-195728628D02*
X202102201Y-195657200D01*
X202102201Y-195657200D02*
X201816487Y-195657200D01*
X201816487Y-195657200D02*
X201673630Y-195728628D01*
X201673630Y-195728628D02*
X201602201Y-195800057D01*
X201602201Y-195800057D02*
X201530773Y-195942914D01*
X203030772Y-196442914D02*
X203102201Y-196514342D01*
X203102201Y-196514342D02*
X203030772Y-196585771D01*
X203030772Y-196585771D02*
X202959344Y-196514342D01*
X202959344Y-196514342D02*
X203030772Y-196442914D01*
X203030772Y-196442914D02*
X203030772Y-196585771D01*
X203816487Y-196585771D02*
X204102201Y-196585771D01*
X204102201Y-196585771D02*
X204245058Y-196514342D01*
X204245058Y-196514342D02*
X204316487Y-196442914D01*
X204316487Y-196442914D02*
X204459344Y-196228628D01*
X204459344Y-196228628D02*
X204530773Y-195942914D01*
X204530773Y-195942914D02*
X204530773Y-195371485D01*
X204530773Y-195371485D02*
X204459344Y-195228628D01*
X204459344Y-195228628D02*
X204387916Y-195157200D01*
X204387916Y-195157200D02*
X204245058Y-195085771D01*
X204245058Y-195085771D02*
X203959344Y-195085771D01*
X203959344Y-195085771D02*
X203816487Y-195157200D01*
X203816487Y-195157200D02*
X203745058Y-195228628D01*
X203745058Y-195228628D02*
X203673630Y-195371485D01*
X203673630Y-195371485D02*
X203673630Y-195728628D01*
X203673630Y-195728628D02*
X203745058Y-195871485D01*
X203745058Y-195871485D02*
X203816487Y-195942914D01*
X203816487Y-195942914D02*
X203959344Y-196014342D01*
X203959344Y-196014342D02*
X204245058Y-196014342D01*
X204245058Y-196014342D02*
X204387916Y-195942914D01*
X204387916Y-195942914D02*
X204459344Y-195871485D01*
X204459344Y-195871485D02*
X204530773Y-195728628D01*
X205245058Y-196585771D02*
X205530772Y-196585771D01*
X205530772Y-196585771D02*
X205673629Y-196514342D01*
X205673629Y-196514342D02*
X205745058Y-196442914D01*
X205745058Y-196442914D02*
X205887915Y-196228628D01*
X205887915Y-196228628D02*
X205959344Y-195942914D01*
X205959344Y-195942914D02*
X205959344Y-195371485D01*
X205959344Y-195371485D02*
X205887915Y-195228628D01*
X205887915Y-195228628D02*
X205816487Y-195157200D01*
X205816487Y-195157200D02*
X205673629Y-195085771D01*
X205673629Y-195085771D02*
X205387915Y-195085771D01*
X205387915Y-195085771D02*
X205245058Y-195157200D01*
X205245058Y-195157200D02*
X205173629Y-195228628D01*
X205173629Y-195228628D02*
X205102201Y-195371485D01*
X205102201Y-195371485D02*
X205102201Y-195728628D01*
X205102201Y-195728628D02*
X205173629Y-195871485D01*
X205173629Y-195871485D02*
X205245058Y-195942914D01*
X205245058Y-195942914D02*
X205387915Y-196014342D01*
X205387915Y-196014342D02*
X205673629Y-196014342D01*
X205673629Y-196014342D02*
X205816487Y-195942914D01*
X205816487Y-195942914D02*
X205887915Y-195871485D01*
X205887915Y-195871485D02*
X205959344Y-195728628D01*
X206602200Y-196442914D02*
X206673629Y-196514342D01*
X206673629Y-196514342D02*
X206602200Y-196585771D01*
X206602200Y-196585771D02*
X206530772Y-196514342D01*
X206530772Y-196514342D02*
X206602200Y-196442914D01*
X206602200Y-196442914D02*
X206602200Y-196585771D01*
X207602201Y-195085771D02*
X207745058Y-195085771D01*
X207745058Y-195085771D02*
X207887915Y-195157200D01*
X207887915Y-195157200D02*
X207959344Y-195228628D01*
X207959344Y-195228628D02*
X208030772Y-195371485D01*
X208030772Y-195371485D02*
X208102201Y-195657200D01*
X208102201Y-195657200D02*
X208102201Y-196014342D01*
X208102201Y-196014342D02*
X208030772Y-196300057D01*
X208030772Y-196300057D02*
X207959344Y-196442914D01*
X207959344Y-196442914D02*
X207887915Y-196514342D01*
X207887915Y-196514342D02*
X207745058Y-196585771D01*
X207745058Y-196585771D02*
X207602201Y-196585771D01*
X207602201Y-196585771D02*
X207459344Y-196514342D01*
X207459344Y-196514342D02*
X207387915Y-196442914D01*
X207387915Y-196442914D02*
X207316486Y-196300057D01*
X207316486Y-196300057D02*
X207245058Y-196014342D01*
X207245058Y-196014342D02*
X207245058Y-195657200D01*
X207245058Y-195657200D02*
X207316486Y-195371485D01*
X207316486Y-195371485D02*
X207387915Y-195228628D01*
X207387915Y-195228628D02*
X207459344Y-195157200D01*
X207459344Y-195157200D02*
X207602201Y-195085771D01*
X208745057Y-196014342D02*
X209887915Y-196014342D01*
X210816486Y-195728628D02*
X210673629Y-195657200D01*
X210673629Y-195657200D02*
X210602200Y-195585771D01*
X210602200Y-195585771D02*
X210530772Y-195442914D01*
X210530772Y-195442914D02*
X210530772Y-195371485D01*
X210530772Y-195371485D02*
X210602200Y-195228628D01*
X210602200Y-195228628D02*
X210673629Y-195157200D01*
X210673629Y-195157200D02*
X210816486Y-195085771D01*
X210816486Y-195085771D02*
X211102200Y-195085771D01*
X211102200Y-195085771D02*
X211245058Y-195157200D01*
X211245058Y-195157200D02*
X211316486Y-195228628D01*
X211316486Y-195228628D02*
X211387915Y-195371485D01*
X211387915Y-195371485D02*
X211387915Y-195442914D01*
X211387915Y-195442914D02*
X211316486Y-195585771D01*
X211316486Y-195585771D02*
X211245058Y-195657200D01*
X211245058Y-195657200D02*
X211102200Y-195728628D01*
X211102200Y-195728628D02*
X210816486Y-195728628D01*
X210816486Y-195728628D02*
X210673629Y-195800057D01*
X210673629Y-195800057D02*
X210602200Y-195871485D01*
X210602200Y-195871485D02*
X210530772Y-196014342D01*
X210530772Y-196014342D02*
X210530772Y-196300057D01*
X210530772Y-196300057D02*
X210602200Y-196442914D01*
X210602200Y-196442914D02*
X210673629Y-196514342D01*
X210673629Y-196514342D02*
X210816486Y-196585771D01*
X210816486Y-196585771D02*
X211102200Y-196585771D01*
X211102200Y-196585771D02*
X211245058Y-196514342D01*
X211245058Y-196514342D02*
X211316486Y-196442914D01*
X211316486Y-196442914D02*
X211387915Y-196300057D01*
X211387915Y-196300057D02*
X211387915Y-196014342D01*
X211387915Y-196014342D02*
X211316486Y-195871485D01*
X211316486Y-195871485D02*
X211245058Y-195800057D01*
X211245058Y-195800057D02*
X211102200Y-195728628D01*
X212816486Y-196585771D02*
X211959343Y-196585771D01*
X212387914Y-196585771D02*
X212387914Y-195085771D01*
X212387914Y-195085771D02*
X212245057Y-195300057D01*
X212245057Y-195300057D02*
X212102200Y-195442914D01*
X212102200Y-195442914D02*
X211959343Y-195514342D01*
X213673628Y-195728628D02*
X213530771Y-195657200D01*
X213530771Y-195657200D02*
X213459342Y-195585771D01*
X213459342Y-195585771D02*
X213387914Y-195442914D01*
X213387914Y-195442914D02*
X213387914Y-195371485D01*
X213387914Y-195371485D02*
X213459342Y-195228628D01*
X213459342Y-195228628D02*
X213530771Y-195157200D01*
X213530771Y-195157200D02*
X213673628Y-195085771D01*
X213673628Y-195085771D02*
X213959342Y-195085771D01*
X213959342Y-195085771D02*
X214102200Y-195157200D01*
X214102200Y-195157200D02*
X214173628Y-195228628D01*
X214173628Y-195228628D02*
X214245057Y-195371485D01*
X214245057Y-195371485D02*
X214245057Y-195442914D01*
X214245057Y-195442914D02*
X214173628Y-195585771D01*
X214173628Y-195585771D02*
X214102200Y-195657200D01*
X214102200Y-195657200D02*
X213959342Y-195728628D01*
X213959342Y-195728628D02*
X213673628Y-195728628D01*
X213673628Y-195728628D02*
X213530771Y-195800057D01*
X213530771Y-195800057D02*
X213459342Y-195871485D01*
X213459342Y-195871485D02*
X213387914Y-196014342D01*
X213387914Y-196014342D02*
X213387914Y-196300057D01*
X213387914Y-196300057D02*
X213459342Y-196442914D01*
X213459342Y-196442914D02*
X213530771Y-196514342D01*
X213530771Y-196514342D02*
X213673628Y-196585771D01*
X213673628Y-196585771D02*
X213959342Y-196585771D01*
X213959342Y-196585771D02*
X214102200Y-196514342D01*
X214102200Y-196514342D02*
X214173628Y-196442914D01*
X214173628Y-196442914D02*
X214245057Y-196300057D01*
X214245057Y-196300057D02*
X214245057Y-196014342D01*
X214245057Y-196014342D02*
X214173628Y-195871485D01*
X214173628Y-195871485D02*
X214102200Y-195800057D01*
X214102200Y-195800057D02*
X213959342Y-195728628D01*
X214887913Y-196014342D02*
X216030771Y-196014342D01*
X217387914Y-195585771D02*
X217387914Y-196800057D01*
X217387914Y-196800057D02*
X217316485Y-196942914D01*
X217316485Y-196942914D02*
X217245056Y-197014342D01*
X217245056Y-197014342D02*
X217102199Y-197085771D01*
X217102199Y-197085771D02*
X216887914Y-197085771D01*
X216887914Y-197085771D02*
X216745056Y-197014342D01*
X217387914Y-196514342D02*
X217245056Y-196585771D01*
X217245056Y-196585771D02*
X216959342Y-196585771D01*
X216959342Y-196585771D02*
X216816485Y-196514342D01*
X216816485Y-196514342D02*
X216745056Y-196442914D01*
X216745056Y-196442914D02*
X216673628Y-196300057D01*
X216673628Y-196300057D02*
X216673628Y-195871485D01*
X216673628Y-195871485D02*
X216745056Y-195728628D01*
X216745056Y-195728628D02*
X216816485Y-195657200D01*
X216816485Y-195657200D02*
X216959342Y-195585771D01*
X216959342Y-195585771D02*
X217245056Y-195585771D01*
X217245056Y-195585771D02*
X217387914Y-195657200D01*
X217959342Y-195085771D02*
X218959342Y-195085771D01*
X218959342Y-195085771D02*
X218316485Y-196585771D01*
X219602199Y-196585771D02*
X219887913Y-196585771D01*
X219887913Y-196585771D02*
X220030770Y-196514342D01*
X220030770Y-196514342D02*
X220102199Y-196442914D01*
X220102199Y-196442914D02*
X220245056Y-196228628D01*
X220245056Y-196228628D02*
X220316485Y-195942914D01*
X220316485Y-195942914D02*
X220316485Y-195371485D01*
X220316485Y-195371485D02*
X220245056Y-195228628D01*
X220245056Y-195228628D02*
X220173628Y-195157200D01*
X220173628Y-195157200D02*
X220030770Y-195085771D01*
X220030770Y-195085771D02*
X219745056Y-195085771D01*
X219745056Y-195085771D02*
X219602199Y-195157200D01*
X219602199Y-195157200D02*
X219530770Y-195228628D01*
X219530770Y-195228628D02*
X219459342Y-195371485D01*
X219459342Y-195371485D02*
X219459342Y-195728628D01*
X219459342Y-195728628D02*
X219530770Y-195871485D01*
X219530770Y-195871485D02*
X219602199Y-195942914D01*
X219602199Y-195942914D02*
X219745056Y-196014342D01*
X219745056Y-196014342D02*
X220030770Y-196014342D01*
X220030770Y-196014342D02*
X220173628Y-195942914D01*
X220173628Y-195942914D02*
X220245056Y-195871485D01*
X220245056Y-195871485D02*
X220316485Y-195728628D01*
X221602199Y-196514342D02*
X221459341Y-196585771D01*
X221459341Y-196585771D02*
X221173627Y-196585771D01*
X221173627Y-196585771D02*
X221030770Y-196514342D01*
X221030770Y-196514342D02*
X220959341Y-196442914D01*
X220959341Y-196442914D02*
X220887913Y-196300057D01*
X220887913Y-196300057D02*
X220887913Y-195871485D01*
X220887913Y-195871485D02*
X220959341Y-195728628D01*
X220959341Y-195728628D02*
X221030770Y-195657200D01*
X221030770Y-195657200D02*
X221173627Y-195585771D01*
X221173627Y-195585771D02*
X221459341Y-195585771D01*
X221459341Y-195585771D02*
X221602199Y-195657200D01*
X222102198Y-195085771D02*
X223102198Y-195085771D01*
X223102198Y-195085771D02*
X222459341Y-196585771D01*
X224316484Y-196585771D02*
X224316484Y-195085771D01*
X224316484Y-196514342D02*
X224173626Y-196585771D01*
X224173626Y-196585771D02*
X223887912Y-196585771D01*
X223887912Y-196585771D02*
X223745055Y-196514342D01*
X223745055Y-196514342D02*
X223673626Y-196442914D01*
X223673626Y-196442914D02*
X223602198Y-196300057D01*
X223602198Y-196300057D02*
X223602198Y-195871485D01*
X223602198Y-195871485D02*
X223673626Y-195728628D01*
X223673626Y-195728628D02*
X223745055Y-195657200D01*
X223745055Y-195657200D02*
X223887912Y-195585771D01*
X223887912Y-195585771D02*
X224173626Y-195585771D01*
X224173626Y-195585771D02*
X224316484Y-195657200D01*
X225745055Y-195085771D02*
X225030769Y-195085771D01*
X225030769Y-195085771D02*
X224959341Y-195800057D01*
X224959341Y-195800057D02*
X225030769Y-195728628D01*
X225030769Y-195728628D02*
X225173627Y-195657200D01*
X225173627Y-195657200D02*
X225530769Y-195657200D01*
X225530769Y-195657200D02*
X225673627Y-195728628D01*
X225673627Y-195728628D02*
X225745055Y-195800057D01*
X225745055Y-195800057D02*
X225816484Y-195942914D01*
X225816484Y-195942914D02*
X225816484Y-196300057D01*
X225816484Y-196300057D02*
X225745055Y-196442914D01*
X225745055Y-196442914D02*
X225673627Y-196514342D01*
X225673627Y-196514342D02*
X225530769Y-196585771D01*
X225530769Y-196585771D02*
X225173627Y-196585771D01*
X225173627Y-196585771D02*
X225030769Y-196514342D01*
X225030769Y-196514342D02*
X224959341Y-196442914D01*
X227173626Y-195085771D02*
X226459340Y-195085771D01*
X226459340Y-195085771D02*
X226387912Y-195800057D01*
X226387912Y-195800057D02*
X226459340Y-195728628D01*
X226459340Y-195728628D02*
X226602198Y-195657200D01*
X226602198Y-195657200D02*
X226959340Y-195657200D01*
X226959340Y-195657200D02*
X227102198Y-195728628D01*
X227102198Y-195728628D02*
X227173626Y-195800057D01*
X227173626Y-195800057D02*
X227245055Y-195942914D01*
X227245055Y-195942914D02*
X227245055Y-196300057D01*
X227245055Y-196300057D02*
X227173626Y-196442914D01*
X227173626Y-196442914D02*
X227102198Y-196514342D01*
X227102198Y-196514342D02*
X226959340Y-196585771D01*
X226959340Y-196585771D02*
X226602198Y-196585771D01*
X226602198Y-196585771D02*
X226459340Y-196514342D01*
X226459340Y-196514342D02*
X226387912Y-196442914D01*
X228530769Y-196585771D02*
X228530769Y-195800057D01*
X228530769Y-195800057D02*
X228459340Y-195657200D01*
X228459340Y-195657200D02*
X228316483Y-195585771D01*
X228316483Y-195585771D02*
X228030769Y-195585771D01*
X228030769Y-195585771D02*
X227887911Y-195657200D01*
X228530769Y-196514342D02*
X228387911Y-196585771D01*
X228387911Y-196585771D02*
X228030769Y-196585771D01*
X228030769Y-196585771D02*
X227887911Y-196514342D01*
X227887911Y-196514342D02*
X227816483Y-196371485D01*
X227816483Y-196371485D02*
X227816483Y-196228628D01*
X227816483Y-196228628D02*
X227887911Y-196085771D01*
X227887911Y-196085771D02*
X228030769Y-196014342D01*
X228030769Y-196014342D02*
X228387911Y-196014342D01*
X228387911Y-196014342D02*
X228530769Y-195942914D01*
X229887912Y-195585771D02*
X229887912Y-196585771D01*
X229530769Y-195014342D02*
X229173626Y-196085771D01*
X229173626Y-196085771D02*
X230102197Y-196085771D01*
X230959340Y-195085771D02*
X231102197Y-195085771D01*
X231102197Y-195085771D02*
X231245054Y-195157200D01*
X231245054Y-195157200D02*
X231316483Y-195228628D01*
X231316483Y-195228628D02*
X231387911Y-195371485D01*
X231387911Y-195371485D02*
X231459340Y-195657200D01*
X231459340Y-195657200D02*
X231459340Y-196014342D01*
X231459340Y-196014342D02*
X231387911Y-196300057D01*
X231387911Y-196300057D02*
X231316483Y-196442914D01*
X231316483Y-196442914D02*
X231245054Y-196514342D01*
X231245054Y-196514342D02*
X231102197Y-196585771D01*
X231102197Y-196585771D02*
X230959340Y-196585771D01*
X230959340Y-196585771D02*
X230816483Y-196514342D01*
X230816483Y-196514342D02*
X230745054Y-196442914D01*
X230745054Y-196442914D02*
X230673625Y-196300057D01*
X230673625Y-196300057D02*
X230602197Y-196014342D01*
X230602197Y-196014342D02*
X230602197Y-195657200D01*
X230602197Y-195657200D02*
X230673625Y-195371485D01*
X230673625Y-195371485D02*
X230745054Y-195228628D01*
X230745054Y-195228628D02*
X230816483Y-195157200D01*
X230816483Y-195157200D02*
X230959340Y-195085771D01*
X231959339Y-197157200D02*
X232030768Y-197085771D01*
X232030768Y-197085771D02*
X232173625Y-196871485D01*
X232173625Y-196871485D02*
X232245054Y-196728628D01*
X232245054Y-196728628D02*
X232316482Y-196514342D01*
X232316482Y-196514342D02*
X232387911Y-196157200D01*
X232387911Y-196157200D02*
X232387911Y-195871485D01*
X232387911Y-195871485D02*
X232316482Y-195514342D01*
X232316482Y-195514342D02*
X232245054Y-195300057D01*
X232245054Y-195300057D02*
X232173625Y-195157200D01*
X232173625Y-195157200D02*
X232030768Y-194942914D01*
X232030768Y-194942914D02*
X231959339Y-194871485D01*
D10*
D11*
X177002200Y-191507200D02*
X285002200Y-191507200D01*
D10*
D12*
X264216485Y-193785771D02*
X263716485Y-193071485D01*
X263359342Y-193785771D02*
X263359342Y-192285771D01*
X263359342Y-192285771D02*
X263930771Y-192285771D01*
X263930771Y-192285771D02*
X264073628Y-192357200D01*
X264073628Y-192357200D02*
X264145057Y-192428628D01*
X264145057Y-192428628D02*
X264216485Y-192571485D01*
X264216485Y-192571485D02*
X264216485Y-192785771D01*
X264216485Y-192785771D02*
X264145057Y-192928628D01*
X264145057Y-192928628D02*
X264073628Y-193000057D01*
X264073628Y-193000057D02*
X263930771Y-193071485D01*
X263930771Y-193071485D02*
X263359342Y-193071485D01*
X265430771Y-193714342D02*
X265287914Y-193785771D01*
X265287914Y-193785771D02*
X265002200Y-193785771D01*
X265002200Y-193785771D02*
X264859342Y-193714342D01*
X264859342Y-193714342D02*
X264787914Y-193571485D01*
X264787914Y-193571485D02*
X264787914Y-193000057D01*
X264787914Y-193000057D02*
X264859342Y-192857200D01*
X264859342Y-192857200D02*
X265002200Y-192785771D01*
X265002200Y-192785771D02*
X265287914Y-192785771D01*
X265287914Y-192785771D02*
X265430771Y-192857200D01*
X265430771Y-192857200D02*
X265502200Y-193000057D01*
X265502200Y-193000057D02*
X265502200Y-193142914D01*
X265502200Y-193142914D02*
X264787914Y-193285771D01*
X266002199Y-192785771D02*
X266359342Y-193785771D01*
X266359342Y-193785771D02*
X266716485Y-192785771D01*
X267287913Y-193642914D02*
X267359342Y-193714342D01*
X267359342Y-193714342D02*
X267287913Y-193785771D01*
X267287913Y-193785771D02*
X267216485Y-193714342D01*
X267216485Y-193714342D02*
X267287913Y-193642914D01*
X267287913Y-193642914D02*
X267287913Y-193785771D01*
X267287913Y-192857200D02*
X267359342Y-192928628D01*
X267359342Y-192928628D02*
X267287913Y-193000057D01*
X267287913Y-193000057D02*
X267216485Y-192928628D01*
X267216485Y-192928628D02*
X267287913Y-192857200D01*
X267287913Y-192857200D02*
X267287913Y-193000057D01*
D10*
D11*
X178287914Y-193714342D02*
X178502200Y-193785771D01*
X178502200Y-193785771D02*
X178859342Y-193785771D01*
X178859342Y-193785771D02*
X179002200Y-193714342D01*
X179002200Y-193714342D02*
X179073628Y-193642914D01*
X179073628Y-193642914D02*
X179145057Y-193500057D01*
X179145057Y-193500057D02*
X179145057Y-193357200D01*
X179145057Y-193357200D02*
X179073628Y-193214342D01*
X179073628Y-193214342D02*
X179002200Y-193142914D01*
X179002200Y-193142914D02*
X178859342Y-193071485D01*
X178859342Y-193071485D02*
X178573628Y-193000057D01*
X178573628Y-193000057D02*
X178430771Y-192928628D01*
X178430771Y-192928628D02*
X178359342Y-192857200D01*
X178359342Y-192857200D02*
X178287914Y-192714342D01*
X178287914Y-192714342D02*
X178287914Y-192571485D01*
X178287914Y-192571485D02*
X178359342Y-192428628D01*
X178359342Y-192428628D02*
X178430771Y-192357200D01*
X178430771Y-192357200D02*
X178573628Y-192285771D01*
X178573628Y-192285771D02*
X178930771Y-192285771D01*
X178930771Y-192285771D02*
X179145057Y-192357200D01*
X179787913Y-193785771D02*
X179787913Y-192785771D01*
X179787913Y-192285771D02*
X179716485Y-192357200D01*
X179716485Y-192357200D02*
X179787913Y-192428628D01*
X179787913Y-192428628D02*
X179859342Y-192357200D01*
X179859342Y-192357200D02*
X179787913Y-192285771D01*
X179787913Y-192285771D02*
X179787913Y-192428628D01*
X180359342Y-192785771D02*
X181145057Y-192785771D01*
X181145057Y-192785771D02*
X180359342Y-193785771D01*
X180359342Y-193785771D02*
X181145057Y-193785771D01*
X182287914Y-193714342D02*
X182145057Y-193785771D01*
X182145057Y-193785771D02*
X181859343Y-193785771D01*
X181859343Y-193785771D02*
X181716485Y-193714342D01*
X181716485Y-193714342D02*
X181645057Y-193571485D01*
X181645057Y-193571485D02*
X181645057Y-193000057D01*
X181645057Y-193000057D02*
X181716485Y-192857200D01*
X181716485Y-192857200D02*
X181859343Y-192785771D01*
X181859343Y-192785771D02*
X182145057Y-192785771D01*
X182145057Y-192785771D02*
X182287914Y-192857200D01*
X182287914Y-192857200D02*
X182359343Y-193000057D01*
X182359343Y-193000057D02*
X182359343Y-193142914D01*
X182359343Y-193142914D02*
X181645057Y-193285771D01*
X183002199Y-193642914D02*
X183073628Y-193714342D01*
X183073628Y-193714342D02*
X183002199Y-193785771D01*
X183002199Y-193785771D02*
X182930771Y-193714342D01*
X182930771Y-193714342D02*
X183002199Y-193642914D01*
X183002199Y-193642914D02*
X183002199Y-193785771D01*
X183002199Y-192857200D02*
X183073628Y-192928628D01*
X183073628Y-192928628D02*
X183002199Y-193000057D01*
X183002199Y-193000057D02*
X182930771Y-192928628D01*
X182930771Y-192928628D02*
X183002199Y-192857200D01*
X183002199Y-192857200D02*
X183002199Y-193000057D01*
X184545057Y-193357200D02*
X185259343Y-193357200D01*
X184402200Y-193785771D02*
X184902200Y-192285771D01*
X184902200Y-192285771D02*
X185402200Y-193785771D01*
X186545057Y-192785771D02*
X186545057Y-193785771D01*
X186187914Y-192214342D02*
X185830771Y-193285771D01*
X185830771Y-193285771D02*
X186759342Y-193285771D01*
D10*
D11*
X263359342Y-196585771D02*
X263359342Y-195085771D01*
X264716486Y-196585771D02*
X264716486Y-195085771D01*
X264716486Y-196514342D02*
X264573628Y-196585771D01*
X264573628Y-196585771D02*
X264287914Y-196585771D01*
X264287914Y-196585771D02*
X264145057Y-196514342D01*
X264145057Y-196514342D02*
X264073628Y-196442914D01*
X264073628Y-196442914D02*
X264002200Y-196300057D01*
X264002200Y-196300057D02*
X264002200Y-195871485D01*
X264002200Y-195871485D02*
X264073628Y-195728628D01*
X264073628Y-195728628D02*
X264145057Y-195657200D01*
X264145057Y-195657200D02*
X264287914Y-195585771D01*
X264287914Y-195585771D02*
X264573628Y-195585771D01*
X264573628Y-195585771D02*
X264716486Y-195657200D01*
X265430771Y-196442914D02*
X265502200Y-196514342D01*
X265502200Y-196514342D02*
X265430771Y-196585771D01*
X265430771Y-196585771D02*
X265359343Y-196514342D01*
X265359343Y-196514342D02*
X265430771Y-196442914D01*
X265430771Y-196442914D02*
X265430771Y-196585771D01*
X265430771Y-195657200D02*
X265502200Y-195728628D01*
X265502200Y-195728628D02*
X265430771Y-195800057D01*
X265430771Y-195800057D02*
X265359343Y-195728628D01*
X265359343Y-195728628D02*
X265430771Y-195657200D01*
X265430771Y-195657200D02*
X265430771Y-195800057D01*
X267830772Y-196585771D02*
X266973629Y-196585771D01*
X267402200Y-196585771D02*
X267402200Y-195085771D01*
X267402200Y-195085771D02*
X267259343Y-195300057D01*
X267259343Y-195300057D02*
X267116486Y-195442914D01*
X267116486Y-195442914D02*
X266973629Y-195514342D01*
X269545057Y-195014342D02*
X268259343Y-196942914D01*
X270830772Y-196585771D02*
X269973629Y-196585771D01*
X270402200Y-196585771D02*
X270402200Y-195085771D01*
X270402200Y-195085771D02*
X270259343Y-195300057D01*
X270259343Y-195300057D02*
X270116486Y-195442914D01*
X270116486Y-195442914D02*
X269973629Y-195514342D01*
D10*
D11*
X177002200Y-187507200D02*
X285002200Y-187507200D01*
D10*
D13*
X178454580Y-188211961D02*
X179597438Y-188211961D01*
X178776009Y-190211961D02*
X179026009Y-188211961D01*
X180014105Y-190211961D02*
X180180771Y-188878628D01*
X180264105Y-188211961D02*
X180156962Y-188307200D01*
X180156962Y-188307200D02*
X180240295Y-188402438D01*
X180240295Y-188402438D02*
X180347438Y-188307200D01*
X180347438Y-188307200D02*
X180264105Y-188211961D01*
X180264105Y-188211961D02*
X180240295Y-188402438D01*
X180847438Y-188878628D02*
X181609343Y-188878628D01*
X181216486Y-188211961D02*
X181002200Y-189926247D01*
X181002200Y-189926247D02*
X181073629Y-190116723D01*
X181073629Y-190116723D02*
X181252200Y-190211961D01*
X181252200Y-190211961D02*
X181442676Y-190211961D01*
X182395057Y-190211961D02*
X182216486Y-190116723D01*
X182216486Y-190116723D02*
X182145057Y-189926247D01*
X182145057Y-189926247D02*
X182359343Y-188211961D01*
X183930771Y-190116723D02*
X183728390Y-190211961D01*
X183728390Y-190211961D02*
X183347438Y-190211961D01*
X183347438Y-190211961D02*
X183168867Y-190116723D01*
X183168867Y-190116723D02*
X183097438Y-189926247D01*
X183097438Y-189926247D02*
X183192676Y-189164342D01*
X183192676Y-189164342D02*
X183311724Y-188973866D01*
X183311724Y-188973866D02*
X183514105Y-188878628D01*
X183514105Y-188878628D02*
X183895057Y-188878628D01*
X183895057Y-188878628D02*
X184073628Y-188973866D01*
X184073628Y-188973866D02*
X184145057Y-189164342D01*
X184145057Y-189164342D02*
X184121247Y-189354819D01*
X184121247Y-189354819D02*
X183145057Y-189545295D01*
X184895057Y-190021485D02*
X184978391Y-190116723D01*
X184978391Y-190116723D02*
X184871248Y-190211961D01*
X184871248Y-190211961D02*
X184787914Y-190116723D01*
X184787914Y-190116723D02*
X184895057Y-190021485D01*
X184895057Y-190021485D02*
X184871248Y-190211961D01*
X185026010Y-188973866D02*
X185109343Y-189069104D01*
X185109343Y-189069104D02*
X185002200Y-189164342D01*
X185002200Y-189164342D02*
X184918867Y-189069104D01*
X184918867Y-189069104D02*
X185026010Y-188973866D01*
X185026010Y-188973866D02*
X185002200Y-189164342D01*
D10*
D11*
X178859342Y-185600057D02*
X178359342Y-185600057D01*
X178359342Y-186385771D02*
X178359342Y-184885771D01*
X178359342Y-184885771D02*
X179073628Y-184885771D01*
X179645056Y-186385771D02*
X179645056Y-185385771D01*
X179645056Y-184885771D02*
X179573628Y-184957200D01*
X179573628Y-184957200D02*
X179645056Y-185028628D01*
X179645056Y-185028628D02*
X179716485Y-184957200D01*
X179716485Y-184957200D02*
X179645056Y-184885771D01*
X179645056Y-184885771D02*
X179645056Y-185028628D01*
X180573628Y-186385771D02*
X180430771Y-186314342D01*
X180430771Y-186314342D02*
X180359342Y-186171485D01*
X180359342Y-186171485D02*
X180359342Y-184885771D01*
X181716485Y-186314342D02*
X181573628Y-186385771D01*
X181573628Y-186385771D02*
X181287914Y-186385771D01*
X181287914Y-186385771D02*
X181145056Y-186314342D01*
X181145056Y-186314342D02*
X181073628Y-186171485D01*
X181073628Y-186171485D02*
X181073628Y-185600057D01*
X181073628Y-185600057D02*
X181145056Y-185457200D01*
X181145056Y-185457200D02*
X181287914Y-185385771D01*
X181287914Y-185385771D02*
X181573628Y-185385771D01*
X181573628Y-185385771D02*
X181716485Y-185457200D01*
X181716485Y-185457200D02*
X181787914Y-185600057D01*
X181787914Y-185600057D02*
X181787914Y-185742914D01*
X181787914Y-185742914D02*
X181073628Y-185885771D01*
X182430770Y-186242914D02*
X182502199Y-186314342D01*
X182502199Y-186314342D02*
X182430770Y-186385771D01*
X182430770Y-186385771D02*
X182359342Y-186314342D01*
X182359342Y-186314342D02*
X182430770Y-186242914D01*
X182430770Y-186242914D02*
X182430770Y-186385771D01*
X182430770Y-185457200D02*
X182502199Y-185528628D01*
X182502199Y-185528628D02*
X182430770Y-185600057D01*
X182430770Y-185600057D02*
X182359342Y-185528628D01*
X182359342Y-185528628D02*
X182430770Y-185457200D01*
X182430770Y-185457200D02*
X182430770Y-185600057D01*
X184045056Y-186385771D02*
X184045056Y-184885771D01*
X184045056Y-184885771D02*
X184616485Y-184885771D01*
X184616485Y-184885771D02*
X184759342Y-184957200D01*
X184759342Y-184957200D02*
X184830771Y-185028628D01*
X184830771Y-185028628D02*
X184902199Y-185171485D01*
X184902199Y-185171485D02*
X184902199Y-185385771D01*
X184902199Y-185385771D02*
X184830771Y-185528628D01*
X184830771Y-185528628D02*
X184759342Y-185600057D01*
X184759342Y-185600057D02*
X184616485Y-185671485D01*
X184616485Y-185671485D02*
X184045056Y-185671485D01*
X185545056Y-186385771D02*
X185545056Y-185385771D01*
X185545056Y-185671485D02*
X185616485Y-185528628D01*
X185616485Y-185528628D02*
X185687914Y-185457200D01*
X185687914Y-185457200D02*
X185830771Y-185385771D01*
X185830771Y-185385771D02*
X185973628Y-185385771D01*
X186687913Y-186385771D02*
X186545056Y-186314342D01*
X186545056Y-186314342D02*
X186473627Y-186242914D01*
X186473627Y-186242914D02*
X186402199Y-186100057D01*
X186402199Y-186100057D02*
X186402199Y-185671485D01*
X186402199Y-185671485D02*
X186473627Y-185528628D01*
X186473627Y-185528628D02*
X186545056Y-185457200D01*
X186545056Y-185457200D02*
X186687913Y-185385771D01*
X186687913Y-185385771D02*
X186902199Y-185385771D01*
X186902199Y-185385771D02*
X187045056Y-185457200D01*
X187045056Y-185457200D02*
X187116485Y-185528628D01*
X187116485Y-185528628D02*
X187187913Y-185671485D01*
X187187913Y-185671485D02*
X187187913Y-186100057D01*
X187187913Y-186100057D02*
X187116485Y-186242914D01*
X187116485Y-186242914D02*
X187045056Y-186314342D01*
X187045056Y-186314342D02*
X186902199Y-186385771D01*
X186902199Y-186385771D02*
X186687913Y-186385771D01*
X187830770Y-185385771D02*
X187830770Y-186671485D01*
X187830770Y-186671485D02*
X187759342Y-186814342D01*
X187759342Y-186814342D02*
X187616485Y-186885771D01*
X187616485Y-186885771D02*
X187545056Y-186885771D01*
X187830770Y-184885771D02*
X187759342Y-184957200D01*
X187759342Y-184957200D02*
X187830770Y-185028628D01*
X187830770Y-185028628D02*
X187902199Y-184957200D01*
X187902199Y-184957200D02*
X187830770Y-184885771D01*
X187830770Y-184885771D02*
X187830770Y-185028628D01*
X189116485Y-186314342D02*
X188973628Y-186385771D01*
X188973628Y-186385771D02*
X188687914Y-186385771D01*
X188687914Y-186385771D02*
X188545056Y-186314342D01*
X188545056Y-186314342D02*
X188473628Y-186171485D01*
X188473628Y-186171485D02*
X188473628Y-185600057D01*
X188473628Y-185600057D02*
X188545056Y-185457200D01*
X188545056Y-185457200D02*
X188687914Y-185385771D01*
X188687914Y-185385771D02*
X188973628Y-185385771D01*
X188973628Y-185385771D02*
X189116485Y-185457200D01*
X189116485Y-185457200D02*
X189187914Y-185600057D01*
X189187914Y-185600057D02*
X189187914Y-185742914D01*
X189187914Y-185742914D02*
X188473628Y-185885771D01*
X190473628Y-186314342D02*
X190330770Y-186385771D01*
X190330770Y-186385771D02*
X190045056Y-186385771D01*
X190045056Y-186385771D02*
X189902199Y-186314342D01*
X189902199Y-186314342D02*
X189830770Y-186242914D01*
X189830770Y-186242914D02*
X189759342Y-186100057D01*
X189759342Y-186100057D02*
X189759342Y-185671485D01*
X189759342Y-185671485D02*
X189830770Y-185528628D01*
X189830770Y-185528628D02*
X189902199Y-185457200D01*
X189902199Y-185457200D02*
X190045056Y-185385771D01*
X190045056Y-185385771D02*
X190330770Y-185385771D01*
X190330770Y-185385771D02*
X190473628Y-185457200D01*
X190902199Y-185385771D02*
X191473627Y-185385771D01*
X191116484Y-184885771D02*
X191116484Y-186171485D01*
X191116484Y-186171485D02*
X191187913Y-186314342D01*
X191187913Y-186314342D02*
X191330770Y-186385771D01*
X191330770Y-186385771D02*
X191473627Y-186385771D01*
X191973627Y-186242914D02*
X192045056Y-186314342D01*
X192045056Y-186314342D02*
X191973627Y-186385771D01*
X191973627Y-186385771D02*
X191902199Y-186314342D01*
X191902199Y-186314342D02*
X191973627Y-186242914D01*
X191973627Y-186242914D02*
X191973627Y-186385771D01*
X192687913Y-186385771D02*
X192687913Y-184885771D01*
X192830771Y-185814342D02*
X193259342Y-186385771D01*
X193259342Y-185385771D02*
X192687913Y-185957200D01*
X193902199Y-186385771D02*
X193902199Y-185385771D01*
X193902199Y-184885771D02*
X193830771Y-184957200D01*
X193830771Y-184957200D02*
X193902199Y-185028628D01*
X193902199Y-185028628D02*
X193973628Y-184957200D01*
X193973628Y-184957200D02*
X193902199Y-184885771D01*
X193902199Y-184885771D02*
X193902199Y-185028628D01*
X195259343Y-186314342D02*
X195116485Y-186385771D01*
X195116485Y-186385771D02*
X194830771Y-186385771D01*
X194830771Y-186385771D02*
X194687914Y-186314342D01*
X194687914Y-186314342D02*
X194616485Y-186242914D01*
X194616485Y-186242914D02*
X194545057Y-186100057D01*
X194545057Y-186100057D02*
X194545057Y-185671485D01*
X194545057Y-185671485D02*
X194616485Y-185528628D01*
X194616485Y-185528628D02*
X194687914Y-185457200D01*
X194687914Y-185457200D02*
X194830771Y-185385771D01*
X194830771Y-185385771D02*
X195116485Y-185385771D01*
X195116485Y-185385771D02*
X195259343Y-185457200D01*
X196545057Y-186385771D02*
X196545057Y-185600057D01*
X196545057Y-185600057D02*
X196473628Y-185457200D01*
X196473628Y-185457200D02*
X196330771Y-185385771D01*
X196330771Y-185385771D02*
X196045057Y-185385771D01*
X196045057Y-185385771D02*
X195902199Y-185457200D01*
X196545057Y-186314342D02*
X196402199Y-186385771D01*
X196402199Y-186385771D02*
X196045057Y-186385771D01*
X196045057Y-186385771D02*
X195902199Y-186314342D01*
X195902199Y-186314342D02*
X195830771Y-186171485D01*
X195830771Y-186171485D02*
X195830771Y-186028628D01*
X195830771Y-186028628D02*
X195902199Y-185885771D01*
X195902199Y-185885771D02*
X196045057Y-185814342D01*
X196045057Y-185814342D02*
X196402199Y-185814342D01*
X196402199Y-185814342D02*
X196545057Y-185742914D01*
X197902200Y-186385771D02*
X197902200Y-184885771D01*
X197902200Y-186314342D02*
X197759342Y-186385771D01*
X197759342Y-186385771D02*
X197473628Y-186385771D01*
X197473628Y-186385771D02*
X197330771Y-186314342D01*
X197330771Y-186314342D02*
X197259342Y-186242914D01*
X197259342Y-186242914D02*
X197187914Y-186100057D01*
X197187914Y-186100057D02*
X197187914Y-185671485D01*
X197187914Y-185671485D02*
X197259342Y-185528628D01*
X197259342Y-185528628D02*
X197330771Y-185457200D01*
X197330771Y-185457200D02*
X197473628Y-185385771D01*
X197473628Y-185385771D02*
X197759342Y-185385771D01*
X197759342Y-185385771D02*
X197902200Y-185457200D01*
X198259343Y-186528628D02*
X199402200Y-186528628D01*
X199759342Y-185385771D02*
X199759342Y-186885771D01*
X199759342Y-185457200D02*
X199902200Y-185385771D01*
X199902200Y-185385771D02*
X200187914Y-185385771D01*
X200187914Y-185385771D02*
X200330771Y-185457200D01*
X200330771Y-185457200D02*
X200402200Y-185528628D01*
X200402200Y-185528628D02*
X200473628Y-185671485D01*
X200473628Y-185671485D02*
X200473628Y-186100057D01*
X200473628Y-186100057D02*
X200402200Y-186242914D01*
X200402200Y-186242914D02*
X200330771Y-186314342D01*
X200330771Y-186314342D02*
X200187914Y-186385771D01*
X200187914Y-186385771D02*
X199902200Y-186385771D01*
X199902200Y-186385771D02*
X199759342Y-186314342D01*
X201759343Y-186314342D02*
X201616485Y-186385771D01*
X201616485Y-186385771D02*
X201330771Y-186385771D01*
X201330771Y-186385771D02*
X201187914Y-186314342D01*
X201187914Y-186314342D02*
X201116485Y-186242914D01*
X201116485Y-186242914D02*
X201045057Y-186100057D01*
X201045057Y-186100057D02*
X201045057Y-185671485D01*
X201045057Y-185671485D02*
X201116485Y-185528628D01*
X201116485Y-185528628D02*
X201187914Y-185457200D01*
X201187914Y-185457200D02*
X201330771Y-185385771D01*
X201330771Y-185385771D02*
X201616485Y-185385771D01*
X201616485Y-185385771D02*
X201759343Y-185457200D01*
X202402199Y-186385771D02*
X202402199Y-184885771D01*
X202402199Y-185457200D02*
X202545057Y-185385771D01*
X202545057Y-185385771D02*
X202830771Y-185385771D01*
X202830771Y-185385771D02*
X202973628Y-185457200D01*
X202973628Y-185457200D02*
X203045057Y-185528628D01*
X203045057Y-185528628D02*
X203116485Y-185671485D01*
X203116485Y-185671485D02*
X203116485Y-186100057D01*
X203116485Y-186100057D02*
X203045057Y-186242914D01*
X203045057Y-186242914D02*
X202973628Y-186314342D01*
X202973628Y-186314342D02*
X202830771Y-186385771D01*
X202830771Y-186385771D02*
X202545057Y-186385771D01*
X202545057Y-186385771D02*
X202402199Y-186314342D01*
D10*
D11*
X177002200Y-181507200D02*
X285002200Y-181507200D01*
D10*
D11*
X178287914Y-183614342D02*
X178502200Y-183685771D01*
X178502200Y-183685771D02*
X178859342Y-183685771D01*
X178859342Y-183685771D02*
X179002200Y-183614342D01*
X179002200Y-183614342D02*
X179073628Y-183542914D01*
X179073628Y-183542914D02*
X179145057Y-183400057D01*
X179145057Y-183400057D02*
X179145057Y-183257200D01*
X179145057Y-183257200D02*
X179073628Y-183114342D01*
X179073628Y-183114342D02*
X179002200Y-183042914D01*
X179002200Y-183042914D02*
X178859342Y-182971485D01*
X178859342Y-182971485D02*
X178573628Y-182900057D01*
X178573628Y-182900057D02*
X178430771Y-182828628D01*
X178430771Y-182828628D02*
X178359342Y-182757200D01*
X178359342Y-182757200D02*
X178287914Y-182614342D01*
X178287914Y-182614342D02*
X178287914Y-182471485D01*
X178287914Y-182471485D02*
X178359342Y-182328628D01*
X178359342Y-182328628D02*
X178430771Y-182257200D01*
X178430771Y-182257200D02*
X178573628Y-182185771D01*
X178573628Y-182185771D02*
X178930771Y-182185771D01*
X178930771Y-182185771D02*
X179145057Y-182257200D01*
X179787913Y-183685771D02*
X179787913Y-182185771D01*
X180430771Y-183685771D02*
X180430771Y-182900057D01*
X180430771Y-182900057D02*
X180359342Y-182757200D01*
X180359342Y-182757200D02*
X180216485Y-182685771D01*
X180216485Y-182685771D02*
X180002199Y-182685771D01*
X180002199Y-182685771D02*
X179859342Y-182757200D01*
X179859342Y-182757200D02*
X179787913Y-182828628D01*
X181716485Y-183614342D02*
X181573628Y-183685771D01*
X181573628Y-183685771D02*
X181287914Y-183685771D01*
X181287914Y-183685771D02*
X181145056Y-183614342D01*
X181145056Y-183614342D02*
X181073628Y-183471485D01*
X181073628Y-183471485D02*
X181073628Y-182900057D01*
X181073628Y-182900057D02*
X181145056Y-182757200D01*
X181145056Y-182757200D02*
X181287914Y-182685771D01*
X181287914Y-182685771D02*
X181573628Y-182685771D01*
X181573628Y-182685771D02*
X181716485Y-182757200D01*
X181716485Y-182757200D02*
X181787914Y-182900057D01*
X181787914Y-182900057D02*
X181787914Y-183042914D01*
X181787914Y-183042914D02*
X181073628Y-183185771D01*
X183002199Y-183614342D02*
X182859342Y-183685771D01*
X182859342Y-183685771D02*
X182573628Y-183685771D01*
X182573628Y-183685771D02*
X182430770Y-183614342D01*
X182430770Y-183614342D02*
X182359342Y-183471485D01*
X182359342Y-183471485D02*
X182359342Y-182900057D01*
X182359342Y-182900057D02*
X182430770Y-182757200D01*
X182430770Y-182757200D02*
X182573628Y-182685771D01*
X182573628Y-182685771D02*
X182859342Y-182685771D01*
X182859342Y-182685771D02*
X183002199Y-182757200D01*
X183002199Y-182757200D02*
X183073628Y-182900057D01*
X183073628Y-182900057D02*
X183073628Y-183042914D01*
X183073628Y-183042914D02*
X182359342Y-183185771D01*
X183502199Y-182685771D02*
X184073627Y-182685771D01*
X183716484Y-182185771D02*
X183716484Y-183471485D01*
X183716484Y-183471485D02*
X183787913Y-183614342D01*
X183787913Y-183614342D02*
X183930770Y-183685771D01*
X183930770Y-183685771D02*
X184073627Y-183685771D01*
X184573627Y-183542914D02*
X184645056Y-183614342D01*
X184645056Y-183614342D02*
X184573627Y-183685771D01*
X184573627Y-183685771D02*
X184502199Y-183614342D01*
X184502199Y-183614342D02*
X184573627Y-183542914D01*
X184573627Y-183542914D02*
X184573627Y-183685771D01*
X184573627Y-182757200D02*
X184645056Y-182828628D01*
X184645056Y-182828628D02*
X184573627Y-182900057D01*
X184573627Y-182900057D02*
X184502199Y-182828628D01*
X184502199Y-182828628D02*
X184573627Y-182757200D01*
X184573627Y-182757200D02*
X184573627Y-182900057D01*
D10*
D12*
D10*
D11*
D10*
D11*
D10*
D11*
D10*
D11*
D10*
D11*
X197002200Y-191507200D02*
X197002200Y-194507200D01*
D10*
D11*
X261002200Y-191507200D02*
X261002200Y-198007200D01*
D14*
%TO.P,REF\u002A\u002A,S1*%
%TO.N,N/C*%
X44404999Y-14558999D03*
X53384999Y-14558999D03*
X53024999Y-20508999D03*
X44764999Y-20508999D03*
%TD*%
D15*
%TO.P,U2,65*%
%TO.N,N/C*%
X37881000Y-30318000D03*
X39081000Y-30318000D03*
D16*
X38430999Y-29667999D03*
D15*
X37881000Y-29118000D03*
X39081000Y-29118000D03*
%TD*%
%TO.P,U3,33*%
%TO.N,N/C*%
X47625000Y-57023000D03*
D17*
X47562499Y-57135499D03*
%TD*%
D18*
%TO.P,SW1,1*%
%TO.N,N/C*%
X35565499Y-44881999D03*
D19*
%TO.P,SW1,2*%
X38065500Y-44882000D03*
%TO.P,SW1,3*%
X40565500Y-44882000D03*
%TO.P,SW1,4*%
X35565500Y-48082000D03*
%TO.P,SW1,5*%
X38065500Y-48082000D03*
%TO.P,SW1,6*%
X40565500Y-48082000D03*
%TD*%
D20*
%TO.P,J2,1*%
%TO.N,N/C*%
X86685000Y-25732000D03*
%TO.P,J2,2*%
X84185000Y-25732000D03*
%TO.P,J2,3*%
X82185000Y-25732000D03*
%TO.P,J2,4*%
X79685000Y-25732000D03*
%TO.P,J2,5*%
X79185000Y-27232000D03*
%TO.P,J2,6*%
X81185000Y-27232000D03*
%TO.P,J2,7*%
X83185000Y-27232000D03*
%TO.P,J2,8*%
X85185000Y-27232000D03*
%TO.P,J2,9*%
X87185000Y-27232000D03*
D21*
%TO.P,J2,10*%
X89584999Y-26481999D03*
D22*
X89584999Y-17981999D03*
D21*
X76784999Y-26481999D03*
D22*
X76784999Y-17981999D03*
%TD*%
D20*
%TO.P,J1,1*%
%TO.N,N/C*%
X66548000Y-25781000D03*
%TO.P,J1,2*%
X64048000Y-25781000D03*
%TO.P,J1,3*%
X62048000Y-25781000D03*
%TO.P,J1,4*%
X59548000Y-25781000D03*
%TO.P,J1,5*%
X59048000Y-27281000D03*
%TO.P,J1,6*%
X61048000Y-27281000D03*
%TO.P,J1,7*%
X63048000Y-27281000D03*
%TO.P,J1,8*%
X65048000Y-27281000D03*
%TO.P,J1,9*%
X67048000Y-27281000D03*
D22*
%TO.P,J1,10*%
X56647999Y-18030999D03*
D21*
X56647999Y-26530999D03*
D22*
X69447999Y-18030999D03*
D21*
X69447999Y-26530999D03*
%TD*%
D23*
%TO.P,REF\u002A\u002A,1*%
%TO.N,N/C*%
X21970999Y-56387999D03*
D24*
%TO.P,REF\u002A\u002A,2*%
X23751000Y-55372000D03*
%TO.P,REF\u002A\u002A,3*%
X21971000Y-54356000D03*
%TO.P,REF\u002A\u002A,4*%
X23751000Y-53340000D03*
%TO.P,REF\u002A\u002A,5*%
X21971000Y-52324000D03*
%TO.P,REF\u002A\u002A,6*%
X23751000Y-51308000D03*
%TO.P,REF\u002A\u002A,7*%
X21971000Y-50292000D03*
%TO.P,REF\u002A\u002A,8*%
X23751000Y-49276000D03*
D25*
%TO.P,REF\u002A\u002A,SH*%
X22861000Y-44698000D03*
X22861000Y-60958000D03*
%TD*%
D14*
%TO.P,P1,S1*%
%TO.N,N/C*%
X16464999Y-17225999D03*
X25444999Y-17225999D03*
X25084999Y-23175999D03*
X16824999Y-23175999D03*
%TD*%
D26*
%TO.N,*%
X63119000Y-24003000D03*
X59055000Y-24003000D03*
X56896000Y-24003000D03*
X45720000Y-17653000D03*
X38681000Y-25092000D03*
X37973000Y-22225000D03*
X38354000Y-24511000D03*
X49149000Y-38989000D03*
X49276000Y-36449000D03*
X49403000Y-41529000D03*
X48006000Y-43307000D03*
X61849000Y-35941000D03*
X57912000Y-28829000D03*
X75184000Y-35814000D03*
X79756000Y-24130000D03*
X84201000Y-20066000D03*
X77470000Y-20066000D03*
X80137000Y-15748000D03*
X78613000Y-15113000D03*
X85471000Y-25908000D03*
X75057000Y-18161000D03*
X72771000Y-18034000D03*
X72136000Y-20193000D03*
X83756500Y-20637500D03*
X81661000Y-21209000D03*
X41081000Y-24444000D03*
X40681000Y-24044000D03*
X40281000Y-23644000D03*
X39481000Y-23384000D03*
X38608000Y-23749000D03*
X41481000Y-24971000D03*
X40640000Y-30226000D03*
X40767000Y-32258000D03*
X38481000Y-37084000D03*
X35433000Y-27432000D03*
X41656000Y-26670000D03*
X35881000Y-24324000D03*
X35179000Y-21463000D03*
X27305000Y-23114000D03*
X51689000Y-55372000D03*
X54991000Y-37338000D03*
X50492000Y-38681000D03*
X50492000Y-37392000D03*
X51689000Y-28956000D03*
X50492000Y-29518000D03*
X46482000Y-53721000D03*
X47375000Y-55368000D03*
X43815000Y-59563000D03*
X43815000Y-58547000D03*
X19939000Y-51308000D03*
X19685000Y-54610000D03*
X24638000Y-56642000D03*
X43370500Y-57340500D03*
X50927000Y-57404000D03*
X48375000Y-60694000D03*
X46101000Y-53213000D03*
X44450000Y-56896000D03*
X46101000Y-55372000D03*
X47244000Y-26416000D03*
X47752000Y-34798000D03*
X47752000Y-41402000D03*
X36195000Y-41402000D03*
X61849000Y-24511000D03*
X63881000Y-23495000D03*
X43561000Y-33274000D03*
X43942000Y-32893000D03*
X67437000Y-24892000D03*
X86360000Y-23368000D03*
X34925000Y-37846000D03*
X29972000Y-36195000D03*
X31242000Y-28829000D03*
X33528000Y-24765000D03*
X43944000Y-34165000D03*
X21717000Y-21082000D03*
X21463000Y-22479000D03*
X21463000Y-25781000D03*
X20447000Y-25908000D03*
X20574000Y-22606000D03*
X20574000Y-20066000D03*
X36576000Y-32893000D03*
X36576000Y-32385000D03*
X25654000Y-28702000D03*
X24765000Y-29591000D03*
X27178000Y-30099000D03*
X27940000Y-29464000D03*
X28448000Y-32004000D03*
X28956000Y-31750000D03*
X36703000Y-34671000D03*
X37592000Y-34798000D03*
X23495000Y-22606000D03*
X22225000Y-22733000D03*
X22860000Y-26035000D03*
X25781000Y-31369000D03*
X27305000Y-32639000D03*
X37973000Y-36195000D03*
X37846000Y-35306000D03*
X27559000Y-31623000D03*
X26670000Y-30734000D03*
X23876000Y-25781000D03*
X40386000Y-42545000D03*
X26670000Y-37084000D03*
X33020000Y-29337000D03*
X16510000Y-29591000D03*
X17907000Y-21844000D03*
%TD*%
D27*
%TO.N,*%
X66548000Y-24003000D02*
X67437000Y-24892000D01*
X63119000Y-24003000D02*
X66548000Y-24003000D01*
X56896000Y-24003000D02*
X59055000Y-24003000D01*
X36957000Y-19177000D02*
X38481000Y-17653000D01*
X36957000Y-24257000D02*
X36957000Y-19177000D01*
X37792000Y-25092000D02*
X36957000Y-24257000D01*
X38681000Y-25092000D02*
X37792000Y-25092000D01*
X38481000Y-17653000D02*
X45720000Y-17653000D01*
X38354000Y-24511000D02*
X37973000Y-24130000D01*
X37973000Y-24130000D02*
X37973000Y-22225000D01*
X55372000Y-28067000D02*
X56388000Y-29083000D01*
X57658000Y-29083000D02*
X57912000Y-28829000D01*
X49530000Y-28448000D02*
X49911000Y-28067000D01*
X56388000Y-29083000D02*
X57658000Y-29083000D01*
X49530000Y-36195000D02*
X49530000Y-28448000D01*
X49276000Y-36449000D02*
X49530000Y-36195000D01*
X49911000Y-28067000D02*
X55372000Y-28067000D01*
X49149000Y-41275000D02*
X49403000Y-41529000D01*
X49149000Y-38989000D02*
X49149000Y-41275000D01*
X48006000Y-42926000D02*
X48006000Y-43307000D01*
X49403000Y-41529000D02*
X48006000Y-42926000D01*
X58547000Y-35941000D02*
X61849000Y-35941000D01*
X57912000Y-35306000D02*
X58547000Y-35941000D01*
X57912000Y-28829000D02*
X57912000Y-35306000D01*
X75184000Y-24257000D02*
X75184000Y-35814000D01*
X75311000Y-24130000D02*
X75184000Y-24257000D01*
X79756000Y-24130000D02*
X75311000Y-24130000D01*
X77470000Y-20066000D02*
X84201000Y-20066000D01*
X56261000Y-15113000D02*
X78613000Y-15113000D01*
X52959000Y-18415000D02*
X56261000Y-15113000D01*
X38608000Y-19050000D02*
X39243000Y-18415000D01*
X38608000Y-23749000D02*
X38608000Y-19050000D01*
X39243000Y-18415000D02*
X52959000Y-18415000D01*
X53340000Y-19050000D02*
X56642000Y-15748000D01*
X40894000Y-19050000D02*
X53340000Y-19050000D01*
X39481000Y-20463000D02*
X40894000Y-19050000D01*
X56642000Y-15748000D02*
X80137000Y-15748000D01*
X39481000Y-23384000D02*
X39481000Y-20463000D01*
X85471000Y-25019000D02*
X85471000Y-25908000D01*
X85852000Y-24638000D02*
X85471000Y-25019000D01*
X89154000Y-24638000D02*
X85852000Y-24638000D01*
X89154000Y-20955000D02*
X89154000Y-24638000D01*
X84709000Y-16510000D02*
X89154000Y-20955000D01*
X75946000Y-16510000D02*
X84709000Y-16510000D01*
X75819000Y-16637000D02*
X75946000Y-16510000D01*
X75819000Y-17399000D02*
X75819000Y-16637000D01*
X75057000Y-18161000D02*
X75819000Y-17399000D01*
X72517000Y-18034000D02*
X72771000Y-18034000D01*
X41275000Y-19685000D02*
X70866000Y-19685000D01*
X40281000Y-20679000D02*
X41275000Y-19685000D01*
X70866000Y-19685000D02*
X72517000Y-18034000D01*
X40281000Y-23644000D02*
X40281000Y-20679000D01*
X41529000Y-20193000D02*
X72136000Y-20193000D01*
X40681000Y-21041000D02*
X41529000Y-20193000D01*
X40681000Y-24044000D02*
X40681000Y-21041000D01*
X83756500Y-20637500D02*
X83820000Y-20574000D01*
X83693000Y-20701000D02*
X83756500Y-20637500D01*
X42037000Y-20701000D02*
X83693000Y-20701000D01*
X41148000Y-21590000D02*
X42037000Y-20701000D01*
X41148000Y-24377000D02*
X41148000Y-21590000D01*
X41081000Y-24444000D02*
X41148000Y-24377000D01*
X42291000Y-21209000D02*
X81661000Y-21209000D01*
X41481000Y-22019000D02*
X42291000Y-21209000D01*
X41481000Y-24971000D02*
X41481000Y-22019000D01*
X41656000Y-29210000D02*
X40640000Y-30226000D01*
X41656000Y-26670000D02*
X41656000Y-29210000D01*
X40259000Y-31750000D02*
X40767000Y-32258000D01*
X39370000Y-31750000D02*
X40259000Y-31750000D01*
X39370000Y-36195000D02*
X38481000Y-37084000D01*
X39370000Y-31750000D02*
X39370000Y-36195000D01*
X35433000Y-30988000D02*
X36195000Y-31750000D01*
X36195000Y-31750000D02*
X39370000Y-31750000D01*
X35433000Y-27432000D02*
X35433000Y-30988000D01*
X35881000Y-22165000D02*
X35881000Y-24324000D01*
X35179000Y-21463000D02*
X35881000Y-22165000D01*
D28*
X26924000Y-22733000D02*
X27305000Y-23114000D01*
X26924000Y-21844000D02*
X26924000Y-22733000D01*
D27*
X39843000Y-30318000D02*
X39081000Y-30318000D01*
X41043000Y-31518000D02*
X39843000Y-30318000D01*
X33528000Y-24765000D02*
X37881000Y-29118000D01*
X51685000Y-55368000D02*
X47375000Y-55368000D01*
X51689000Y-55372000D02*
X51685000Y-55368000D01*
X51689000Y-37338000D02*
X54991000Y-37338000D01*
X51689000Y-28956000D02*
X51689000Y-37338000D01*
X50492000Y-49711000D02*
X50492000Y-38681000D01*
X46482000Y-53721000D02*
X50492000Y-49711000D01*
X50492000Y-37392000D02*
X50492000Y-37411000D01*
X50492000Y-29518000D02*
X50492000Y-37392000D01*
X43815000Y-58547000D02*
X43942000Y-58547000D01*
X33655000Y-62611000D02*
X33655000Y-59563000D01*
X33655000Y-59563000D02*
X43815000Y-59563000D01*
X18796000Y-64516000D02*
X31750000Y-64516000D01*
X31750000Y-64516000D02*
X33655000Y-62611000D01*
X16764000Y-62484000D02*
X18796000Y-64516000D01*
X16764000Y-54483000D02*
X16764000Y-62484000D01*
X19939000Y-51308000D02*
X16764000Y-54483000D01*
X21717000Y-58547000D02*
X43815000Y-58547000D01*
X19685000Y-56515000D02*
X21717000Y-58547000D01*
X19685000Y-54610000D02*
X19685000Y-56515000D01*
X42672000Y-56642000D02*
X24638000Y-56642000D01*
X43370500Y-57340500D02*
X42672000Y-56642000D01*
X44450000Y-60555000D02*
X44450000Y-56896000D01*
X44589000Y-60694000D02*
X44450000Y-60555000D01*
X48375000Y-60694000D02*
X44589000Y-60694000D01*
X50927000Y-60198000D02*
X50431000Y-60694000D01*
X50927000Y-57404000D02*
X50927000Y-60198000D01*
X50431000Y-60694000D02*
X48375000Y-60694000D01*
X45085000Y-53213000D02*
X46101000Y-53213000D01*
X44450000Y-53848000D02*
X45085000Y-53213000D01*
X44450000Y-56896000D02*
X44450000Y-53848000D01*
D28*
X52832000Y-48641000D02*
X46101000Y-55372000D01*
X52832000Y-37973000D02*
X72263000Y-37973000D01*
X35052000Y-37973000D02*
X52832000Y-37973000D01*
X52832000Y-37973000D02*
X52832000Y-48641000D01*
D27*
X47752000Y-26924000D02*
X47244000Y-26416000D01*
X47752000Y-34798000D02*
X47752000Y-26924000D01*
X36195000Y-41402000D02*
X47752000Y-41402000D01*
X47625000Y-24511000D02*
X61849000Y-24511000D01*
X44958000Y-33528000D02*
X44958000Y-27178000D01*
X44958000Y-27178000D02*
X47625000Y-24511000D01*
X44450000Y-34036000D02*
X44958000Y-33528000D01*
X44323000Y-34036000D02*
X44450000Y-34036000D01*
X43561000Y-33274000D02*
X44323000Y-34036000D01*
X47498000Y-23495000D02*
X63881000Y-23495000D01*
X43942000Y-27051000D02*
X47498000Y-23495000D01*
X43942000Y-32893000D02*
X43942000Y-27051000D01*
D28*
X85090000Y-22098000D02*
X86360000Y-23368000D01*
X73279000Y-22098000D02*
X85090000Y-22098000D01*
X73279000Y-24003000D02*
X73279000Y-22098000D01*
X68326000Y-24003000D02*
X67437000Y-24892000D01*
X73279000Y-24003000D02*
X68326000Y-24003000D01*
X73279000Y-36957000D02*
X73279000Y-24003000D01*
X72263000Y-37973000D02*
X73279000Y-36957000D01*
X34925000Y-37846000D02*
X35052000Y-37973000D01*
D27*
X29972000Y-36195000D02*
X26670000Y-36195000D01*
D28*
X26670000Y-36195000D02*
X26670000Y-37084000D01*
X26670000Y-31750000D02*
X26670000Y-36195000D01*
D27*
X31242000Y-28829000D02*
X31242000Y-29337000D01*
D28*
X31242000Y-29337000D02*
X29083000Y-29337000D01*
X33020000Y-29337000D02*
X31242000Y-29337000D01*
D27*
X33528000Y-24765000D02*
X33401000Y-24765000D01*
X43690000Y-34165000D02*
X41043000Y-31518000D01*
X43944000Y-34165000D02*
X43690000Y-34165000D01*
X21463000Y-25781000D02*
X21463000Y-22479000D01*
X20574000Y-25781000D02*
X20447000Y-25908000D01*
X20574000Y-22606000D02*
X20574000Y-25781000D01*
X34036000Y-26162000D02*
X27940000Y-20066000D01*
X34036000Y-32766000D02*
X34036000Y-26162000D01*
X36068000Y-32385000D02*
X35179000Y-33274000D01*
X35179000Y-33274000D02*
X34544000Y-33274000D01*
X27940000Y-20066000D02*
X20574000Y-20066000D01*
X36576000Y-32385000D02*
X36068000Y-32385000D01*
X34544000Y-33274000D02*
X34036000Y-32766000D01*
X27432000Y-21082000D02*
X21717000Y-21082000D01*
X33528000Y-33782000D02*
X33528000Y-27178000D01*
X33528000Y-27178000D02*
X27432000Y-21082000D01*
X36576000Y-32893000D02*
X35687000Y-33782000D01*
X35687000Y-33782000D02*
X33528000Y-33782000D01*
X27051000Y-30099000D02*
X27178000Y-30099000D01*
X25654000Y-28702000D02*
X27051000Y-30099000D01*
X22860000Y-27686000D02*
X24765000Y-29591000D01*
X22860000Y-26035000D02*
X22860000Y-27686000D01*
X27559000Y-29464000D02*
X23876000Y-25781000D01*
X27940000Y-29464000D02*
X27559000Y-29464000D01*
X31877000Y-34671000D02*
X28956000Y-31750000D01*
X36703000Y-34671000D02*
X31877000Y-34671000D01*
X37211000Y-35179000D02*
X31623000Y-35179000D01*
X31623000Y-35179000D02*
X28448000Y-32004000D01*
X37592000Y-34798000D02*
X37211000Y-35179000D01*
X23495000Y-27559000D02*
X23495000Y-22606000D01*
X26670000Y-30734000D02*
X23495000Y-27559000D01*
X22225000Y-27813000D02*
X22225000Y-22733000D01*
X25781000Y-31369000D02*
X22225000Y-27813000D01*
X30861000Y-36195000D02*
X27305000Y-32639000D01*
X37973000Y-36195000D02*
X30861000Y-36195000D01*
X31496000Y-35560000D02*
X27559000Y-31623000D01*
X37592000Y-35560000D02*
X31496000Y-35560000D01*
X37846000Y-35306000D02*
X37592000Y-35560000D01*
X26670000Y-41529000D02*
X26670000Y-37084000D01*
X27686000Y-42545000D02*
X26670000Y-41529000D01*
X40386000Y-42545000D02*
X27686000Y-42545000D01*
D28*
X29083000Y-29337000D02*
X26670000Y-31750000D01*
X26924000Y-21844000D02*
X17907000Y-21844000D01*
X33020000Y-27940000D02*
X26924000Y-21844000D01*
X33020000Y-29337000D02*
X33020000Y-27940000D01*
X15621000Y-29210000D02*
X16002000Y-29591000D01*
X15621000Y-21971000D02*
X15621000Y-29210000D01*
X15748000Y-21844000D02*
X15621000Y-21971000D01*
X16002000Y-29591000D02*
X16510000Y-29591000D01*
X17907000Y-21844000D02*
X15748000Y-21844000D01*
%TD*%
M02*
