%TF.GenerationSoftware,KiCad,Pcbnew,(6.99.0-818-g79c7d55a40)*%
%TF.CreationDate,2022-02-14T22:27:46+08:00*%
%TF.ProjectId,Project,50726f6a-6563-4742-9e6b-696361645f70,rev?*%
%TF.SameCoordinates,Original*%
%TF.FileFunction,Legend,Top*%
%TF.FilePolarity,Positive*%
%FSLAX46Y46*%
G04 Gerber Fmt 4.6, Leading zero omitted, Abs format (unit mm)*
G04 Created by KiCad (PCBNEW (6.99.0-818-g79c7d55a40)) date 2022-02-14 22:27:46*
%MOMM*%
%LPD*%
G01*
G04 APERTURE LIST*
%ADD10C,0.100000*%
%ADD11C,0.150000*%
%ADD12C,0.300000*%
%ADD13C,0.400000*%
%ADD14C,0.120000*%
%ADD15C,0.200000*%
G04 APERTURE END LIST*
D10*
D11*
X177002200Y-166007200D02*
X177002200Y-198007200D01*
X285002200Y-198007200D01*
X285002200Y-166007200D01*
X177002200Y-166007200D01*
D10*
D11*
X10000000Y-10000000D02*
X10000000Y-200007200D01*
X287002200Y-200007200D01*
X287002200Y-10000000D01*
X10000000Y-10000000D01*
D10*
D11*
X12000000Y-12000000D02*
X12000000Y-198007200D01*
X285002200Y-198007200D01*
X285002200Y-12000000D01*
X12000000Y-12000000D01*
D10*
D11*
X60000000Y-12000000D02*
X60000000Y-10000000D01*
D10*
D11*
X110000000Y-12000000D02*
X110000000Y-10000000D01*
D10*
D11*
X160000000Y-12000000D02*
X160000000Y-10000000D01*
D10*
D11*
X210000000Y-12000000D02*
X210000000Y-10000000D01*
D10*
D11*
X260000000Y-12000000D02*
X260000000Y-10000000D01*
D10*
D11*
X35990476Y-11588095D02*
X35247619Y-11588095D01*
X35619047Y-11588095D02*
X35619047Y-10288095D01*
X35619047Y-10288095D02*
X35495238Y-10473809D01*
X35495238Y-10473809D02*
X35371428Y-10597619D01*
X35371428Y-10597619D02*
X35247619Y-10659523D01*
D10*
D11*
X85247619Y-10411904D02*
X85309523Y-10350000D01*
X85309523Y-10350000D02*
X85433333Y-10288095D01*
X85433333Y-10288095D02*
X85742857Y-10288095D01*
X85742857Y-10288095D02*
X85866666Y-10350000D01*
X85866666Y-10350000D02*
X85928571Y-10411904D01*
X85928571Y-10411904D02*
X85990476Y-10535714D01*
X85990476Y-10535714D02*
X85990476Y-10659523D01*
X85990476Y-10659523D02*
X85928571Y-10845238D01*
X85928571Y-10845238D02*
X85185714Y-11588095D01*
X85185714Y-11588095D02*
X85990476Y-11588095D01*
D10*
D11*
X135185714Y-10288095D02*
X135990476Y-10288095D01*
X135990476Y-10288095D02*
X135557142Y-10783333D01*
X135557142Y-10783333D02*
X135742857Y-10783333D01*
X135742857Y-10783333D02*
X135866666Y-10845238D01*
X135866666Y-10845238D02*
X135928571Y-10907142D01*
X135928571Y-10907142D02*
X135990476Y-11030952D01*
X135990476Y-11030952D02*
X135990476Y-11340476D01*
X135990476Y-11340476D02*
X135928571Y-11464285D01*
X135928571Y-11464285D02*
X135866666Y-11526190D01*
X135866666Y-11526190D02*
X135742857Y-11588095D01*
X135742857Y-11588095D02*
X135371428Y-11588095D01*
X135371428Y-11588095D02*
X135247619Y-11526190D01*
X135247619Y-11526190D02*
X135185714Y-11464285D01*
D10*
D11*
X185866666Y-10721428D02*
X185866666Y-11588095D01*
X185557142Y-10226190D02*
X185247619Y-11154761D01*
X185247619Y-11154761D02*
X186052380Y-11154761D01*
D10*
D11*
X235928571Y-10288095D02*
X235309523Y-10288095D01*
X235309523Y-10288095D02*
X235247619Y-10907142D01*
X235247619Y-10907142D02*
X235309523Y-10845238D01*
X235309523Y-10845238D02*
X235433333Y-10783333D01*
X235433333Y-10783333D02*
X235742857Y-10783333D01*
X235742857Y-10783333D02*
X235866666Y-10845238D01*
X235866666Y-10845238D02*
X235928571Y-10907142D01*
X235928571Y-10907142D02*
X235990476Y-11030952D01*
X235990476Y-11030952D02*
X235990476Y-11340476D01*
X235990476Y-11340476D02*
X235928571Y-11464285D01*
X235928571Y-11464285D02*
X235866666Y-11526190D01*
X235866666Y-11526190D02*
X235742857Y-11588095D01*
X235742857Y-11588095D02*
X235433333Y-11588095D01*
X235433333Y-11588095D02*
X235309523Y-11526190D01*
X235309523Y-11526190D02*
X235247619Y-11464285D01*
D10*
D11*
X285866666Y-10288095D02*
X285619047Y-10288095D01*
X285619047Y-10288095D02*
X285495238Y-10350000D01*
X285495238Y-10350000D02*
X285433333Y-10411904D01*
X285433333Y-10411904D02*
X285309523Y-10597619D01*
X285309523Y-10597619D02*
X285247619Y-10845238D01*
X285247619Y-10845238D02*
X285247619Y-11340476D01*
X285247619Y-11340476D02*
X285309523Y-11464285D01*
X285309523Y-11464285D02*
X285371428Y-11526190D01*
X285371428Y-11526190D02*
X285495238Y-11588095D01*
X285495238Y-11588095D02*
X285742857Y-11588095D01*
X285742857Y-11588095D02*
X285866666Y-11526190D01*
X285866666Y-11526190D02*
X285928571Y-11464285D01*
X285928571Y-11464285D02*
X285990476Y-11340476D01*
X285990476Y-11340476D02*
X285990476Y-11030952D01*
X285990476Y-11030952D02*
X285928571Y-10907142D01*
X285928571Y-10907142D02*
X285866666Y-10845238D01*
X285866666Y-10845238D02*
X285742857Y-10783333D01*
X285742857Y-10783333D02*
X285495238Y-10783333D01*
X285495238Y-10783333D02*
X285371428Y-10845238D01*
X285371428Y-10845238D02*
X285309523Y-10907142D01*
X285309523Y-10907142D02*
X285247619Y-11030952D01*
D10*
D11*
X60000000Y-198007200D02*
X60000000Y-200007200D01*
D10*
D11*
X110000000Y-198007200D02*
X110000000Y-200007200D01*
D10*
D11*
X160000000Y-198007200D02*
X160000000Y-200007200D01*
D10*
D11*
X210000000Y-198007200D02*
X210000000Y-200007200D01*
D10*
D11*
X260000000Y-198007200D02*
X260000000Y-200007200D01*
D10*
D11*
X35990476Y-199595295D02*
X35247619Y-199595295D01*
X35619047Y-199595295D02*
X35619047Y-198295295D01*
X35619047Y-198295295D02*
X35495238Y-198481009D01*
X35495238Y-198481009D02*
X35371428Y-198604819D01*
X35371428Y-198604819D02*
X35247619Y-198666723D01*
D10*
D11*
X85247619Y-198419104D02*
X85309523Y-198357200D01*
X85309523Y-198357200D02*
X85433333Y-198295295D01*
X85433333Y-198295295D02*
X85742857Y-198295295D01*
X85742857Y-198295295D02*
X85866666Y-198357200D01*
X85866666Y-198357200D02*
X85928571Y-198419104D01*
X85928571Y-198419104D02*
X85990476Y-198542914D01*
X85990476Y-198542914D02*
X85990476Y-198666723D01*
X85990476Y-198666723D02*
X85928571Y-198852438D01*
X85928571Y-198852438D02*
X85185714Y-199595295D01*
X85185714Y-199595295D02*
X85990476Y-199595295D01*
D10*
D11*
X135185714Y-198295295D02*
X135990476Y-198295295D01*
X135990476Y-198295295D02*
X135557142Y-198790533D01*
X135557142Y-198790533D02*
X135742857Y-198790533D01*
X135742857Y-198790533D02*
X135866666Y-198852438D01*
X135866666Y-198852438D02*
X135928571Y-198914342D01*
X135928571Y-198914342D02*
X135990476Y-199038152D01*
X135990476Y-199038152D02*
X135990476Y-199347676D01*
X135990476Y-199347676D02*
X135928571Y-199471485D01*
X135928571Y-199471485D02*
X135866666Y-199533390D01*
X135866666Y-199533390D02*
X135742857Y-199595295D01*
X135742857Y-199595295D02*
X135371428Y-199595295D01*
X135371428Y-199595295D02*
X135247619Y-199533390D01*
X135247619Y-199533390D02*
X135185714Y-199471485D01*
D10*
D11*
X185866666Y-198728628D02*
X185866666Y-199595295D01*
X185557142Y-198233390D02*
X185247619Y-199161961D01*
X185247619Y-199161961D02*
X186052380Y-199161961D01*
D10*
D11*
X235928571Y-198295295D02*
X235309523Y-198295295D01*
X235309523Y-198295295D02*
X235247619Y-198914342D01*
X235247619Y-198914342D02*
X235309523Y-198852438D01*
X235309523Y-198852438D02*
X235433333Y-198790533D01*
X235433333Y-198790533D02*
X235742857Y-198790533D01*
X235742857Y-198790533D02*
X235866666Y-198852438D01*
X235866666Y-198852438D02*
X235928571Y-198914342D01*
X235928571Y-198914342D02*
X235990476Y-199038152D01*
X235990476Y-199038152D02*
X235990476Y-199347676D01*
X235990476Y-199347676D02*
X235928571Y-199471485D01*
X235928571Y-199471485D02*
X235866666Y-199533390D01*
X235866666Y-199533390D02*
X235742857Y-199595295D01*
X235742857Y-199595295D02*
X235433333Y-199595295D01*
X235433333Y-199595295D02*
X235309523Y-199533390D01*
X235309523Y-199533390D02*
X235247619Y-199471485D01*
D10*
D11*
X285866666Y-198295295D02*
X285619047Y-198295295D01*
X285619047Y-198295295D02*
X285495238Y-198357200D01*
X285495238Y-198357200D02*
X285433333Y-198419104D01*
X285433333Y-198419104D02*
X285309523Y-198604819D01*
X285309523Y-198604819D02*
X285247619Y-198852438D01*
X285247619Y-198852438D02*
X285247619Y-199347676D01*
X285247619Y-199347676D02*
X285309523Y-199471485D01*
X285309523Y-199471485D02*
X285371428Y-199533390D01*
X285371428Y-199533390D02*
X285495238Y-199595295D01*
X285495238Y-199595295D02*
X285742857Y-199595295D01*
X285742857Y-199595295D02*
X285866666Y-199533390D01*
X285866666Y-199533390D02*
X285928571Y-199471485D01*
X285928571Y-199471485D02*
X285990476Y-199347676D01*
X285990476Y-199347676D02*
X285990476Y-199038152D01*
X285990476Y-199038152D02*
X285928571Y-198914342D01*
X285928571Y-198914342D02*
X285866666Y-198852438D01*
X285866666Y-198852438D02*
X285742857Y-198790533D01*
X285742857Y-198790533D02*
X285495238Y-198790533D01*
X285495238Y-198790533D02*
X285371428Y-198852438D01*
X285371428Y-198852438D02*
X285309523Y-198914342D01*
X285309523Y-198914342D02*
X285247619Y-199038152D01*
D10*
D11*
X10000000Y-60000000D02*
X12000000Y-60000000D01*
D10*
D11*
X10000000Y-110000000D02*
X12000000Y-110000000D01*
D10*
D11*
X10000000Y-160000000D02*
X12000000Y-160000000D01*
D10*
D11*
X10690476Y-35216666D02*
X11309523Y-35216666D01*
X10566666Y-35588095D02*
X10999999Y-34288095D01*
X10999999Y-34288095D02*
X11433333Y-35588095D01*
D10*
D11*
X11092857Y-84907142D02*
X11278571Y-84969047D01*
X11278571Y-84969047D02*
X11340476Y-85030952D01*
X11340476Y-85030952D02*
X11402380Y-85154761D01*
X11402380Y-85154761D02*
X11402380Y-85340476D01*
X11402380Y-85340476D02*
X11340476Y-85464285D01*
X11340476Y-85464285D02*
X11278571Y-85526190D01*
X11278571Y-85526190D02*
X11154761Y-85588095D01*
X11154761Y-85588095D02*
X10659523Y-85588095D01*
X10659523Y-85588095D02*
X10659523Y-84288095D01*
X10659523Y-84288095D02*
X11092857Y-84288095D01*
X11092857Y-84288095D02*
X11216666Y-84350000D01*
X11216666Y-84350000D02*
X11278571Y-84411904D01*
X11278571Y-84411904D02*
X11340476Y-84535714D01*
X11340476Y-84535714D02*
X11340476Y-84659523D01*
X11340476Y-84659523D02*
X11278571Y-84783333D01*
X11278571Y-84783333D02*
X11216666Y-84845238D01*
X11216666Y-84845238D02*
X11092857Y-84907142D01*
X11092857Y-84907142D02*
X10659523Y-84907142D01*
D10*
D11*
X11402380Y-135464285D02*
X11340476Y-135526190D01*
X11340476Y-135526190D02*
X11154761Y-135588095D01*
X11154761Y-135588095D02*
X11030952Y-135588095D01*
X11030952Y-135588095D02*
X10845238Y-135526190D01*
X10845238Y-135526190D02*
X10721428Y-135402380D01*
X10721428Y-135402380D02*
X10659523Y-135278571D01*
X10659523Y-135278571D02*
X10597619Y-135030952D01*
X10597619Y-135030952D02*
X10597619Y-134845238D01*
X10597619Y-134845238D02*
X10659523Y-134597619D01*
X10659523Y-134597619D02*
X10721428Y-134473809D01*
X10721428Y-134473809D02*
X10845238Y-134350000D01*
X10845238Y-134350000D02*
X11030952Y-134288095D01*
X11030952Y-134288095D02*
X11154761Y-134288095D01*
X11154761Y-134288095D02*
X11340476Y-134350000D01*
X11340476Y-134350000D02*
X11402380Y-134411904D01*
D10*
D11*
X10659523Y-185588095D02*
X10659523Y-184288095D01*
X10659523Y-184288095D02*
X10969047Y-184288095D01*
X10969047Y-184288095D02*
X11154761Y-184350000D01*
X11154761Y-184350000D02*
X11278571Y-184473809D01*
X11278571Y-184473809D02*
X11340476Y-184597619D01*
X11340476Y-184597619D02*
X11402380Y-184845238D01*
X11402380Y-184845238D02*
X11402380Y-185030952D01*
X11402380Y-185030952D02*
X11340476Y-185278571D01*
X11340476Y-185278571D02*
X11278571Y-185402380D01*
X11278571Y-185402380D02*
X11154761Y-185526190D01*
X11154761Y-185526190D02*
X10969047Y-185588095D01*
X10969047Y-185588095D02*
X10659523Y-185588095D01*
D10*
D11*
X287002200Y-60000000D02*
X285002200Y-60000000D01*
D10*
D11*
X287002200Y-110000000D02*
X285002200Y-110000000D01*
D10*
D11*
X287002200Y-160000000D02*
X285002200Y-160000000D01*
D10*
D11*
X285692676Y-35216666D02*
X286311723Y-35216666D01*
X285568866Y-35588095D02*
X286002199Y-34288095D01*
X286002199Y-34288095D02*
X286435533Y-35588095D01*
D10*
D11*
X286095057Y-84907142D02*
X286280771Y-84969047D01*
X286280771Y-84969047D02*
X286342676Y-85030952D01*
X286342676Y-85030952D02*
X286404580Y-85154761D01*
X286404580Y-85154761D02*
X286404580Y-85340476D01*
X286404580Y-85340476D02*
X286342676Y-85464285D01*
X286342676Y-85464285D02*
X286280771Y-85526190D01*
X286280771Y-85526190D02*
X286156961Y-85588095D01*
X286156961Y-85588095D02*
X285661723Y-85588095D01*
X285661723Y-85588095D02*
X285661723Y-84288095D01*
X285661723Y-84288095D02*
X286095057Y-84288095D01*
X286095057Y-84288095D02*
X286218866Y-84350000D01*
X286218866Y-84350000D02*
X286280771Y-84411904D01*
X286280771Y-84411904D02*
X286342676Y-84535714D01*
X286342676Y-84535714D02*
X286342676Y-84659523D01*
X286342676Y-84659523D02*
X286280771Y-84783333D01*
X286280771Y-84783333D02*
X286218866Y-84845238D01*
X286218866Y-84845238D02*
X286095057Y-84907142D01*
X286095057Y-84907142D02*
X285661723Y-84907142D01*
D10*
D11*
X286404580Y-135464285D02*
X286342676Y-135526190D01*
X286342676Y-135526190D02*
X286156961Y-135588095D01*
X286156961Y-135588095D02*
X286033152Y-135588095D01*
X286033152Y-135588095D02*
X285847438Y-135526190D01*
X285847438Y-135526190D02*
X285723628Y-135402380D01*
X285723628Y-135402380D02*
X285661723Y-135278571D01*
X285661723Y-135278571D02*
X285599819Y-135030952D01*
X285599819Y-135030952D02*
X285599819Y-134845238D01*
X285599819Y-134845238D02*
X285661723Y-134597619D01*
X285661723Y-134597619D02*
X285723628Y-134473809D01*
X285723628Y-134473809D02*
X285847438Y-134350000D01*
X285847438Y-134350000D02*
X286033152Y-134288095D01*
X286033152Y-134288095D02*
X286156961Y-134288095D01*
X286156961Y-134288095D02*
X286342676Y-134350000D01*
X286342676Y-134350000D02*
X286404580Y-134411904D01*
D10*
D11*
X285661723Y-185588095D02*
X285661723Y-184288095D01*
X285661723Y-184288095D02*
X285971247Y-184288095D01*
X285971247Y-184288095D02*
X286156961Y-184350000D01*
X286156961Y-184350000D02*
X286280771Y-184473809D01*
X286280771Y-184473809D02*
X286342676Y-184597619D01*
X286342676Y-184597619D02*
X286404580Y-184845238D01*
X286404580Y-184845238D02*
X286404580Y-185030952D01*
X286404580Y-185030952D02*
X286342676Y-185278571D01*
X286342676Y-185278571D02*
X286280771Y-185402380D01*
X286280771Y-185402380D02*
X286156961Y-185526190D01*
X286156961Y-185526190D02*
X285971247Y-185588095D01*
X285971247Y-185588095D02*
X285661723Y-185588095D01*
D10*
D11*
X200359342Y-193785771D02*
X200359342Y-192285771D01*
X200359342Y-192285771D02*
X200716485Y-192285771D01*
X200716485Y-192285771D02*
X200930771Y-192357200D01*
X200930771Y-192357200D02*
X201073628Y-192500057D01*
X201073628Y-192500057D02*
X201145057Y-192642914D01*
X201145057Y-192642914D02*
X201216485Y-192928628D01*
X201216485Y-192928628D02*
X201216485Y-193142914D01*
X201216485Y-193142914D02*
X201145057Y-193428628D01*
X201145057Y-193428628D02*
X201073628Y-193571485D01*
X201073628Y-193571485D02*
X200930771Y-193714342D01*
X200930771Y-193714342D02*
X200716485Y-193785771D01*
X200716485Y-193785771D02*
X200359342Y-193785771D01*
X202502200Y-193785771D02*
X202502200Y-193000057D01*
X202502200Y-193000057D02*
X202430771Y-192857200D01*
X202430771Y-192857200D02*
X202287914Y-192785771D01*
X202287914Y-192785771D02*
X202002200Y-192785771D01*
X202002200Y-192785771D02*
X201859342Y-192857200D01*
X202502200Y-193714342D02*
X202359342Y-193785771D01*
X202359342Y-193785771D02*
X202002200Y-193785771D01*
X202002200Y-193785771D02*
X201859342Y-193714342D01*
X201859342Y-193714342D02*
X201787914Y-193571485D01*
X201787914Y-193571485D02*
X201787914Y-193428628D01*
X201787914Y-193428628D02*
X201859342Y-193285771D01*
X201859342Y-193285771D02*
X202002200Y-193214342D01*
X202002200Y-193214342D02*
X202359342Y-193214342D01*
X202359342Y-193214342D02*
X202502200Y-193142914D01*
X203002200Y-192785771D02*
X203573628Y-192785771D01*
X203216485Y-192285771D02*
X203216485Y-193571485D01*
X203216485Y-193571485D02*
X203287914Y-193714342D01*
X203287914Y-193714342D02*
X203430771Y-193785771D01*
X203430771Y-193785771D02*
X203573628Y-193785771D01*
X204645057Y-193714342D02*
X204502200Y-193785771D01*
X204502200Y-193785771D02*
X204216486Y-193785771D01*
X204216486Y-193785771D02*
X204073628Y-193714342D01*
X204073628Y-193714342D02*
X204002200Y-193571485D01*
X204002200Y-193571485D02*
X204002200Y-193000057D01*
X204002200Y-193000057D02*
X204073628Y-192857200D01*
X204073628Y-192857200D02*
X204216486Y-192785771D01*
X204216486Y-192785771D02*
X204502200Y-192785771D01*
X204502200Y-192785771D02*
X204645057Y-192857200D01*
X204645057Y-192857200D02*
X204716486Y-193000057D01*
X204716486Y-193000057D02*
X204716486Y-193142914D01*
X204716486Y-193142914D02*
X204002200Y-193285771D01*
X205359342Y-193642914D02*
X205430771Y-193714342D01*
X205430771Y-193714342D02*
X205359342Y-193785771D01*
X205359342Y-193785771D02*
X205287914Y-193714342D01*
X205287914Y-193714342D02*
X205359342Y-193642914D01*
X205359342Y-193642914D02*
X205359342Y-193785771D01*
X205359342Y-192857200D02*
X205430771Y-192928628D01*
X205430771Y-192928628D02*
X205359342Y-193000057D01*
X205359342Y-193000057D02*
X205287914Y-192928628D01*
X205287914Y-192928628D02*
X205359342Y-192857200D01*
X205359342Y-192857200D02*
X205359342Y-193000057D01*
D10*
D11*
X177002200Y-194507200D02*
X285002200Y-194507200D01*
D10*
D11*
X178359342Y-196585771D02*
X178359342Y-195085771D01*
X179216485Y-196585771D02*
X178573628Y-195728628D01*
X179216485Y-195085771D02*
X178359342Y-195942914D01*
X179859342Y-196585771D02*
X179859342Y-195585771D01*
X179859342Y-195085771D02*
X179787914Y-195157200D01*
X179787914Y-195157200D02*
X179859342Y-195228628D01*
X179859342Y-195228628D02*
X179930771Y-195157200D01*
X179930771Y-195157200D02*
X179859342Y-195085771D01*
X179859342Y-195085771D02*
X179859342Y-195228628D01*
X181430771Y-196442914D02*
X181359343Y-196514342D01*
X181359343Y-196514342D02*
X181145057Y-196585771D01*
X181145057Y-196585771D02*
X181002200Y-196585771D01*
X181002200Y-196585771D02*
X180787914Y-196514342D01*
X180787914Y-196514342D02*
X180645057Y-196371485D01*
X180645057Y-196371485D02*
X180573628Y-196228628D01*
X180573628Y-196228628D02*
X180502200Y-195942914D01*
X180502200Y-195942914D02*
X180502200Y-195728628D01*
X180502200Y-195728628D02*
X180573628Y-195442914D01*
X180573628Y-195442914D02*
X180645057Y-195300057D01*
X180645057Y-195300057D02*
X180787914Y-195157200D01*
X180787914Y-195157200D02*
X181002200Y-195085771D01*
X181002200Y-195085771D02*
X181145057Y-195085771D01*
X181145057Y-195085771D02*
X181359343Y-195157200D01*
X181359343Y-195157200D02*
X181430771Y-195228628D01*
X182716486Y-196585771D02*
X182716486Y-195800057D01*
X182716486Y-195800057D02*
X182645057Y-195657200D01*
X182645057Y-195657200D02*
X182502200Y-195585771D01*
X182502200Y-195585771D02*
X182216486Y-195585771D01*
X182216486Y-195585771D02*
X182073628Y-195657200D01*
X182716486Y-196514342D02*
X182573628Y-196585771D01*
X182573628Y-196585771D02*
X182216486Y-196585771D01*
X182216486Y-196585771D02*
X182073628Y-196514342D01*
X182073628Y-196514342D02*
X182002200Y-196371485D01*
X182002200Y-196371485D02*
X182002200Y-196228628D01*
X182002200Y-196228628D02*
X182073628Y-196085771D01*
X182073628Y-196085771D02*
X182216486Y-196014342D01*
X182216486Y-196014342D02*
X182573628Y-196014342D01*
X182573628Y-196014342D02*
X182716486Y-195942914D01*
X184073629Y-196585771D02*
X184073629Y-195085771D01*
X184073629Y-196514342D02*
X183930771Y-196585771D01*
X183930771Y-196585771D02*
X183645057Y-196585771D01*
X183645057Y-196585771D02*
X183502200Y-196514342D01*
X183502200Y-196514342D02*
X183430771Y-196442914D01*
X183430771Y-196442914D02*
X183359343Y-196300057D01*
X183359343Y-196300057D02*
X183359343Y-195871485D01*
X183359343Y-195871485D02*
X183430771Y-195728628D01*
X183430771Y-195728628D02*
X183502200Y-195657200D01*
X183502200Y-195657200D02*
X183645057Y-195585771D01*
X183645057Y-195585771D02*
X183930771Y-195585771D01*
X183930771Y-195585771D02*
X184073629Y-195657200D01*
X185687914Y-195800057D02*
X186187914Y-195800057D01*
X186402200Y-196585771D02*
X185687914Y-196585771D01*
X185687914Y-196585771D02*
X185687914Y-195085771D01*
X185687914Y-195085771D02*
X186402200Y-195085771D01*
X187045057Y-196442914D02*
X187116486Y-196514342D01*
X187116486Y-196514342D02*
X187045057Y-196585771D01*
X187045057Y-196585771D02*
X186973629Y-196514342D01*
X186973629Y-196514342D02*
X187045057Y-196442914D01*
X187045057Y-196442914D02*
X187045057Y-196585771D01*
X187759343Y-196585771D02*
X187759343Y-195085771D01*
X187759343Y-195085771D02*
X188116486Y-195085771D01*
X188116486Y-195085771D02*
X188330772Y-195157200D01*
X188330772Y-195157200D02*
X188473629Y-195300057D01*
X188473629Y-195300057D02*
X188545058Y-195442914D01*
X188545058Y-195442914D02*
X188616486Y-195728628D01*
X188616486Y-195728628D02*
X188616486Y-195942914D01*
X188616486Y-195942914D02*
X188545058Y-196228628D01*
X188545058Y-196228628D02*
X188473629Y-196371485D01*
X188473629Y-196371485D02*
X188330772Y-196514342D01*
X188330772Y-196514342D02*
X188116486Y-196585771D01*
X188116486Y-196585771D02*
X187759343Y-196585771D01*
X189259343Y-196442914D02*
X189330772Y-196514342D01*
X189330772Y-196514342D02*
X189259343Y-196585771D01*
X189259343Y-196585771D02*
X189187915Y-196514342D01*
X189187915Y-196514342D02*
X189259343Y-196442914D01*
X189259343Y-196442914D02*
X189259343Y-196585771D01*
X189902201Y-196157200D02*
X190616487Y-196157200D01*
X189759344Y-196585771D02*
X190259344Y-195085771D01*
X190259344Y-195085771D02*
X190759344Y-196585771D01*
X191259343Y-196442914D02*
X191330772Y-196514342D01*
X191330772Y-196514342D02*
X191259343Y-196585771D01*
X191259343Y-196585771D02*
X191187915Y-196514342D01*
X191187915Y-196514342D02*
X191259343Y-196442914D01*
X191259343Y-196442914D02*
X191259343Y-196585771D01*
X193773629Y-196585771D02*
X193773629Y-195085771D01*
X193916487Y-196014342D02*
X194345058Y-196585771D01*
X194345058Y-195585771D02*
X193773629Y-196157200D01*
X194987915Y-196585771D02*
X194987915Y-195585771D01*
X194987915Y-195085771D02*
X194916487Y-195157200D01*
X194916487Y-195157200D02*
X194987915Y-195228628D01*
X194987915Y-195228628D02*
X195059344Y-195157200D01*
X195059344Y-195157200D02*
X194987915Y-195085771D01*
X194987915Y-195085771D02*
X194987915Y-195228628D01*
X196345059Y-196514342D02*
X196202201Y-196585771D01*
X196202201Y-196585771D02*
X195916487Y-196585771D01*
X195916487Y-196585771D02*
X195773630Y-196514342D01*
X195773630Y-196514342D02*
X195702201Y-196442914D01*
X195702201Y-196442914D02*
X195630773Y-196300057D01*
X195630773Y-196300057D02*
X195630773Y-195871485D01*
X195630773Y-195871485D02*
X195702201Y-195728628D01*
X195702201Y-195728628D02*
X195773630Y-195657200D01*
X195773630Y-195657200D02*
X195916487Y-195585771D01*
X195916487Y-195585771D02*
X196202201Y-195585771D01*
X196202201Y-195585771D02*
X196345059Y-195657200D01*
X197630773Y-196585771D02*
X197630773Y-195800057D01*
X197630773Y-195800057D02*
X197559344Y-195657200D01*
X197559344Y-195657200D02*
X197416487Y-195585771D01*
X197416487Y-195585771D02*
X197130773Y-195585771D01*
X197130773Y-195585771D02*
X196987915Y-195657200D01*
X197630773Y-196514342D02*
X197487915Y-196585771D01*
X197487915Y-196585771D02*
X197130773Y-196585771D01*
X197130773Y-196585771D02*
X196987915Y-196514342D01*
X196987915Y-196514342D02*
X196916487Y-196371485D01*
X196916487Y-196371485D02*
X196916487Y-196228628D01*
X196916487Y-196228628D02*
X196987915Y-196085771D01*
X196987915Y-196085771D02*
X197130773Y-196014342D01*
X197130773Y-196014342D02*
X197487915Y-196014342D01*
X197487915Y-196014342D02*
X197630773Y-195942914D01*
X198987916Y-196585771D02*
X198987916Y-195085771D01*
X198987916Y-196514342D02*
X198845058Y-196585771D01*
X198845058Y-196585771D02*
X198559344Y-196585771D01*
X198559344Y-196585771D02*
X198416487Y-196514342D01*
X198416487Y-196514342D02*
X198345058Y-196442914D01*
X198345058Y-196442914D02*
X198273630Y-196300057D01*
X198273630Y-196300057D02*
X198273630Y-195871485D01*
X198273630Y-195871485D02*
X198345058Y-195728628D01*
X198345058Y-195728628D02*
X198416487Y-195657200D01*
X198416487Y-195657200D02*
X198559344Y-195585771D01*
X198559344Y-195585771D02*
X198845058Y-195585771D01*
X198845058Y-195585771D02*
X198987916Y-195657200D01*
X201030773Y-197157200D02*
X200959344Y-197085771D01*
X200959344Y-197085771D02*
X200816487Y-196871485D01*
X200816487Y-196871485D02*
X200745059Y-196728628D01*
X200745059Y-196728628D02*
X200673630Y-196514342D01*
X200673630Y-196514342D02*
X200602201Y-196157200D01*
X200602201Y-196157200D02*
X200602201Y-195871485D01*
X200602201Y-195871485D02*
X200673630Y-195514342D01*
X200673630Y-195514342D02*
X200745059Y-195300057D01*
X200745059Y-195300057D02*
X200816487Y-195157200D01*
X200816487Y-195157200D02*
X200959344Y-194942914D01*
X200959344Y-194942914D02*
X201030773Y-194871485D01*
X202245059Y-195085771D02*
X201959344Y-195085771D01*
X201959344Y-195085771D02*
X201816487Y-195157200D01*
X201816487Y-195157200D02*
X201745059Y-195228628D01*
X201745059Y-195228628D02*
X201602201Y-195442914D01*
X201602201Y-195442914D02*
X201530773Y-195728628D01*
X201530773Y-195728628D02*
X201530773Y-196300057D01*
X201530773Y-196300057D02*
X201602201Y-196442914D01*
X201602201Y-196442914D02*
X201673630Y-196514342D01*
X201673630Y-196514342D02*
X201816487Y-196585771D01*
X201816487Y-196585771D02*
X202102201Y-196585771D01*
X202102201Y-196585771D02*
X202245059Y-196514342D01*
X202245059Y-196514342D02*
X202316487Y-196442914D01*
X202316487Y-196442914D02*
X202387916Y-196300057D01*
X202387916Y-196300057D02*
X202387916Y-195942914D01*
X202387916Y-195942914D02*
X202316487Y-195800057D01*
X202316487Y-195800057D02*
X202245059Y-195728628D01*
X202245059Y-195728628D02*
X202102201Y-195657200D01*
X202102201Y-195657200D02*
X201816487Y-195657200D01*
X201816487Y-195657200D02*
X201673630Y-195728628D01*
X201673630Y-195728628D02*
X201602201Y-195800057D01*
X201602201Y-195800057D02*
X201530773Y-195942914D01*
X203030772Y-196442914D02*
X203102201Y-196514342D01*
X203102201Y-196514342D02*
X203030772Y-196585771D01*
X203030772Y-196585771D02*
X202959344Y-196514342D01*
X202959344Y-196514342D02*
X203030772Y-196442914D01*
X203030772Y-196442914D02*
X203030772Y-196585771D01*
X203816487Y-196585771D02*
X204102201Y-196585771D01*
X204102201Y-196585771D02*
X204245058Y-196514342D01*
X204245058Y-196514342D02*
X204316487Y-196442914D01*
X204316487Y-196442914D02*
X204459344Y-196228628D01*
X204459344Y-196228628D02*
X204530773Y-195942914D01*
X204530773Y-195942914D02*
X204530773Y-195371485D01*
X204530773Y-195371485D02*
X204459344Y-195228628D01*
X204459344Y-195228628D02*
X204387916Y-195157200D01*
X204387916Y-195157200D02*
X204245058Y-195085771D01*
X204245058Y-195085771D02*
X203959344Y-195085771D01*
X203959344Y-195085771D02*
X203816487Y-195157200D01*
X203816487Y-195157200D02*
X203745058Y-195228628D01*
X203745058Y-195228628D02*
X203673630Y-195371485D01*
X203673630Y-195371485D02*
X203673630Y-195728628D01*
X203673630Y-195728628D02*
X203745058Y-195871485D01*
X203745058Y-195871485D02*
X203816487Y-195942914D01*
X203816487Y-195942914D02*
X203959344Y-196014342D01*
X203959344Y-196014342D02*
X204245058Y-196014342D01*
X204245058Y-196014342D02*
X204387916Y-195942914D01*
X204387916Y-195942914D02*
X204459344Y-195871485D01*
X204459344Y-195871485D02*
X204530773Y-195728628D01*
X205245058Y-196585771D02*
X205530772Y-196585771D01*
X205530772Y-196585771D02*
X205673629Y-196514342D01*
X205673629Y-196514342D02*
X205745058Y-196442914D01*
X205745058Y-196442914D02*
X205887915Y-196228628D01*
X205887915Y-196228628D02*
X205959344Y-195942914D01*
X205959344Y-195942914D02*
X205959344Y-195371485D01*
X205959344Y-195371485D02*
X205887915Y-195228628D01*
X205887915Y-195228628D02*
X205816487Y-195157200D01*
X205816487Y-195157200D02*
X205673629Y-195085771D01*
X205673629Y-195085771D02*
X205387915Y-195085771D01*
X205387915Y-195085771D02*
X205245058Y-195157200D01*
X205245058Y-195157200D02*
X205173629Y-195228628D01*
X205173629Y-195228628D02*
X205102201Y-195371485D01*
X205102201Y-195371485D02*
X205102201Y-195728628D01*
X205102201Y-195728628D02*
X205173629Y-195871485D01*
X205173629Y-195871485D02*
X205245058Y-195942914D01*
X205245058Y-195942914D02*
X205387915Y-196014342D01*
X205387915Y-196014342D02*
X205673629Y-196014342D01*
X205673629Y-196014342D02*
X205816487Y-195942914D01*
X205816487Y-195942914D02*
X205887915Y-195871485D01*
X205887915Y-195871485D02*
X205959344Y-195728628D01*
X206602200Y-196442914D02*
X206673629Y-196514342D01*
X206673629Y-196514342D02*
X206602200Y-196585771D01*
X206602200Y-196585771D02*
X206530772Y-196514342D01*
X206530772Y-196514342D02*
X206602200Y-196442914D01*
X206602200Y-196442914D02*
X206602200Y-196585771D01*
X207602201Y-195085771D02*
X207745058Y-195085771D01*
X207745058Y-195085771D02*
X207887915Y-195157200D01*
X207887915Y-195157200D02*
X207959344Y-195228628D01*
X207959344Y-195228628D02*
X208030772Y-195371485D01*
X208030772Y-195371485D02*
X208102201Y-195657200D01*
X208102201Y-195657200D02*
X208102201Y-196014342D01*
X208102201Y-196014342D02*
X208030772Y-196300057D01*
X208030772Y-196300057D02*
X207959344Y-196442914D01*
X207959344Y-196442914D02*
X207887915Y-196514342D01*
X207887915Y-196514342D02*
X207745058Y-196585771D01*
X207745058Y-196585771D02*
X207602201Y-196585771D01*
X207602201Y-196585771D02*
X207459344Y-196514342D01*
X207459344Y-196514342D02*
X207387915Y-196442914D01*
X207387915Y-196442914D02*
X207316486Y-196300057D01*
X207316486Y-196300057D02*
X207245058Y-196014342D01*
X207245058Y-196014342D02*
X207245058Y-195657200D01*
X207245058Y-195657200D02*
X207316486Y-195371485D01*
X207316486Y-195371485D02*
X207387915Y-195228628D01*
X207387915Y-195228628D02*
X207459344Y-195157200D01*
X207459344Y-195157200D02*
X207602201Y-195085771D01*
X208745057Y-196014342D02*
X209887915Y-196014342D01*
X210816486Y-195728628D02*
X210673629Y-195657200D01*
X210673629Y-195657200D02*
X210602200Y-195585771D01*
X210602200Y-195585771D02*
X210530772Y-195442914D01*
X210530772Y-195442914D02*
X210530772Y-195371485D01*
X210530772Y-195371485D02*
X210602200Y-195228628D01*
X210602200Y-195228628D02*
X210673629Y-195157200D01*
X210673629Y-195157200D02*
X210816486Y-195085771D01*
X210816486Y-195085771D02*
X211102200Y-195085771D01*
X211102200Y-195085771D02*
X211245058Y-195157200D01*
X211245058Y-195157200D02*
X211316486Y-195228628D01*
X211316486Y-195228628D02*
X211387915Y-195371485D01*
X211387915Y-195371485D02*
X211387915Y-195442914D01*
X211387915Y-195442914D02*
X211316486Y-195585771D01*
X211316486Y-195585771D02*
X211245058Y-195657200D01*
X211245058Y-195657200D02*
X211102200Y-195728628D01*
X211102200Y-195728628D02*
X210816486Y-195728628D01*
X210816486Y-195728628D02*
X210673629Y-195800057D01*
X210673629Y-195800057D02*
X210602200Y-195871485D01*
X210602200Y-195871485D02*
X210530772Y-196014342D01*
X210530772Y-196014342D02*
X210530772Y-196300057D01*
X210530772Y-196300057D02*
X210602200Y-196442914D01*
X210602200Y-196442914D02*
X210673629Y-196514342D01*
X210673629Y-196514342D02*
X210816486Y-196585771D01*
X210816486Y-196585771D02*
X211102200Y-196585771D01*
X211102200Y-196585771D02*
X211245058Y-196514342D01*
X211245058Y-196514342D02*
X211316486Y-196442914D01*
X211316486Y-196442914D02*
X211387915Y-196300057D01*
X211387915Y-196300057D02*
X211387915Y-196014342D01*
X211387915Y-196014342D02*
X211316486Y-195871485D01*
X211316486Y-195871485D02*
X211245058Y-195800057D01*
X211245058Y-195800057D02*
X211102200Y-195728628D01*
X212816486Y-196585771D02*
X211959343Y-196585771D01*
X212387914Y-196585771D02*
X212387914Y-195085771D01*
X212387914Y-195085771D02*
X212245057Y-195300057D01*
X212245057Y-195300057D02*
X212102200Y-195442914D01*
X212102200Y-195442914D02*
X211959343Y-195514342D01*
X213673628Y-195728628D02*
X213530771Y-195657200D01*
X213530771Y-195657200D02*
X213459342Y-195585771D01*
X213459342Y-195585771D02*
X213387914Y-195442914D01*
X213387914Y-195442914D02*
X213387914Y-195371485D01*
X213387914Y-195371485D02*
X213459342Y-195228628D01*
X213459342Y-195228628D02*
X213530771Y-195157200D01*
X213530771Y-195157200D02*
X213673628Y-195085771D01*
X213673628Y-195085771D02*
X213959342Y-195085771D01*
X213959342Y-195085771D02*
X214102200Y-195157200D01*
X214102200Y-195157200D02*
X214173628Y-195228628D01*
X214173628Y-195228628D02*
X214245057Y-195371485D01*
X214245057Y-195371485D02*
X214245057Y-195442914D01*
X214245057Y-195442914D02*
X214173628Y-195585771D01*
X214173628Y-195585771D02*
X214102200Y-195657200D01*
X214102200Y-195657200D02*
X213959342Y-195728628D01*
X213959342Y-195728628D02*
X213673628Y-195728628D01*
X213673628Y-195728628D02*
X213530771Y-195800057D01*
X213530771Y-195800057D02*
X213459342Y-195871485D01*
X213459342Y-195871485D02*
X213387914Y-196014342D01*
X213387914Y-196014342D02*
X213387914Y-196300057D01*
X213387914Y-196300057D02*
X213459342Y-196442914D01*
X213459342Y-196442914D02*
X213530771Y-196514342D01*
X213530771Y-196514342D02*
X213673628Y-196585771D01*
X213673628Y-196585771D02*
X213959342Y-196585771D01*
X213959342Y-196585771D02*
X214102200Y-196514342D01*
X214102200Y-196514342D02*
X214173628Y-196442914D01*
X214173628Y-196442914D02*
X214245057Y-196300057D01*
X214245057Y-196300057D02*
X214245057Y-196014342D01*
X214245057Y-196014342D02*
X214173628Y-195871485D01*
X214173628Y-195871485D02*
X214102200Y-195800057D01*
X214102200Y-195800057D02*
X213959342Y-195728628D01*
X214887913Y-196014342D02*
X216030771Y-196014342D01*
X217387914Y-195585771D02*
X217387914Y-196800057D01*
X217387914Y-196800057D02*
X217316485Y-196942914D01*
X217316485Y-196942914D02*
X217245056Y-197014342D01*
X217245056Y-197014342D02*
X217102199Y-197085771D01*
X217102199Y-197085771D02*
X216887914Y-197085771D01*
X216887914Y-197085771D02*
X216745056Y-197014342D01*
X217387914Y-196514342D02*
X217245056Y-196585771D01*
X217245056Y-196585771D02*
X216959342Y-196585771D01*
X216959342Y-196585771D02*
X216816485Y-196514342D01*
X216816485Y-196514342D02*
X216745056Y-196442914D01*
X216745056Y-196442914D02*
X216673628Y-196300057D01*
X216673628Y-196300057D02*
X216673628Y-195871485D01*
X216673628Y-195871485D02*
X216745056Y-195728628D01*
X216745056Y-195728628D02*
X216816485Y-195657200D01*
X216816485Y-195657200D02*
X216959342Y-195585771D01*
X216959342Y-195585771D02*
X217245056Y-195585771D01*
X217245056Y-195585771D02*
X217387914Y-195657200D01*
X217959342Y-195085771D02*
X218959342Y-195085771D01*
X218959342Y-195085771D02*
X218316485Y-196585771D01*
X219602199Y-196585771D02*
X219887913Y-196585771D01*
X219887913Y-196585771D02*
X220030770Y-196514342D01*
X220030770Y-196514342D02*
X220102199Y-196442914D01*
X220102199Y-196442914D02*
X220245056Y-196228628D01*
X220245056Y-196228628D02*
X220316485Y-195942914D01*
X220316485Y-195942914D02*
X220316485Y-195371485D01*
X220316485Y-195371485D02*
X220245056Y-195228628D01*
X220245056Y-195228628D02*
X220173628Y-195157200D01*
X220173628Y-195157200D02*
X220030770Y-195085771D01*
X220030770Y-195085771D02*
X219745056Y-195085771D01*
X219745056Y-195085771D02*
X219602199Y-195157200D01*
X219602199Y-195157200D02*
X219530770Y-195228628D01*
X219530770Y-195228628D02*
X219459342Y-195371485D01*
X219459342Y-195371485D02*
X219459342Y-195728628D01*
X219459342Y-195728628D02*
X219530770Y-195871485D01*
X219530770Y-195871485D02*
X219602199Y-195942914D01*
X219602199Y-195942914D02*
X219745056Y-196014342D01*
X219745056Y-196014342D02*
X220030770Y-196014342D01*
X220030770Y-196014342D02*
X220173628Y-195942914D01*
X220173628Y-195942914D02*
X220245056Y-195871485D01*
X220245056Y-195871485D02*
X220316485Y-195728628D01*
X221602199Y-196514342D02*
X221459341Y-196585771D01*
X221459341Y-196585771D02*
X221173627Y-196585771D01*
X221173627Y-196585771D02*
X221030770Y-196514342D01*
X221030770Y-196514342D02*
X220959341Y-196442914D01*
X220959341Y-196442914D02*
X220887913Y-196300057D01*
X220887913Y-196300057D02*
X220887913Y-195871485D01*
X220887913Y-195871485D02*
X220959341Y-195728628D01*
X220959341Y-195728628D02*
X221030770Y-195657200D01*
X221030770Y-195657200D02*
X221173627Y-195585771D01*
X221173627Y-195585771D02*
X221459341Y-195585771D01*
X221459341Y-195585771D02*
X221602199Y-195657200D01*
X222102198Y-195085771D02*
X223102198Y-195085771D01*
X223102198Y-195085771D02*
X222459341Y-196585771D01*
X224316484Y-196585771D02*
X224316484Y-195085771D01*
X224316484Y-196514342D02*
X224173626Y-196585771D01*
X224173626Y-196585771D02*
X223887912Y-196585771D01*
X223887912Y-196585771D02*
X223745055Y-196514342D01*
X223745055Y-196514342D02*
X223673626Y-196442914D01*
X223673626Y-196442914D02*
X223602198Y-196300057D01*
X223602198Y-196300057D02*
X223602198Y-195871485D01*
X223602198Y-195871485D02*
X223673626Y-195728628D01*
X223673626Y-195728628D02*
X223745055Y-195657200D01*
X223745055Y-195657200D02*
X223887912Y-195585771D01*
X223887912Y-195585771D02*
X224173626Y-195585771D01*
X224173626Y-195585771D02*
X224316484Y-195657200D01*
X225745055Y-195085771D02*
X225030769Y-195085771D01*
X225030769Y-195085771D02*
X224959341Y-195800057D01*
X224959341Y-195800057D02*
X225030769Y-195728628D01*
X225030769Y-195728628D02*
X225173627Y-195657200D01*
X225173627Y-195657200D02*
X225530769Y-195657200D01*
X225530769Y-195657200D02*
X225673627Y-195728628D01*
X225673627Y-195728628D02*
X225745055Y-195800057D01*
X225745055Y-195800057D02*
X225816484Y-195942914D01*
X225816484Y-195942914D02*
X225816484Y-196300057D01*
X225816484Y-196300057D02*
X225745055Y-196442914D01*
X225745055Y-196442914D02*
X225673627Y-196514342D01*
X225673627Y-196514342D02*
X225530769Y-196585771D01*
X225530769Y-196585771D02*
X225173627Y-196585771D01*
X225173627Y-196585771D02*
X225030769Y-196514342D01*
X225030769Y-196514342D02*
X224959341Y-196442914D01*
X227173626Y-195085771D02*
X226459340Y-195085771D01*
X226459340Y-195085771D02*
X226387912Y-195800057D01*
X226387912Y-195800057D02*
X226459340Y-195728628D01*
X226459340Y-195728628D02*
X226602198Y-195657200D01*
X226602198Y-195657200D02*
X226959340Y-195657200D01*
X226959340Y-195657200D02*
X227102198Y-195728628D01*
X227102198Y-195728628D02*
X227173626Y-195800057D01*
X227173626Y-195800057D02*
X227245055Y-195942914D01*
X227245055Y-195942914D02*
X227245055Y-196300057D01*
X227245055Y-196300057D02*
X227173626Y-196442914D01*
X227173626Y-196442914D02*
X227102198Y-196514342D01*
X227102198Y-196514342D02*
X226959340Y-196585771D01*
X226959340Y-196585771D02*
X226602198Y-196585771D01*
X226602198Y-196585771D02*
X226459340Y-196514342D01*
X226459340Y-196514342D02*
X226387912Y-196442914D01*
X228530769Y-196585771D02*
X228530769Y-195800057D01*
X228530769Y-195800057D02*
X228459340Y-195657200D01*
X228459340Y-195657200D02*
X228316483Y-195585771D01*
X228316483Y-195585771D02*
X228030769Y-195585771D01*
X228030769Y-195585771D02*
X227887911Y-195657200D01*
X228530769Y-196514342D02*
X228387911Y-196585771D01*
X228387911Y-196585771D02*
X228030769Y-196585771D01*
X228030769Y-196585771D02*
X227887911Y-196514342D01*
X227887911Y-196514342D02*
X227816483Y-196371485D01*
X227816483Y-196371485D02*
X227816483Y-196228628D01*
X227816483Y-196228628D02*
X227887911Y-196085771D01*
X227887911Y-196085771D02*
X228030769Y-196014342D01*
X228030769Y-196014342D02*
X228387911Y-196014342D01*
X228387911Y-196014342D02*
X228530769Y-195942914D01*
X229887912Y-195585771D02*
X229887912Y-196585771D01*
X229530769Y-195014342D02*
X229173626Y-196085771D01*
X229173626Y-196085771D02*
X230102197Y-196085771D01*
X230959340Y-195085771D02*
X231102197Y-195085771D01*
X231102197Y-195085771D02*
X231245054Y-195157200D01*
X231245054Y-195157200D02*
X231316483Y-195228628D01*
X231316483Y-195228628D02*
X231387911Y-195371485D01*
X231387911Y-195371485D02*
X231459340Y-195657200D01*
X231459340Y-195657200D02*
X231459340Y-196014342D01*
X231459340Y-196014342D02*
X231387911Y-196300057D01*
X231387911Y-196300057D02*
X231316483Y-196442914D01*
X231316483Y-196442914D02*
X231245054Y-196514342D01*
X231245054Y-196514342D02*
X231102197Y-196585771D01*
X231102197Y-196585771D02*
X230959340Y-196585771D01*
X230959340Y-196585771D02*
X230816483Y-196514342D01*
X230816483Y-196514342D02*
X230745054Y-196442914D01*
X230745054Y-196442914D02*
X230673625Y-196300057D01*
X230673625Y-196300057D02*
X230602197Y-196014342D01*
X230602197Y-196014342D02*
X230602197Y-195657200D01*
X230602197Y-195657200D02*
X230673625Y-195371485D01*
X230673625Y-195371485D02*
X230745054Y-195228628D01*
X230745054Y-195228628D02*
X230816483Y-195157200D01*
X230816483Y-195157200D02*
X230959340Y-195085771D01*
X231959339Y-197157200D02*
X232030768Y-197085771D01*
X232030768Y-197085771D02*
X232173625Y-196871485D01*
X232173625Y-196871485D02*
X232245054Y-196728628D01*
X232245054Y-196728628D02*
X232316482Y-196514342D01*
X232316482Y-196514342D02*
X232387911Y-196157200D01*
X232387911Y-196157200D02*
X232387911Y-195871485D01*
X232387911Y-195871485D02*
X232316482Y-195514342D01*
X232316482Y-195514342D02*
X232245054Y-195300057D01*
X232245054Y-195300057D02*
X232173625Y-195157200D01*
X232173625Y-195157200D02*
X232030768Y-194942914D01*
X232030768Y-194942914D02*
X231959339Y-194871485D01*
D10*
D11*
X177002200Y-191507200D02*
X285002200Y-191507200D01*
D10*
D12*
X264216485Y-193785771D02*
X263716485Y-193071485D01*
X263359342Y-193785771D02*
X263359342Y-192285771D01*
X263359342Y-192285771D02*
X263930771Y-192285771D01*
X263930771Y-192285771D02*
X264073628Y-192357200D01*
X264073628Y-192357200D02*
X264145057Y-192428628D01*
X264145057Y-192428628D02*
X264216485Y-192571485D01*
X264216485Y-192571485D02*
X264216485Y-192785771D01*
X264216485Y-192785771D02*
X264145057Y-192928628D01*
X264145057Y-192928628D02*
X264073628Y-193000057D01*
X264073628Y-193000057D02*
X263930771Y-193071485D01*
X263930771Y-193071485D02*
X263359342Y-193071485D01*
X265430771Y-193714342D02*
X265287914Y-193785771D01*
X265287914Y-193785771D02*
X265002200Y-193785771D01*
X265002200Y-193785771D02*
X264859342Y-193714342D01*
X264859342Y-193714342D02*
X264787914Y-193571485D01*
X264787914Y-193571485D02*
X264787914Y-193000057D01*
X264787914Y-193000057D02*
X264859342Y-192857200D01*
X264859342Y-192857200D02*
X265002200Y-192785771D01*
X265002200Y-192785771D02*
X265287914Y-192785771D01*
X265287914Y-192785771D02*
X265430771Y-192857200D01*
X265430771Y-192857200D02*
X265502200Y-193000057D01*
X265502200Y-193000057D02*
X265502200Y-193142914D01*
X265502200Y-193142914D02*
X264787914Y-193285771D01*
X266002199Y-192785771D02*
X266359342Y-193785771D01*
X266359342Y-193785771D02*
X266716485Y-192785771D01*
X267287913Y-193642914D02*
X267359342Y-193714342D01*
X267359342Y-193714342D02*
X267287913Y-193785771D01*
X267287913Y-193785771D02*
X267216485Y-193714342D01*
X267216485Y-193714342D02*
X267287913Y-193642914D01*
X267287913Y-193642914D02*
X267287913Y-193785771D01*
X267287913Y-192857200D02*
X267359342Y-192928628D01*
X267359342Y-192928628D02*
X267287913Y-193000057D01*
X267287913Y-193000057D02*
X267216485Y-192928628D01*
X267216485Y-192928628D02*
X267287913Y-192857200D01*
X267287913Y-192857200D02*
X267287913Y-193000057D01*
D10*
D11*
X178287914Y-193714342D02*
X178502200Y-193785771D01*
X178502200Y-193785771D02*
X178859342Y-193785771D01*
X178859342Y-193785771D02*
X179002200Y-193714342D01*
X179002200Y-193714342D02*
X179073628Y-193642914D01*
X179073628Y-193642914D02*
X179145057Y-193500057D01*
X179145057Y-193500057D02*
X179145057Y-193357200D01*
X179145057Y-193357200D02*
X179073628Y-193214342D01*
X179073628Y-193214342D02*
X179002200Y-193142914D01*
X179002200Y-193142914D02*
X178859342Y-193071485D01*
X178859342Y-193071485D02*
X178573628Y-193000057D01*
X178573628Y-193000057D02*
X178430771Y-192928628D01*
X178430771Y-192928628D02*
X178359342Y-192857200D01*
X178359342Y-192857200D02*
X178287914Y-192714342D01*
X178287914Y-192714342D02*
X178287914Y-192571485D01*
X178287914Y-192571485D02*
X178359342Y-192428628D01*
X178359342Y-192428628D02*
X178430771Y-192357200D01*
X178430771Y-192357200D02*
X178573628Y-192285771D01*
X178573628Y-192285771D02*
X178930771Y-192285771D01*
X178930771Y-192285771D02*
X179145057Y-192357200D01*
X179787913Y-193785771D02*
X179787913Y-192785771D01*
X179787913Y-192285771D02*
X179716485Y-192357200D01*
X179716485Y-192357200D02*
X179787913Y-192428628D01*
X179787913Y-192428628D02*
X179859342Y-192357200D01*
X179859342Y-192357200D02*
X179787913Y-192285771D01*
X179787913Y-192285771D02*
X179787913Y-192428628D01*
X180359342Y-192785771D02*
X181145057Y-192785771D01*
X181145057Y-192785771D02*
X180359342Y-193785771D01*
X180359342Y-193785771D02*
X181145057Y-193785771D01*
X182287914Y-193714342D02*
X182145057Y-193785771D01*
X182145057Y-193785771D02*
X181859343Y-193785771D01*
X181859343Y-193785771D02*
X181716485Y-193714342D01*
X181716485Y-193714342D02*
X181645057Y-193571485D01*
X181645057Y-193571485D02*
X181645057Y-193000057D01*
X181645057Y-193000057D02*
X181716485Y-192857200D01*
X181716485Y-192857200D02*
X181859343Y-192785771D01*
X181859343Y-192785771D02*
X182145057Y-192785771D01*
X182145057Y-192785771D02*
X182287914Y-192857200D01*
X182287914Y-192857200D02*
X182359343Y-193000057D01*
X182359343Y-193000057D02*
X182359343Y-193142914D01*
X182359343Y-193142914D02*
X181645057Y-193285771D01*
X183002199Y-193642914D02*
X183073628Y-193714342D01*
X183073628Y-193714342D02*
X183002199Y-193785771D01*
X183002199Y-193785771D02*
X182930771Y-193714342D01*
X182930771Y-193714342D02*
X183002199Y-193642914D01*
X183002199Y-193642914D02*
X183002199Y-193785771D01*
X183002199Y-192857200D02*
X183073628Y-192928628D01*
X183073628Y-192928628D02*
X183002199Y-193000057D01*
X183002199Y-193000057D02*
X182930771Y-192928628D01*
X182930771Y-192928628D02*
X183002199Y-192857200D01*
X183002199Y-192857200D02*
X183002199Y-193000057D01*
X184545057Y-193357200D02*
X185259343Y-193357200D01*
X184402200Y-193785771D02*
X184902200Y-192285771D01*
X184902200Y-192285771D02*
X185402200Y-193785771D01*
X186545057Y-192785771D02*
X186545057Y-193785771D01*
X186187914Y-192214342D02*
X185830771Y-193285771D01*
X185830771Y-193285771D02*
X186759342Y-193285771D01*
D10*
D11*
X263359342Y-196585771D02*
X263359342Y-195085771D01*
X264716486Y-196585771D02*
X264716486Y-195085771D01*
X264716486Y-196514342D02*
X264573628Y-196585771D01*
X264573628Y-196585771D02*
X264287914Y-196585771D01*
X264287914Y-196585771D02*
X264145057Y-196514342D01*
X264145057Y-196514342D02*
X264073628Y-196442914D01*
X264073628Y-196442914D02*
X264002200Y-196300057D01*
X264002200Y-196300057D02*
X264002200Y-195871485D01*
X264002200Y-195871485D02*
X264073628Y-195728628D01*
X264073628Y-195728628D02*
X264145057Y-195657200D01*
X264145057Y-195657200D02*
X264287914Y-195585771D01*
X264287914Y-195585771D02*
X264573628Y-195585771D01*
X264573628Y-195585771D02*
X264716486Y-195657200D01*
X265430771Y-196442914D02*
X265502200Y-196514342D01*
X265502200Y-196514342D02*
X265430771Y-196585771D01*
X265430771Y-196585771D02*
X265359343Y-196514342D01*
X265359343Y-196514342D02*
X265430771Y-196442914D01*
X265430771Y-196442914D02*
X265430771Y-196585771D01*
X265430771Y-195657200D02*
X265502200Y-195728628D01*
X265502200Y-195728628D02*
X265430771Y-195800057D01*
X265430771Y-195800057D02*
X265359343Y-195728628D01*
X265359343Y-195728628D02*
X265430771Y-195657200D01*
X265430771Y-195657200D02*
X265430771Y-195800057D01*
X267830772Y-196585771D02*
X266973629Y-196585771D01*
X267402200Y-196585771D02*
X267402200Y-195085771D01*
X267402200Y-195085771D02*
X267259343Y-195300057D01*
X267259343Y-195300057D02*
X267116486Y-195442914D01*
X267116486Y-195442914D02*
X266973629Y-195514342D01*
X269545057Y-195014342D02*
X268259343Y-196942914D01*
X270830772Y-196585771D02*
X269973629Y-196585771D01*
X270402200Y-196585771D02*
X270402200Y-195085771D01*
X270402200Y-195085771D02*
X270259343Y-195300057D01*
X270259343Y-195300057D02*
X270116486Y-195442914D01*
X270116486Y-195442914D02*
X269973629Y-195514342D01*
D10*
D11*
X177002200Y-187507200D02*
X285002200Y-187507200D01*
D10*
D13*
X178454580Y-188211961D02*
X179597438Y-188211961D01*
X178776009Y-190211961D02*
X179026009Y-188211961D01*
X180014105Y-190211961D02*
X180180771Y-188878628D01*
X180264105Y-188211961D02*
X180156962Y-188307200D01*
X180156962Y-188307200D02*
X180240295Y-188402438D01*
X180240295Y-188402438D02*
X180347438Y-188307200D01*
X180347438Y-188307200D02*
X180264105Y-188211961D01*
X180264105Y-188211961D02*
X180240295Y-188402438D01*
X180847438Y-188878628D02*
X181609343Y-188878628D01*
X181216486Y-188211961D02*
X181002200Y-189926247D01*
X181002200Y-189926247D02*
X181073629Y-190116723D01*
X181073629Y-190116723D02*
X181252200Y-190211961D01*
X181252200Y-190211961D02*
X181442676Y-190211961D01*
X182395057Y-190211961D02*
X182216486Y-190116723D01*
X182216486Y-190116723D02*
X182145057Y-189926247D01*
X182145057Y-189926247D02*
X182359343Y-188211961D01*
X183930771Y-190116723D02*
X183728390Y-190211961D01*
X183728390Y-190211961D02*
X183347438Y-190211961D01*
X183347438Y-190211961D02*
X183168867Y-190116723D01*
X183168867Y-190116723D02*
X183097438Y-189926247D01*
X183097438Y-189926247D02*
X183192676Y-189164342D01*
X183192676Y-189164342D02*
X183311724Y-188973866D01*
X183311724Y-188973866D02*
X183514105Y-188878628D01*
X183514105Y-188878628D02*
X183895057Y-188878628D01*
X183895057Y-188878628D02*
X184073628Y-188973866D01*
X184073628Y-188973866D02*
X184145057Y-189164342D01*
X184145057Y-189164342D02*
X184121247Y-189354819D01*
X184121247Y-189354819D02*
X183145057Y-189545295D01*
X184895057Y-190021485D02*
X184978391Y-190116723D01*
X184978391Y-190116723D02*
X184871248Y-190211961D01*
X184871248Y-190211961D02*
X184787914Y-190116723D01*
X184787914Y-190116723D02*
X184895057Y-190021485D01*
X184895057Y-190021485D02*
X184871248Y-190211961D01*
X185026010Y-188973866D02*
X185109343Y-189069104D01*
X185109343Y-189069104D02*
X185002200Y-189164342D01*
X185002200Y-189164342D02*
X184918867Y-189069104D01*
X184918867Y-189069104D02*
X185026010Y-188973866D01*
X185026010Y-188973866D02*
X185002200Y-189164342D01*
D10*
D11*
X178859342Y-185600057D02*
X178359342Y-185600057D01*
X178359342Y-186385771D02*
X178359342Y-184885771D01*
X178359342Y-184885771D02*
X179073628Y-184885771D01*
X179645056Y-186385771D02*
X179645056Y-185385771D01*
X179645056Y-184885771D02*
X179573628Y-184957200D01*
X179573628Y-184957200D02*
X179645056Y-185028628D01*
X179645056Y-185028628D02*
X179716485Y-184957200D01*
X179716485Y-184957200D02*
X179645056Y-184885771D01*
X179645056Y-184885771D02*
X179645056Y-185028628D01*
X180573628Y-186385771D02*
X180430771Y-186314342D01*
X180430771Y-186314342D02*
X180359342Y-186171485D01*
X180359342Y-186171485D02*
X180359342Y-184885771D01*
X181716485Y-186314342D02*
X181573628Y-186385771D01*
X181573628Y-186385771D02*
X181287914Y-186385771D01*
X181287914Y-186385771D02*
X181145056Y-186314342D01*
X181145056Y-186314342D02*
X181073628Y-186171485D01*
X181073628Y-186171485D02*
X181073628Y-185600057D01*
X181073628Y-185600057D02*
X181145056Y-185457200D01*
X181145056Y-185457200D02*
X181287914Y-185385771D01*
X181287914Y-185385771D02*
X181573628Y-185385771D01*
X181573628Y-185385771D02*
X181716485Y-185457200D01*
X181716485Y-185457200D02*
X181787914Y-185600057D01*
X181787914Y-185600057D02*
X181787914Y-185742914D01*
X181787914Y-185742914D02*
X181073628Y-185885771D01*
X182430770Y-186242914D02*
X182502199Y-186314342D01*
X182502199Y-186314342D02*
X182430770Y-186385771D01*
X182430770Y-186385771D02*
X182359342Y-186314342D01*
X182359342Y-186314342D02*
X182430770Y-186242914D01*
X182430770Y-186242914D02*
X182430770Y-186385771D01*
X182430770Y-185457200D02*
X182502199Y-185528628D01*
X182502199Y-185528628D02*
X182430770Y-185600057D01*
X182430770Y-185600057D02*
X182359342Y-185528628D01*
X182359342Y-185528628D02*
X182430770Y-185457200D01*
X182430770Y-185457200D02*
X182430770Y-185600057D01*
X184045056Y-186385771D02*
X184045056Y-184885771D01*
X184045056Y-184885771D02*
X184616485Y-184885771D01*
X184616485Y-184885771D02*
X184759342Y-184957200D01*
X184759342Y-184957200D02*
X184830771Y-185028628D01*
X184830771Y-185028628D02*
X184902199Y-185171485D01*
X184902199Y-185171485D02*
X184902199Y-185385771D01*
X184902199Y-185385771D02*
X184830771Y-185528628D01*
X184830771Y-185528628D02*
X184759342Y-185600057D01*
X184759342Y-185600057D02*
X184616485Y-185671485D01*
X184616485Y-185671485D02*
X184045056Y-185671485D01*
X185545056Y-186385771D02*
X185545056Y-185385771D01*
X185545056Y-185671485D02*
X185616485Y-185528628D01*
X185616485Y-185528628D02*
X185687914Y-185457200D01*
X185687914Y-185457200D02*
X185830771Y-185385771D01*
X185830771Y-185385771D02*
X185973628Y-185385771D01*
X186687913Y-186385771D02*
X186545056Y-186314342D01*
X186545056Y-186314342D02*
X186473627Y-186242914D01*
X186473627Y-186242914D02*
X186402199Y-186100057D01*
X186402199Y-186100057D02*
X186402199Y-185671485D01*
X186402199Y-185671485D02*
X186473627Y-185528628D01*
X186473627Y-185528628D02*
X186545056Y-185457200D01*
X186545056Y-185457200D02*
X186687913Y-185385771D01*
X186687913Y-185385771D02*
X186902199Y-185385771D01*
X186902199Y-185385771D02*
X187045056Y-185457200D01*
X187045056Y-185457200D02*
X187116485Y-185528628D01*
X187116485Y-185528628D02*
X187187913Y-185671485D01*
X187187913Y-185671485D02*
X187187913Y-186100057D01*
X187187913Y-186100057D02*
X187116485Y-186242914D01*
X187116485Y-186242914D02*
X187045056Y-186314342D01*
X187045056Y-186314342D02*
X186902199Y-186385771D01*
X186902199Y-186385771D02*
X186687913Y-186385771D01*
X187830770Y-185385771D02*
X187830770Y-186671485D01*
X187830770Y-186671485D02*
X187759342Y-186814342D01*
X187759342Y-186814342D02*
X187616485Y-186885771D01*
X187616485Y-186885771D02*
X187545056Y-186885771D01*
X187830770Y-184885771D02*
X187759342Y-184957200D01*
X187759342Y-184957200D02*
X187830770Y-185028628D01*
X187830770Y-185028628D02*
X187902199Y-184957200D01*
X187902199Y-184957200D02*
X187830770Y-184885771D01*
X187830770Y-184885771D02*
X187830770Y-185028628D01*
X189116485Y-186314342D02*
X188973628Y-186385771D01*
X188973628Y-186385771D02*
X188687914Y-186385771D01*
X188687914Y-186385771D02*
X188545056Y-186314342D01*
X188545056Y-186314342D02*
X188473628Y-186171485D01*
X188473628Y-186171485D02*
X188473628Y-185600057D01*
X188473628Y-185600057D02*
X188545056Y-185457200D01*
X188545056Y-185457200D02*
X188687914Y-185385771D01*
X188687914Y-185385771D02*
X188973628Y-185385771D01*
X188973628Y-185385771D02*
X189116485Y-185457200D01*
X189116485Y-185457200D02*
X189187914Y-185600057D01*
X189187914Y-185600057D02*
X189187914Y-185742914D01*
X189187914Y-185742914D02*
X188473628Y-185885771D01*
X190473628Y-186314342D02*
X190330770Y-186385771D01*
X190330770Y-186385771D02*
X190045056Y-186385771D01*
X190045056Y-186385771D02*
X189902199Y-186314342D01*
X189902199Y-186314342D02*
X189830770Y-186242914D01*
X189830770Y-186242914D02*
X189759342Y-186100057D01*
X189759342Y-186100057D02*
X189759342Y-185671485D01*
X189759342Y-185671485D02*
X189830770Y-185528628D01*
X189830770Y-185528628D02*
X189902199Y-185457200D01*
X189902199Y-185457200D02*
X190045056Y-185385771D01*
X190045056Y-185385771D02*
X190330770Y-185385771D01*
X190330770Y-185385771D02*
X190473628Y-185457200D01*
X190902199Y-185385771D02*
X191473627Y-185385771D01*
X191116484Y-184885771D02*
X191116484Y-186171485D01*
X191116484Y-186171485D02*
X191187913Y-186314342D01*
X191187913Y-186314342D02*
X191330770Y-186385771D01*
X191330770Y-186385771D02*
X191473627Y-186385771D01*
X191973627Y-186242914D02*
X192045056Y-186314342D01*
X192045056Y-186314342D02*
X191973627Y-186385771D01*
X191973627Y-186385771D02*
X191902199Y-186314342D01*
X191902199Y-186314342D02*
X191973627Y-186242914D01*
X191973627Y-186242914D02*
X191973627Y-186385771D01*
X192687913Y-186385771D02*
X192687913Y-184885771D01*
X192830771Y-185814342D02*
X193259342Y-186385771D01*
X193259342Y-185385771D02*
X192687913Y-185957200D01*
X193902199Y-186385771D02*
X193902199Y-185385771D01*
X193902199Y-184885771D02*
X193830771Y-184957200D01*
X193830771Y-184957200D02*
X193902199Y-185028628D01*
X193902199Y-185028628D02*
X193973628Y-184957200D01*
X193973628Y-184957200D02*
X193902199Y-184885771D01*
X193902199Y-184885771D02*
X193902199Y-185028628D01*
X195259343Y-186314342D02*
X195116485Y-186385771D01*
X195116485Y-186385771D02*
X194830771Y-186385771D01*
X194830771Y-186385771D02*
X194687914Y-186314342D01*
X194687914Y-186314342D02*
X194616485Y-186242914D01*
X194616485Y-186242914D02*
X194545057Y-186100057D01*
X194545057Y-186100057D02*
X194545057Y-185671485D01*
X194545057Y-185671485D02*
X194616485Y-185528628D01*
X194616485Y-185528628D02*
X194687914Y-185457200D01*
X194687914Y-185457200D02*
X194830771Y-185385771D01*
X194830771Y-185385771D02*
X195116485Y-185385771D01*
X195116485Y-185385771D02*
X195259343Y-185457200D01*
X196545057Y-186385771D02*
X196545057Y-185600057D01*
X196545057Y-185600057D02*
X196473628Y-185457200D01*
X196473628Y-185457200D02*
X196330771Y-185385771D01*
X196330771Y-185385771D02*
X196045057Y-185385771D01*
X196045057Y-185385771D02*
X195902199Y-185457200D01*
X196545057Y-186314342D02*
X196402199Y-186385771D01*
X196402199Y-186385771D02*
X196045057Y-186385771D01*
X196045057Y-186385771D02*
X195902199Y-186314342D01*
X195902199Y-186314342D02*
X195830771Y-186171485D01*
X195830771Y-186171485D02*
X195830771Y-186028628D01*
X195830771Y-186028628D02*
X195902199Y-185885771D01*
X195902199Y-185885771D02*
X196045057Y-185814342D01*
X196045057Y-185814342D02*
X196402199Y-185814342D01*
X196402199Y-185814342D02*
X196545057Y-185742914D01*
X197902200Y-186385771D02*
X197902200Y-184885771D01*
X197902200Y-186314342D02*
X197759342Y-186385771D01*
X197759342Y-186385771D02*
X197473628Y-186385771D01*
X197473628Y-186385771D02*
X197330771Y-186314342D01*
X197330771Y-186314342D02*
X197259342Y-186242914D01*
X197259342Y-186242914D02*
X197187914Y-186100057D01*
X197187914Y-186100057D02*
X197187914Y-185671485D01*
X197187914Y-185671485D02*
X197259342Y-185528628D01*
X197259342Y-185528628D02*
X197330771Y-185457200D01*
X197330771Y-185457200D02*
X197473628Y-185385771D01*
X197473628Y-185385771D02*
X197759342Y-185385771D01*
X197759342Y-185385771D02*
X197902200Y-185457200D01*
X198259343Y-186528628D02*
X199402200Y-186528628D01*
X199759342Y-185385771D02*
X199759342Y-186885771D01*
X199759342Y-185457200D02*
X199902200Y-185385771D01*
X199902200Y-185385771D02*
X200187914Y-185385771D01*
X200187914Y-185385771D02*
X200330771Y-185457200D01*
X200330771Y-185457200D02*
X200402200Y-185528628D01*
X200402200Y-185528628D02*
X200473628Y-185671485D01*
X200473628Y-185671485D02*
X200473628Y-186100057D01*
X200473628Y-186100057D02*
X200402200Y-186242914D01*
X200402200Y-186242914D02*
X200330771Y-186314342D01*
X200330771Y-186314342D02*
X200187914Y-186385771D01*
X200187914Y-186385771D02*
X199902200Y-186385771D01*
X199902200Y-186385771D02*
X199759342Y-186314342D01*
X201759343Y-186314342D02*
X201616485Y-186385771D01*
X201616485Y-186385771D02*
X201330771Y-186385771D01*
X201330771Y-186385771D02*
X201187914Y-186314342D01*
X201187914Y-186314342D02*
X201116485Y-186242914D01*
X201116485Y-186242914D02*
X201045057Y-186100057D01*
X201045057Y-186100057D02*
X201045057Y-185671485D01*
X201045057Y-185671485D02*
X201116485Y-185528628D01*
X201116485Y-185528628D02*
X201187914Y-185457200D01*
X201187914Y-185457200D02*
X201330771Y-185385771D01*
X201330771Y-185385771D02*
X201616485Y-185385771D01*
X201616485Y-185385771D02*
X201759343Y-185457200D01*
X202402199Y-186385771D02*
X202402199Y-184885771D01*
X202402199Y-185457200D02*
X202545057Y-185385771D01*
X202545057Y-185385771D02*
X202830771Y-185385771D01*
X202830771Y-185385771D02*
X202973628Y-185457200D01*
X202973628Y-185457200D02*
X203045057Y-185528628D01*
X203045057Y-185528628D02*
X203116485Y-185671485D01*
X203116485Y-185671485D02*
X203116485Y-186100057D01*
X203116485Y-186100057D02*
X203045057Y-186242914D01*
X203045057Y-186242914D02*
X202973628Y-186314342D01*
X202973628Y-186314342D02*
X202830771Y-186385771D01*
X202830771Y-186385771D02*
X202545057Y-186385771D01*
X202545057Y-186385771D02*
X202402199Y-186314342D01*
D10*
D11*
X177002200Y-181507200D02*
X285002200Y-181507200D01*
D10*
D11*
X178287914Y-183614342D02*
X178502200Y-183685771D01*
X178502200Y-183685771D02*
X178859342Y-183685771D01*
X178859342Y-183685771D02*
X179002200Y-183614342D01*
X179002200Y-183614342D02*
X179073628Y-183542914D01*
X179073628Y-183542914D02*
X179145057Y-183400057D01*
X179145057Y-183400057D02*
X179145057Y-183257200D01*
X179145057Y-183257200D02*
X179073628Y-183114342D01*
X179073628Y-183114342D02*
X179002200Y-183042914D01*
X179002200Y-183042914D02*
X178859342Y-182971485D01*
X178859342Y-182971485D02*
X178573628Y-182900057D01*
X178573628Y-182900057D02*
X178430771Y-182828628D01*
X178430771Y-182828628D02*
X178359342Y-182757200D01*
X178359342Y-182757200D02*
X178287914Y-182614342D01*
X178287914Y-182614342D02*
X178287914Y-182471485D01*
X178287914Y-182471485D02*
X178359342Y-182328628D01*
X178359342Y-182328628D02*
X178430771Y-182257200D01*
X178430771Y-182257200D02*
X178573628Y-182185771D01*
X178573628Y-182185771D02*
X178930771Y-182185771D01*
X178930771Y-182185771D02*
X179145057Y-182257200D01*
X179787913Y-183685771D02*
X179787913Y-182185771D01*
X180430771Y-183685771D02*
X180430771Y-182900057D01*
X180430771Y-182900057D02*
X180359342Y-182757200D01*
X180359342Y-182757200D02*
X180216485Y-182685771D01*
X180216485Y-182685771D02*
X180002199Y-182685771D01*
X180002199Y-182685771D02*
X179859342Y-182757200D01*
X179859342Y-182757200D02*
X179787913Y-182828628D01*
X181716485Y-183614342D02*
X181573628Y-183685771D01*
X181573628Y-183685771D02*
X181287914Y-183685771D01*
X181287914Y-183685771D02*
X181145056Y-183614342D01*
X181145056Y-183614342D02*
X181073628Y-183471485D01*
X181073628Y-183471485D02*
X181073628Y-182900057D01*
X181073628Y-182900057D02*
X181145056Y-182757200D01*
X181145056Y-182757200D02*
X181287914Y-182685771D01*
X181287914Y-182685771D02*
X181573628Y-182685771D01*
X181573628Y-182685771D02*
X181716485Y-182757200D01*
X181716485Y-182757200D02*
X181787914Y-182900057D01*
X181787914Y-182900057D02*
X181787914Y-183042914D01*
X181787914Y-183042914D02*
X181073628Y-183185771D01*
X183002199Y-183614342D02*
X182859342Y-183685771D01*
X182859342Y-183685771D02*
X182573628Y-183685771D01*
X182573628Y-183685771D02*
X182430770Y-183614342D01*
X182430770Y-183614342D02*
X182359342Y-183471485D01*
X182359342Y-183471485D02*
X182359342Y-182900057D01*
X182359342Y-182900057D02*
X182430770Y-182757200D01*
X182430770Y-182757200D02*
X182573628Y-182685771D01*
X182573628Y-182685771D02*
X182859342Y-182685771D01*
X182859342Y-182685771D02*
X183002199Y-182757200D01*
X183002199Y-182757200D02*
X183073628Y-182900057D01*
X183073628Y-182900057D02*
X183073628Y-183042914D01*
X183073628Y-183042914D02*
X182359342Y-183185771D01*
X183502199Y-182685771D02*
X184073627Y-182685771D01*
X183716484Y-182185771D02*
X183716484Y-183471485D01*
X183716484Y-183471485D02*
X183787913Y-183614342D01*
X183787913Y-183614342D02*
X183930770Y-183685771D01*
X183930770Y-183685771D02*
X184073627Y-183685771D01*
X184573627Y-183542914D02*
X184645056Y-183614342D01*
X184645056Y-183614342D02*
X184573627Y-183685771D01*
X184573627Y-183685771D02*
X184502199Y-183614342D01*
X184502199Y-183614342D02*
X184573627Y-183542914D01*
X184573627Y-183542914D02*
X184573627Y-183685771D01*
X184573627Y-182757200D02*
X184645056Y-182828628D01*
X184645056Y-182828628D02*
X184573627Y-182900057D01*
X184573627Y-182900057D02*
X184502199Y-182828628D01*
X184502199Y-182828628D02*
X184573627Y-182757200D01*
X184573627Y-182757200D02*
X184573627Y-182900057D01*
D10*
D12*
D10*
D11*
D10*
D11*
D10*
D11*
D10*
D11*
D10*
D11*
X197002200Y-191507200D02*
X197002200Y-194507200D01*
D10*
D11*
X261002200Y-191507200D02*
X261002200Y-198007200D01*
%TO.C,REF\u002A\u002A*%
X47561666Y-24211380D02*
X47228333Y-23735190D01*
X46990238Y-24211380D02*
X46990238Y-23211380D01*
X46990238Y-23211380D02*
X47371190Y-23211380D01*
X47371190Y-23211380D02*
X47466428Y-23259000D01*
X47466428Y-23259000D02*
X47514047Y-23306619D01*
X47514047Y-23306619D02*
X47561666Y-23401857D01*
X47561666Y-23401857D02*
X47561666Y-23544714D01*
X47561666Y-23544714D02*
X47514047Y-23639952D01*
X47514047Y-23639952D02*
X47466428Y-23687571D01*
X47466428Y-23687571D02*
X47371190Y-23735190D01*
X47371190Y-23735190D02*
X46990238Y-23735190D01*
X47990238Y-23687571D02*
X48323571Y-23687571D01*
X48466428Y-24211380D02*
X47990238Y-24211380D01*
X47990238Y-24211380D02*
X47990238Y-23211380D01*
X47990238Y-23211380D02*
X48466428Y-23211380D01*
X49228333Y-23687571D02*
X48895000Y-23687571D01*
X48895000Y-24211380D02*
X48895000Y-23211380D01*
X48895000Y-23211380D02*
X49371190Y-23211380D01*
X49895000Y-23211380D02*
X49895000Y-23449476D01*
X49656905Y-23354238D02*
X49895000Y-23449476D01*
X49895000Y-23449476D02*
X50133095Y-23354238D01*
X49752143Y-23639952D02*
X49895000Y-23449476D01*
X49895000Y-23449476D02*
X50037857Y-23639952D01*
X50656905Y-23211380D02*
X50656905Y-23449476D01*
X50418810Y-23354238D02*
X50656905Y-23449476D01*
X50656905Y-23449476D02*
X50895000Y-23354238D01*
X50514048Y-23639952D02*
X50656905Y-23449476D01*
X50656905Y-23449476D02*
X50799762Y-23639952D01*
%TO.C,C8*%
X73239333Y-17231142D02*
X73191714Y-17278761D01*
X73191714Y-17278761D02*
X73048857Y-17326380D01*
X73048857Y-17326380D02*
X72953619Y-17326380D01*
X72953619Y-17326380D02*
X72810762Y-17278761D01*
X72810762Y-17278761D02*
X72715524Y-17183523D01*
X72715524Y-17183523D02*
X72667905Y-17088285D01*
X72667905Y-17088285D02*
X72620286Y-16897809D01*
X72620286Y-16897809D02*
X72620286Y-16754952D01*
X72620286Y-16754952D02*
X72667905Y-16564476D01*
X72667905Y-16564476D02*
X72715524Y-16469238D01*
X72715524Y-16469238D02*
X72810762Y-16374000D01*
X72810762Y-16374000D02*
X72953619Y-16326380D01*
X72953619Y-16326380D02*
X73048857Y-16326380D01*
X73048857Y-16326380D02*
X73191714Y-16374000D01*
X73191714Y-16374000D02*
X73239333Y-16421619D01*
X73810762Y-16754952D02*
X73715524Y-16707333D01*
X73715524Y-16707333D02*
X73667905Y-16659714D01*
X73667905Y-16659714D02*
X73620286Y-16564476D01*
X73620286Y-16564476D02*
X73620286Y-16516857D01*
X73620286Y-16516857D02*
X73667905Y-16421619D01*
X73667905Y-16421619D02*
X73715524Y-16374000D01*
X73715524Y-16374000D02*
X73810762Y-16326380D01*
X73810762Y-16326380D02*
X74001238Y-16326380D01*
X74001238Y-16326380D02*
X74096476Y-16374000D01*
X74096476Y-16374000D02*
X74144095Y-16421619D01*
X74144095Y-16421619D02*
X74191714Y-16516857D01*
X74191714Y-16516857D02*
X74191714Y-16564476D01*
X74191714Y-16564476D02*
X74144095Y-16659714D01*
X74144095Y-16659714D02*
X74096476Y-16707333D01*
X74096476Y-16707333D02*
X74001238Y-16754952D01*
X74001238Y-16754952D02*
X73810762Y-16754952D01*
X73810762Y-16754952D02*
X73715524Y-16802571D01*
X73715524Y-16802571D02*
X73667905Y-16850190D01*
X73667905Y-16850190D02*
X73620286Y-16945428D01*
X73620286Y-16945428D02*
X73620286Y-17135904D01*
X73620286Y-17135904D02*
X73667905Y-17231142D01*
X73667905Y-17231142D02*
X73715524Y-17278761D01*
X73715524Y-17278761D02*
X73810762Y-17326380D01*
X73810762Y-17326380D02*
X74001238Y-17326380D01*
X74001238Y-17326380D02*
X74096476Y-17278761D01*
X74096476Y-17278761D02*
X74144095Y-17231142D01*
X74144095Y-17231142D02*
X74191714Y-17135904D01*
X74191714Y-17135904D02*
X74191714Y-16945428D01*
X74191714Y-16945428D02*
X74144095Y-16850190D01*
X74144095Y-16850190D02*
X74096476Y-16802571D01*
X74096476Y-16802571D02*
X74001238Y-16754952D01*
%TO.C,C10*%
X72636142Y-19136142D02*
X72588523Y-19183761D01*
X72588523Y-19183761D02*
X72445666Y-19231380D01*
X72445666Y-19231380D02*
X72350428Y-19231380D01*
X72350428Y-19231380D02*
X72207571Y-19183761D01*
X72207571Y-19183761D02*
X72112333Y-19088523D01*
X72112333Y-19088523D02*
X72064714Y-18993285D01*
X72064714Y-18993285D02*
X72017095Y-18802809D01*
X72017095Y-18802809D02*
X72017095Y-18659952D01*
X72017095Y-18659952D02*
X72064714Y-18469476D01*
X72064714Y-18469476D02*
X72112333Y-18374238D01*
X72112333Y-18374238D02*
X72207571Y-18279000D01*
X72207571Y-18279000D02*
X72350428Y-18231380D01*
X72350428Y-18231380D02*
X72445666Y-18231380D01*
X72445666Y-18231380D02*
X72588523Y-18279000D01*
X72588523Y-18279000D02*
X72636142Y-18326619D01*
X73588523Y-19231380D02*
X73017095Y-19231380D01*
X73302809Y-19231380D02*
X73302809Y-18231380D01*
X73302809Y-18231380D02*
X73207571Y-18374238D01*
X73207571Y-18374238D02*
X73112333Y-18469476D01*
X73112333Y-18469476D02*
X73017095Y-18517095D01*
X74207571Y-18231380D02*
X74302809Y-18231380D01*
X74302809Y-18231380D02*
X74398047Y-18279000D01*
X74398047Y-18279000D02*
X74445666Y-18326619D01*
X74445666Y-18326619D02*
X74493285Y-18421857D01*
X74493285Y-18421857D02*
X74540904Y-18612333D01*
X74540904Y-18612333D02*
X74540904Y-18850428D01*
X74540904Y-18850428D02*
X74493285Y-19040904D01*
X74493285Y-19040904D02*
X74445666Y-19136142D01*
X74445666Y-19136142D02*
X74398047Y-19183761D01*
X74398047Y-19183761D02*
X74302809Y-19231380D01*
X74302809Y-19231380D02*
X74207571Y-19231380D01*
X74207571Y-19231380D02*
X74112333Y-19183761D01*
X74112333Y-19183761D02*
X74064714Y-19136142D01*
X74064714Y-19136142D02*
X74017095Y-19040904D01*
X74017095Y-19040904D02*
X73969476Y-18850428D01*
X73969476Y-18850428D02*
X73969476Y-18612333D01*
X73969476Y-18612333D02*
X74017095Y-18421857D01*
X74017095Y-18421857D02*
X74064714Y-18326619D01*
X74064714Y-18326619D02*
X74112333Y-18279000D01*
X74112333Y-18279000D02*
X74207571Y-18231380D01*
%TO.C,U4*%
X33274095Y-16978380D02*
X33274095Y-17787904D01*
X33274095Y-17787904D02*
X33321714Y-17883142D01*
X33321714Y-17883142D02*
X33369333Y-17930761D01*
X33369333Y-17930761D02*
X33464571Y-17978380D01*
X33464571Y-17978380D02*
X33655047Y-17978380D01*
X33655047Y-17978380D02*
X33750285Y-17930761D01*
X33750285Y-17930761D02*
X33797904Y-17883142D01*
X33797904Y-17883142D02*
X33845523Y-17787904D01*
X33845523Y-17787904D02*
X33845523Y-16978380D01*
X34750285Y-17311714D02*
X34750285Y-17978380D01*
X34512190Y-16930761D02*
X34274095Y-17645047D01*
X34274095Y-17645047D02*
X34893142Y-17645047D01*
%TO.C,U2*%
X37719095Y-34470380D02*
X37719095Y-35279904D01*
X37719095Y-35279904D02*
X37766714Y-35375142D01*
X37766714Y-35375142D02*
X37814333Y-35422761D01*
X37814333Y-35422761D02*
X37909571Y-35470380D01*
X37909571Y-35470380D02*
X38100047Y-35470380D01*
X38100047Y-35470380D02*
X38195285Y-35422761D01*
X38195285Y-35422761D02*
X38242904Y-35375142D01*
X38242904Y-35375142D02*
X38290523Y-35279904D01*
X38290523Y-35279904D02*
X38290523Y-34470380D01*
X38719095Y-34565619D02*
X38766714Y-34518000D01*
X38766714Y-34518000D02*
X38861952Y-34470380D01*
X38861952Y-34470380D02*
X39100047Y-34470380D01*
X39100047Y-34470380D02*
X39195285Y-34518000D01*
X39195285Y-34518000D02*
X39242904Y-34565619D01*
X39242904Y-34565619D02*
X39290523Y-34660857D01*
X39290523Y-34660857D02*
X39290523Y-34756095D01*
X39290523Y-34756095D02*
X39242904Y-34898952D01*
X39242904Y-34898952D02*
X38671476Y-35470380D01*
X38671476Y-35470380D02*
X39290523Y-35470380D01*
%TO.C,C16*%
X37203142Y-55585142D02*
X37155523Y-55632761D01*
X37155523Y-55632761D02*
X37012666Y-55680380D01*
X37012666Y-55680380D02*
X36917428Y-55680380D01*
X36917428Y-55680380D02*
X36774571Y-55632761D01*
X36774571Y-55632761D02*
X36679333Y-55537523D01*
X36679333Y-55537523D02*
X36631714Y-55442285D01*
X36631714Y-55442285D02*
X36584095Y-55251809D01*
X36584095Y-55251809D02*
X36584095Y-55108952D01*
X36584095Y-55108952D02*
X36631714Y-54918476D01*
X36631714Y-54918476D02*
X36679333Y-54823238D01*
X36679333Y-54823238D02*
X36774571Y-54728000D01*
X36774571Y-54728000D02*
X36917428Y-54680380D01*
X36917428Y-54680380D02*
X37012666Y-54680380D01*
X37012666Y-54680380D02*
X37155523Y-54728000D01*
X37155523Y-54728000D02*
X37203142Y-54775619D01*
X38155523Y-55680380D02*
X37584095Y-55680380D01*
X37869809Y-55680380D02*
X37869809Y-54680380D01*
X37869809Y-54680380D02*
X37774571Y-54823238D01*
X37774571Y-54823238D02*
X37679333Y-54918476D01*
X37679333Y-54918476D02*
X37584095Y-54966095D01*
X39012666Y-54680380D02*
X38822190Y-54680380D01*
X38822190Y-54680380D02*
X38726952Y-54728000D01*
X38726952Y-54728000D02*
X38679333Y-54775619D01*
X38679333Y-54775619D02*
X38584095Y-54918476D01*
X38584095Y-54918476D02*
X38536476Y-55108952D01*
X38536476Y-55108952D02*
X38536476Y-55489904D01*
X38536476Y-55489904D02*
X38584095Y-55585142D01*
X38584095Y-55585142D02*
X38631714Y-55632761D01*
X38631714Y-55632761D02*
X38726952Y-55680380D01*
X38726952Y-55680380D02*
X38917428Y-55680380D01*
X38917428Y-55680380D02*
X39012666Y-55632761D01*
X39012666Y-55632761D02*
X39060285Y-55585142D01*
X39060285Y-55585142D02*
X39107904Y-55489904D01*
X39107904Y-55489904D02*
X39107904Y-55251809D01*
X39107904Y-55251809D02*
X39060285Y-55156571D01*
X39060285Y-55156571D02*
X39012666Y-55108952D01*
X39012666Y-55108952D02*
X38917428Y-55061333D01*
X38917428Y-55061333D02*
X38726952Y-55061333D01*
X38726952Y-55061333D02*
X38631714Y-55108952D01*
X38631714Y-55108952D02*
X38584095Y-55156571D01*
X38584095Y-55156571D02*
X38536476Y-55251809D01*
%TO.C,C15*%
X37330142Y-51521142D02*
X37282523Y-51568761D01*
X37282523Y-51568761D02*
X37139666Y-51616380D01*
X37139666Y-51616380D02*
X37044428Y-51616380D01*
X37044428Y-51616380D02*
X36901571Y-51568761D01*
X36901571Y-51568761D02*
X36806333Y-51473523D01*
X36806333Y-51473523D02*
X36758714Y-51378285D01*
X36758714Y-51378285D02*
X36711095Y-51187809D01*
X36711095Y-51187809D02*
X36711095Y-51044952D01*
X36711095Y-51044952D02*
X36758714Y-50854476D01*
X36758714Y-50854476D02*
X36806333Y-50759238D01*
X36806333Y-50759238D02*
X36901571Y-50664000D01*
X36901571Y-50664000D02*
X37044428Y-50616380D01*
X37044428Y-50616380D02*
X37139666Y-50616380D01*
X37139666Y-50616380D02*
X37282523Y-50664000D01*
X37282523Y-50664000D02*
X37330142Y-50711619D01*
X38282523Y-51616380D02*
X37711095Y-51616380D01*
X37996809Y-51616380D02*
X37996809Y-50616380D01*
X37996809Y-50616380D02*
X37901571Y-50759238D01*
X37901571Y-50759238D02*
X37806333Y-50854476D01*
X37806333Y-50854476D02*
X37711095Y-50902095D01*
X39187285Y-50616380D02*
X38711095Y-50616380D01*
X38711095Y-50616380D02*
X38663476Y-51092571D01*
X38663476Y-51092571D02*
X38711095Y-51044952D01*
X38711095Y-51044952D02*
X38806333Y-50997333D01*
X38806333Y-50997333D02*
X39044428Y-50997333D01*
X39044428Y-50997333D02*
X39139666Y-51044952D01*
X39139666Y-51044952D02*
X39187285Y-51092571D01*
X39187285Y-51092571D02*
X39234904Y-51187809D01*
X39234904Y-51187809D02*
X39234904Y-51425904D01*
X39234904Y-51425904D02*
X39187285Y-51521142D01*
X39187285Y-51521142D02*
X39139666Y-51568761D01*
X39139666Y-51568761D02*
X39044428Y-51616380D01*
X39044428Y-51616380D02*
X38806333Y-51616380D01*
X38806333Y-51616380D02*
X38711095Y-51568761D01*
X38711095Y-51568761D02*
X38663476Y-51521142D01*
%TO.C,Y2*%
X43410190Y-55086190D02*
X43886380Y-55086190D01*
X42886380Y-55419523D02*
X43410190Y-55086190D01*
X43410190Y-55086190D02*
X42886380Y-54752857D01*
X42981619Y-54467142D02*
X42934000Y-54419523D01*
X42934000Y-54419523D02*
X42886380Y-54324285D01*
X42886380Y-54324285D02*
X42886380Y-54086190D01*
X42886380Y-54086190D02*
X42934000Y-53990952D01*
X42934000Y-53990952D02*
X42981619Y-53943333D01*
X42981619Y-53943333D02*
X43076857Y-53895714D01*
X43076857Y-53895714D02*
X43172095Y-53895714D01*
X43172095Y-53895714D02*
X43314952Y-53943333D01*
X43314952Y-53943333D02*
X43886380Y-54514761D01*
X43886380Y-54514761D02*
X43886380Y-53895714D01*
%TO.C,C14*%
X46696285Y-52709714D02*
X46724857Y-52738286D01*
X46724857Y-52738286D02*
X46753428Y-52824000D01*
X46753428Y-52824000D02*
X46753428Y-52881143D01*
X46753428Y-52881143D02*
X46724857Y-52966857D01*
X46724857Y-52966857D02*
X46667714Y-53024000D01*
X46667714Y-53024000D02*
X46610571Y-53052571D01*
X46610571Y-53052571D02*
X46496285Y-53081143D01*
X46496285Y-53081143D02*
X46410571Y-53081143D01*
X46410571Y-53081143D02*
X46296285Y-53052571D01*
X46296285Y-53052571D02*
X46239142Y-53024000D01*
X46239142Y-53024000D02*
X46182000Y-52966857D01*
X46182000Y-52966857D02*
X46153428Y-52881143D01*
X46153428Y-52881143D02*
X46153428Y-52824000D01*
X46153428Y-52824000D02*
X46182000Y-52738286D01*
X46182000Y-52738286D02*
X46210571Y-52709714D01*
X46753428Y-52138286D02*
X46753428Y-52481143D01*
X46753428Y-52309714D02*
X46153428Y-52309714D01*
X46153428Y-52309714D02*
X46239142Y-52366857D01*
X46239142Y-52366857D02*
X46296285Y-52424000D01*
X46296285Y-52424000D02*
X46324857Y-52481143D01*
X46353428Y-51624000D02*
X46753428Y-51624000D01*
X46124857Y-51766857D02*
X46553428Y-51909714D01*
X46553428Y-51909714D02*
X46553428Y-51538285D01*
%TO.C,U3*%
X50897380Y-57784904D02*
X51706904Y-57784904D01*
X51706904Y-57784904D02*
X51802142Y-57737285D01*
X51802142Y-57737285D02*
X51849761Y-57689666D01*
X51849761Y-57689666D02*
X51897380Y-57594428D01*
X51897380Y-57594428D02*
X51897380Y-57403952D01*
X51897380Y-57403952D02*
X51849761Y-57308714D01*
X51849761Y-57308714D02*
X51802142Y-57261095D01*
X51802142Y-57261095D02*
X51706904Y-57213476D01*
X51706904Y-57213476D02*
X50897380Y-57213476D01*
X50897380Y-56832523D02*
X50897380Y-56213476D01*
X50897380Y-56213476D02*
X51278333Y-56546809D01*
X51278333Y-56546809D02*
X51278333Y-56403952D01*
X51278333Y-56403952D02*
X51325952Y-56308714D01*
X51325952Y-56308714D02*
X51373571Y-56261095D01*
X51373571Y-56261095D02*
X51468809Y-56213476D01*
X51468809Y-56213476D02*
X51706904Y-56213476D01*
X51706904Y-56213476D02*
X51802142Y-56261095D01*
X51802142Y-56261095D02*
X51849761Y-56308714D01*
X51849761Y-56308714D02*
X51897380Y-56403952D01*
X51897380Y-56403952D02*
X51897380Y-56689666D01*
X51897380Y-56689666D02*
X51849761Y-56784904D01*
X51849761Y-56784904D02*
X51802142Y-56832523D01*
%TO.C,R12*%
X49928428Y-52863355D02*
X49642714Y-53063355D01*
X49928428Y-53206212D02*
X49328428Y-53206212D01*
X49328428Y-53206212D02*
X49328428Y-52977641D01*
X49328428Y-52977641D02*
X49357000Y-52920498D01*
X49357000Y-52920498D02*
X49385571Y-52891927D01*
X49385571Y-52891927D02*
X49442714Y-52863355D01*
X49442714Y-52863355D02*
X49528428Y-52863355D01*
X49528428Y-52863355D02*
X49585571Y-52891927D01*
X49585571Y-52891927D02*
X49614142Y-52920498D01*
X49614142Y-52920498D02*
X49642714Y-52977641D01*
X49642714Y-52977641D02*
X49642714Y-53206212D01*
X49928428Y-52291927D02*
X49928428Y-52634784D01*
X49928428Y-52463355D02*
X49328428Y-52463355D01*
X49328428Y-52463355D02*
X49414142Y-52520498D01*
X49414142Y-52520498D02*
X49471285Y-52577641D01*
X49471285Y-52577641D02*
X49499857Y-52634784D01*
X49385571Y-52063355D02*
X49357000Y-52034783D01*
X49357000Y-52034783D02*
X49328428Y-51977641D01*
X49328428Y-51977641D02*
X49328428Y-51834783D01*
X49328428Y-51834783D02*
X49357000Y-51777641D01*
X49357000Y-51777641D02*
X49385571Y-51749069D01*
X49385571Y-51749069D02*
X49442714Y-51720498D01*
X49442714Y-51720498D02*
X49499857Y-51720498D01*
X49499857Y-51720498D02*
X49585571Y-51749069D01*
X49585571Y-51749069D02*
X49928428Y-52091926D01*
X49928428Y-52091926D02*
X49928428Y-51720498D01*
%TO.C,R9*%
X33953380Y-23407666D02*
X33477190Y-23740999D01*
X33953380Y-23979094D02*
X32953380Y-23979094D01*
X32953380Y-23979094D02*
X32953380Y-23598142D01*
X32953380Y-23598142D02*
X33001000Y-23502904D01*
X33001000Y-23502904D02*
X33048619Y-23455285D01*
X33048619Y-23455285D02*
X33143857Y-23407666D01*
X33143857Y-23407666D02*
X33286714Y-23407666D01*
X33286714Y-23407666D02*
X33381952Y-23455285D01*
X33381952Y-23455285D02*
X33429571Y-23502904D01*
X33429571Y-23502904D02*
X33477190Y-23598142D01*
X33477190Y-23598142D02*
X33477190Y-23979094D01*
X33953380Y-22931475D02*
X33953380Y-22740999D01*
X33953380Y-22740999D02*
X33905761Y-22645761D01*
X33905761Y-22645761D02*
X33858142Y-22598142D01*
X33858142Y-22598142D02*
X33715285Y-22502904D01*
X33715285Y-22502904D02*
X33524809Y-22455285D01*
X33524809Y-22455285D02*
X33143857Y-22455285D01*
X33143857Y-22455285D02*
X33048619Y-22502904D01*
X33048619Y-22502904D02*
X33001000Y-22550523D01*
X33001000Y-22550523D02*
X32953380Y-22645761D01*
X32953380Y-22645761D02*
X32953380Y-22836237D01*
X32953380Y-22836237D02*
X33001000Y-22931475D01*
X33001000Y-22931475D02*
X33048619Y-22979094D01*
X33048619Y-22979094D02*
X33143857Y-23026713D01*
X33143857Y-23026713D02*
X33381952Y-23026713D01*
X33381952Y-23026713D02*
X33477190Y-22979094D01*
X33477190Y-22979094D02*
X33524809Y-22931475D01*
X33524809Y-22931475D02*
X33572428Y-22836237D01*
X33572428Y-22836237D02*
X33572428Y-22645761D01*
X33572428Y-22645761D02*
X33524809Y-22550523D01*
X33524809Y-22550523D02*
X33477190Y-22502904D01*
X33477190Y-22502904D02*
X33381952Y-22455285D01*
%TO.C,C9*%
X64730333Y-32725142D02*
X64682714Y-32772761D01*
X64682714Y-32772761D02*
X64539857Y-32820380D01*
X64539857Y-32820380D02*
X64444619Y-32820380D01*
X64444619Y-32820380D02*
X64301762Y-32772761D01*
X64301762Y-32772761D02*
X64206524Y-32677523D01*
X64206524Y-32677523D02*
X64158905Y-32582285D01*
X64158905Y-32582285D02*
X64111286Y-32391809D01*
X64111286Y-32391809D02*
X64111286Y-32248952D01*
X64111286Y-32248952D02*
X64158905Y-32058476D01*
X64158905Y-32058476D02*
X64206524Y-31963238D01*
X64206524Y-31963238D02*
X64301762Y-31868000D01*
X64301762Y-31868000D02*
X64444619Y-31820380D01*
X64444619Y-31820380D02*
X64539857Y-31820380D01*
X64539857Y-31820380D02*
X64682714Y-31868000D01*
X64682714Y-31868000D02*
X64730333Y-31915619D01*
X65206524Y-32820380D02*
X65397000Y-32820380D01*
X65397000Y-32820380D02*
X65492238Y-32772761D01*
X65492238Y-32772761D02*
X65539857Y-32725142D01*
X65539857Y-32725142D02*
X65635095Y-32582285D01*
X65635095Y-32582285D02*
X65682714Y-32391809D01*
X65682714Y-32391809D02*
X65682714Y-32010857D01*
X65682714Y-32010857D02*
X65635095Y-31915619D01*
X65635095Y-31915619D02*
X65587476Y-31868000D01*
X65587476Y-31868000D02*
X65492238Y-31820380D01*
X65492238Y-31820380D02*
X65301762Y-31820380D01*
X65301762Y-31820380D02*
X65206524Y-31868000D01*
X65206524Y-31868000D02*
X65158905Y-31915619D01*
X65158905Y-31915619D02*
X65111286Y-32010857D01*
X65111286Y-32010857D02*
X65111286Y-32248952D01*
X65111286Y-32248952D02*
X65158905Y-32344190D01*
X65158905Y-32344190D02*
X65206524Y-32391809D01*
X65206524Y-32391809D02*
X65301762Y-32439428D01*
X65301762Y-32439428D02*
X65492238Y-32439428D01*
X65492238Y-32439428D02*
X65587476Y-32391809D01*
X65587476Y-32391809D02*
X65635095Y-32344190D01*
X65635095Y-32344190D02*
X65682714Y-32248952D01*
%TO.C,C11*%
X61079142Y-32090142D02*
X61031523Y-32137761D01*
X61031523Y-32137761D02*
X60888666Y-32185380D01*
X60888666Y-32185380D02*
X60793428Y-32185380D01*
X60793428Y-32185380D02*
X60650571Y-32137761D01*
X60650571Y-32137761D02*
X60555333Y-32042523D01*
X60555333Y-32042523D02*
X60507714Y-31947285D01*
X60507714Y-31947285D02*
X60460095Y-31756809D01*
X60460095Y-31756809D02*
X60460095Y-31613952D01*
X60460095Y-31613952D02*
X60507714Y-31423476D01*
X60507714Y-31423476D02*
X60555333Y-31328238D01*
X60555333Y-31328238D02*
X60650571Y-31233000D01*
X60650571Y-31233000D02*
X60793428Y-31185380D01*
X60793428Y-31185380D02*
X60888666Y-31185380D01*
X60888666Y-31185380D02*
X61031523Y-31233000D01*
X61031523Y-31233000D02*
X61079142Y-31280619D01*
X62031523Y-32185380D02*
X61460095Y-32185380D01*
X61745809Y-32185380D02*
X61745809Y-31185380D01*
X61745809Y-31185380D02*
X61650571Y-31328238D01*
X61650571Y-31328238D02*
X61555333Y-31423476D01*
X61555333Y-31423476D02*
X61460095Y-31471095D01*
X62983904Y-32185380D02*
X62412476Y-32185380D01*
X62698190Y-32185380D02*
X62698190Y-31185380D01*
X62698190Y-31185380D02*
X62602952Y-31328238D01*
X62602952Y-31328238D02*
X62507714Y-31423476D01*
X62507714Y-31423476D02*
X62412476Y-31471095D01*
%TO.C,R7*%
X30313333Y-34488380D02*
X29980000Y-34012190D01*
X29741905Y-34488380D02*
X29741905Y-33488380D01*
X29741905Y-33488380D02*
X30122857Y-33488380D01*
X30122857Y-33488380D02*
X30218095Y-33536000D01*
X30218095Y-33536000D02*
X30265714Y-33583619D01*
X30265714Y-33583619D02*
X30313333Y-33678857D01*
X30313333Y-33678857D02*
X30313333Y-33821714D01*
X30313333Y-33821714D02*
X30265714Y-33916952D01*
X30265714Y-33916952D02*
X30218095Y-33964571D01*
X30218095Y-33964571D02*
X30122857Y-34012190D01*
X30122857Y-34012190D02*
X29741905Y-34012190D01*
X30646667Y-33488380D02*
X31313333Y-33488380D01*
X31313333Y-33488380D02*
X30884762Y-34488380D01*
%TO.C,R4*%
X45172333Y-35885380D02*
X44839000Y-35409190D01*
X44600905Y-35885380D02*
X44600905Y-34885380D01*
X44600905Y-34885380D02*
X44981857Y-34885380D01*
X44981857Y-34885380D02*
X45077095Y-34933000D01*
X45077095Y-34933000D02*
X45124714Y-34980619D01*
X45124714Y-34980619D02*
X45172333Y-35075857D01*
X45172333Y-35075857D02*
X45172333Y-35218714D01*
X45172333Y-35218714D02*
X45124714Y-35313952D01*
X45124714Y-35313952D02*
X45077095Y-35361571D01*
X45077095Y-35361571D02*
X44981857Y-35409190D01*
X44981857Y-35409190D02*
X44600905Y-35409190D01*
X46029476Y-35218714D02*
X46029476Y-35885380D01*
X45791381Y-34837761D02*
X45553286Y-35552047D01*
X45553286Y-35552047D02*
X46172333Y-35552047D01*
%TO.C,C4*%
X42885142Y-41568666D02*
X42932761Y-41616285D01*
X42932761Y-41616285D02*
X42980380Y-41759142D01*
X42980380Y-41759142D02*
X42980380Y-41854380D01*
X42980380Y-41854380D02*
X42932761Y-41997237D01*
X42932761Y-41997237D02*
X42837523Y-42092475D01*
X42837523Y-42092475D02*
X42742285Y-42140094D01*
X42742285Y-42140094D02*
X42551809Y-42187713D01*
X42551809Y-42187713D02*
X42408952Y-42187713D01*
X42408952Y-42187713D02*
X42218476Y-42140094D01*
X42218476Y-42140094D02*
X42123238Y-42092475D01*
X42123238Y-42092475D02*
X42028000Y-41997237D01*
X42028000Y-41997237D02*
X41980380Y-41854380D01*
X41980380Y-41854380D02*
X41980380Y-41759142D01*
X41980380Y-41759142D02*
X42028000Y-41616285D01*
X42028000Y-41616285D02*
X42075619Y-41568666D01*
X42313714Y-40711523D02*
X42980380Y-40711523D01*
X41932761Y-40949618D02*
X42647047Y-41187713D01*
X42647047Y-41187713D02*
X42647047Y-40568666D01*
%TO.C,C5*%
X38821142Y-41568666D02*
X38868761Y-41616285D01*
X38868761Y-41616285D02*
X38916380Y-41759142D01*
X38916380Y-41759142D02*
X38916380Y-41854380D01*
X38916380Y-41854380D02*
X38868761Y-41997237D01*
X38868761Y-41997237D02*
X38773523Y-42092475D01*
X38773523Y-42092475D02*
X38678285Y-42140094D01*
X38678285Y-42140094D02*
X38487809Y-42187713D01*
X38487809Y-42187713D02*
X38344952Y-42187713D01*
X38344952Y-42187713D02*
X38154476Y-42140094D01*
X38154476Y-42140094D02*
X38059238Y-42092475D01*
X38059238Y-42092475D02*
X37964000Y-41997237D01*
X37964000Y-41997237D02*
X37916380Y-41854380D01*
X37916380Y-41854380D02*
X37916380Y-41759142D01*
X37916380Y-41759142D02*
X37964000Y-41616285D01*
X37964000Y-41616285D02*
X38011619Y-41568666D01*
X37916380Y-40663904D02*
X37916380Y-41140094D01*
X37916380Y-41140094D02*
X38392571Y-41187713D01*
X38392571Y-41187713D02*
X38344952Y-41140094D01*
X38344952Y-41140094D02*
X38297333Y-41044856D01*
X38297333Y-41044856D02*
X38297333Y-40806761D01*
X38297333Y-40806761D02*
X38344952Y-40711523D01*
X38344952Y-40711523D02*
X38392571Y-40663904D01*
X38392571Y-40663904D02*
X38487809Y-40616285D01*
X38487809Y-40616285D02*
X38725904Y-40616285D01*
X38725904Y-40616285D02*
X38821142Y-40663904D01*
X38821142Y-40663904D02*
X38868761Y-40711523D01*
X38868761Y-40711523D02*
X38916380Y-40806761D01*
X38916380Y-40806761D02*
X38916380Y-41044856D01*
X38916380Y-41044856D02*
X38868761Y-41140094D01*
X38868761Y-41140094D02*
X38821142Y-41187713D01*
%TO.C,R1*%
X41743333Y-36012380D02*
X41410000Y-35536190D01*
X41171905Y-36012380D02*
X41171905Y-35012380D01*
X41171905Y-35012380D02*
X41552857Y-35012380D01*
X41552857Y-35012380D02*
X41648095Y-35060000D01*
X41648095Y-35060000D02*
X41695714Y-35107619D01*
X41695714Y-35107619D02*
X41743333Y-35202857D01*
X41743333Y-35202857D02*
X41743333Y-35345714D01*
X41743333Y-35345714D02*
X41695714Y-35440952D01*
X41695714Y-35440952D02*
X41648095Y-35488571D01*
X41648095Y-35488571D02*
X41552857Y-35536190D01*
X41552857Y-35536190D02*
X41171905Y-35536190D01*
X42695714Y-36012380D02*
X42124286Y-36012380D01*
X42410000Y-36012380D02*
X42410000Y-35012380D01*
X42410000Y-35012380D02*
X42314762Y-35155238D01*
X42314762Y-35155238D02*
X42219524Y-35250476D01*
X42219524Y-35250476D02*
X42124286Y-35298095D01*
%TO.C,Y1*%
X43719809Y-36667690D02*
X43719809Y-37143880D01*
X43386476Y-36143880D02*
X43719809Y-36667690D01*
X43719809Y-36667690D02*
X44053142Y-36143880D01*
X44910285Y-37143880D02*
X44338857Y-37143880D01*
X44624571Y-37143880D02*
X44624571Y-36143880D01*
X44624571Y-36143880D02*
X44529333Y-36286738D01*
X44529333Y-36286738D02*
X44434095Y-36381976D01*
X44434095Y-36381976D02*
X44338857Y-36429595D01*
%TO.C,C3*%
X27011333Y-41886142D02*
X26963714Y-41933761D01*
X26963714Y-41933761D02*
X26820857Y-41981380D01*
X26820857Y-41981380D02*
X26725619Y-41981380D01*
X26725619Y-41981380D02*
X26582762Y-41933761D01*
X26582762Y-41933761D02*
X26487524Y-41838523D01*
X26487524Y-41838523D02*
X26439905Y-41743285D01*
X26439905Y-41743285D02*
X26392286Y-41552809D01*
X26392286Y-41552809D02*
X26392286Y-41409952D01*
X26392286Y-41409952D02*
X26439905Y-41219476D01*
X26439905Y-41219476D02*
X26487524Y-41124238D01*
X26487524Y-41124238D02*
X26582762Y-41029000D01*
X26582762Y-41029000D02*
X26725619Y-40981380D01*
X26725619Y-40981380D02*
X26820857Y-40981380D01*
X26820857Y-40981380D02*
X26963714Y-41029000D01*
X26963714Y-41029000D02*
X27011333Y-41076619D01*
X27344667Y-40981380D02*
X27963714Y-40981380D01*
X27963714Y-40981380D02*
X27630381Y-41362333D01*
X27630381Y-41362333D02*
X27773238Y-41362333D01*
X27773238Y-41362333D02*
X27868476Y-41409952D01*
X27868476Y-41409952D02*
X27916095Y-41457571D01*
X27916095Y-41457571D02*
X27963714Y-41552809D01*
X27963714Y-41552809D02*
X27963714Y-41790904D01*
X27963714Y-41790904D02*
X27916095Y-41886142D01*
X27916095Y-41886142D02*
X27868476Y-41933761D01*
X27868476Y-41933761D02*
X27773238Y-41981380D01*
X27773238Y-41981380D02*
X27487524Y-41981380D01*
X27487524Y-41981380D02*
X27392286Y-41933761D01*
X27392286Y-41933761D02*
X27344667Y-41886142D01*
%TO.C,L1*%
X35410380Y-40044666D02*
X35410380Y-40520856D01*
X35410380Y-40520856D02*
X34410380Y-40520856D01*
X35410380Y-39187523D02*
X35410380Y-39758951D01*
X35410380Y-39473237D02*
X34410380Y-39473237D01*
X34410380Y-39473237D02*
X34553238Y-39568475D01*
X34553238Y-39568475D02*
X34648476Y-39663713D01*
X34648476Y-39663713D02*
X34696095Y-39758951D01*
%TO.C,C1*%
X27519333Y-37281142D02*
X27471714Y-37328761D01*
X27471714Y-37328761D02*
X27328857Y-37376380D01*
X27328857Y-37376380D02*
X27233619Y-37376380D01*
X27233619Y-37376380D02*
X27090762Y-37328761D01*
X27090762Y-37328761D02*
X26995524Y-37233523D01*
X26995524Y-37233523D02*
X26947905Y-37138285D01*
X26947905Y-37138285D02*
X26900286Y-36947809D01*
X26900286Y-36947809D02*
X26900286Y-36804952D01*
X26900286Y-36804952D02*
X26947905Y-36614476D01*
X26947905Y-36614476D02*
X26995524Y-36519238D01*
X26995524Y-36519238D02*
X27090762Y-36424000D01*
X27090762Y-36424000D02*
X27233619Y-36376380D01*
X27233619Y-36376380D02*
X27328857Y-36376380D01*
X27328857Y-36376380D02*
X27471714Y-36424000D01*
X27471714Y-36424000D02*
X27519333Y-36471619D01*
X28471714Y-37376380D02*
X27900286Y-37376380D01*
X28186000Y-37376380D02*
X28186000Y-36376380D01*
X28186000Y-36376380D02*
X28090762Y-36519238D01*
X28090762Y-36519238D02*
X27995524Y-36614476D01*
X27995524Y-36614476D02*
X27900286Y-36662095D01*
%TO.C,U1*%
X30480095Y-35475380D02*
X30480095Y-36284904D01*
X30480095Y-36284904D02*
X30527714Y-36380142D01*
X30527714Y-36380142D02*
X30575333Y-36427761D01*
X30575333Y-36427761D02*
X30670571Y-36475380D01*
X30670571Y-36475380D02*
X30861047Y-36475380D01*
X30861047Y-36475380D02*
X30956285Y-36427761D01*
X30956285Y-36427761D02*
X31003904Y-36380142D01*
X31003904Y-36380142D02*
X31051523Y-36284904D01*
X31051523Y-36284904D02*
X31051523Y-35475380D01*
X32051523Y-36475380D02*
X31480095Y-36475380D01*
X31765809Y-36475380D02*
X31765809Y-35475380D01*
X31765809Y-35475380D02*
X31670571Y-35618238D01*
X31670571Y-35618238D02*
X31575333Y-35713476D01*
X31575333Y-35713476D02*
X31480095Y-35761095D01*
%TO.C,SW1*%
X36732167Y-43636761D02*
X36875024Y-43684380D01*
X36875024Y-43684380D02*
X37113119Y-43684380D01*
X37113119Y-43684380D02*
X37208357Y-43636761D01*
X37208357Y-43636761D02*
X37255976Y-43589142D01*
X37255976Y-43589142D02*
X37303595Y-43493904D01*
X37303595Y-43493904D02*
X37303595Y-43398666D01*
X37303595Y-43398666D02*
X37255976Y-43303428D01*
X37255976Y-43303428D02*
X37208357Y-43255809D01*
X37208357Y-43255809D02*
X37113119Y-43208190D01*
X37113119Y-43208190D02*
X36922643Y-43160571D01*
X36922643Y-43160571D02*
X36827405Y-43112952D01*
X36827405Y-43112952D02*
X36779786Y-43065333D01*
X36779786Y-43065333D02*
X36732167Y-42970095D01*
X36732167Y-42970095D02*
X36732167Y-42874857D01*
X36732167Y-42874857D02*
X36779786Y-42779619D01*
X36779786Y-42779619D02*
X36827405Y-42732000D01*
X36827405Y-42732000D02*
X36922643Y-42684380D01*
X36922643Y-42684380D02*
X37160738Y-42684380D01*
X37160738Y-42684380D02*
X37303595Y-42732000D01*
X37636929Y-42684380D02*
X37875024Y-43684380D01*
X37875024Y-43684380D02*
X38065500Y-42970095D01*
X38065500Y-42970095D02*
X38255976Y-43684380D01*
X38255976Y-43684380D02*
X38494072Y-42684380D01*
X39398833Y-43684380D02*
X38827405Y-43684380D01*
X39113119Y-43684380D02*
X39113119Y-42684380D01*
X39113119Y-42684380D02*
X39017881Y-42827238D01*
X39017881Y-42827238D02*
X38922643Y-42922476D01*
X38922643Y-42922476D02*
X38827405Y-42970095D01*
%TO.C,R3*%
X32456380Y-29630666D02*
X31980190Y-29963999D01*
X32456380Y-30202094D02*
X31456380Y-30202094D01*
X31456380Y-30202094D02*
X31456380Y-29821142D01*
X31456380Y-29821142D02*
X31504000Y-29725904D01*
X31504000Y-29725904D02*
X31551619Y-29678285D01*
X31551619Y-29678285D02*
X31646857Y-29630666D01*
X31646857Y-29630666D02*
X31789714Y-29630666D01*
X31789714Y-29630666D02*
X31884952Y-29678285D01*
X31884952Y-29678285D02*
X31932571Y-29725904D01*
X31932571Y-29725904D02*
X31980190Y-29821142D01*
X31980190Y-29821142D02*
X31980190Y-30202094D01*
X31456380Y-29297332D02*
X31456380Y-28678285D01*
X31456380Y-28678285D02*
X31837333Y-29011618D01*
X31837333Y-29011618D02*
X31837333Y-28868761D01*
X31837333Y-28868761D02*
X31884952Y-28773523D01*
X31884952Y-28773523D02*
X31932571Y-28725904D01*
X31932571Y-28725904D02*
X32027809Y-28678285D01*
X32027809Y-28678285D02*
X32265904Y-28678285D01*
X32265904Y-28678285D02*
X32361142Y-28725904D01*
X32361142Y-28725904D02*
X32408761Y-28773523D01*
X32408761Y-28773523D02*
X32456380Y-28868761D01*
X32456380Y-28868761D02*
X32456380Y-29154475D01*
X32456380Y-29154475D02*
X32408761Y-29249713D01*
X32408761Y-29249713D02*
X32361142Y-29297332D01*
%TO.C,R2*%
X31329333Y-31407380D02*
X30996000Y-30931190D01*
X30757905Y-31407380D02*
X30757905Y-30407380D01*
X30757905Y-30407380D02*
X31138857Y-30407380D01*
X31138857Y-30407380D02*
X31234095Y-30455000D01*
X31234095Y-30455000D02*
X31281714Y-30502619D01*
X31281714Y-30502619D02*
X31329333Y-30597857D01*
X31329333Y-30597857D02*
X31329333Y-30740714D01*
X31329333Y-30740714D02*
X31281714Y-30835952D01*
X31281714Y-30835952D02*
X31234095Y-30883571D01*
X31234095Y-30883571D02*
X31138857Y-30931190D01*
X31138857Y-30931190D02*
X30757905Y-30931190D01*
X31710286Y-30502619D02*
X31757905Y-30455000D01*
X31757905Y-30455000D02*
X31853143Y-30407380D01*
X31853143Y-30407380D02*
X32091238Y-30407380D01*
X32091238Y-30407380D02*
X32186476Y-30455000D01*
X32186476Y-30455000D02*
X32234095Y-30502619D01*
X32234095Y-30502619D02*
X32281714Y-30597857D01*
X32281714Y-30597857D02*
X32281714Y-30693095D01*
X32281714Y-30693095D02*
X32234095Y-30835952D01*
X32234095Y-30835952D02*
X31662667Y-31407380D01*
X31662667Y-31407380D02*
X32281714Y-31407380D01*
%TO.C,F1*%
X26971666Y-25549571D02*
X26638333Y-25549571D01*
X26638333Y-26073380D02*
X26638333Y-25073380D01*
X26638333Y-25073380D02*
X27114523Y-25073380D01*
X28019285Y-26073380D02*
X27447857Y-26073380D01*
X27733571Y-26073380D02*
X27733571Y-25073380D01*
X27733571Y-25073380D02*
X27638333Y-25216238D01*
X27638333Y-25216238D02*
X27543095Y-25311476D01*
X27543095Y-25311476D02*
X27447857Y-25359095D01*
%TO.C,C2*%
X22295142Y-28487666D02*
X22342761Y-28535285D01*
X22342761Y-28535285D02*
X22390380Y-28678142D01*
X22390380Y-28678142D02*
X22390380Y-28773380D01*
X22390380Y-28773380D02*
X22342761Y-28916237D01*
X22342761Y-28916237D02*
X22247523Y-29011475D01*
X22247523Y-29011475D02*
X22152285Y-29059094D01*
X22152285Y-29059094D02*
X21961809Y-29106713D01*
X21961809Y-29106713D02*
X21818952Y-29106713D01*
X21818952Y-29106713D02*
X21628476Y-29059094D01*
X21628476Y-29059094D02*
X21533238Y-29011475D01*
X21533238Y-29011475D02*
X21438000Y-28916237D01*
X21438000Y-28916237D02*
X21390380Y-28773380D01*
X21390380Y-28773380D02*
X21390380Y-28678142D01*
X21390380Y-28678142D02*
X21438000Y-28535285D01*
X21438000Y-28535285D02*
X21485619Y-28487666D01*
X21485619Y-28106713D02*
X21438000Y-28059094D01*
X21438000Y-28059094D02*
X21390380Y-27963856D01*
X21390380Y-27963856D02*
X21390380Y-27725761D01*
X21390380Y-27725761D02*
X21438000Y-27630523D01*
X21438000Y-27630523D02*
X21485619Y-27582904D01*
X21485619Y-27582904D02*
X21580857Y-27535285D01*
X21580857Y-27535285D02*
X21676095Y-27535285D01*
X21676095Y-27535285D02*
X21818952Y-27582904D01*
X21818952Y-27582904D02*
X22390380Y-28154332D01*
X22390380Y-28154332D02*
X22390380Y-27535285D01*
%TO.C,J2*%
X82851666Y-28784380D02*
X82851666Y-29498666D01*
X82851666Y-29498666D02*
X82804047Y-29641523D01*
X82804047Y-29641523D02*
X82708809Y-29736761D01*
X82708809Y-29736761D02*
X82565952Y-29784380D01*
X82565952Y-29784380D02*
X82470714Y-29784380D01*
X83280238Y-28879619D02*
X83327857Y-28832000D01*
X83327857Y-28832000D02*
X83423095Y-28784380D01*
X83423095Y-28784380D02*
X83661190Y-28784380D01*
X83661190Y-28784380D02*
X83756428Y-28832000D01*
X83756428Y-28832000D02*
X83804047Y-28879619D01*
X83804047Y-28879619D02*
X83851666Y-28974857D01*
X83851666Y-28974857D02*
X83851666Y-29070095D01*
X83851666Y-29070095D02*
X83804047Y-29212952D01*
X83804047Y-29212952D02*
X83232619Y-29784380D01*
X83232619Y-29784380D02*
X83851666Y-29784380D01*
%TO.C,J1*%
X62714666Y-28833380D02*
X62714666Y-29547666D01*
X62714666Y-29547666D02*
X62667047Y-29690523D01*
X62667047Y-29690523D02*
X62571809Y-29785761D01*
X62571809Y-29785761D02*
X62428952Y-29833380D01*
X62428952Y-29833380D02*
X62333714Y-29833380D01*
X63714666Y-29833380D02*
X63143238Y-29833380D01*
X63428952Y-29833380D02*
X63428952Y-28833380D01*
X63428952Y-28833380D02*
X63333714Y-28976238D01*
X63333714Y-28976238D02*
X63238476Y-29071476D01*
X63238476Y-29071476D02*
X63143238Y-29119095D01*
%TO.C,REF\u002A\u002A*%
X12923380Y-54161333D02*
X12447190Y-54494666D01*
X12923380Y-54732761D02*
X11923380Y-54732761D01*
X11923380Y-54732761D02*
X11923380Y-54351809D01*
X11923380Y-54351809D02*
X11971000Y-54256571D01*
X11971000Y-54256571D02*
X12018619Y-54208952D01*
X12018619Y-54208952D02*
X12113857Y-54161333D01*
X12113857Y-54161333D02*
X12256714Y-54161333D01*
X12256714Y-54161333D02*
X12351952Y-54208952D01*
X12351952Y-54208952D02*
X12399571Y-54256571D01*
X12399571Y-54256571D02*
X12447190Y-54351809D01*
X12447190Y-54351809D02*
X12447190Y-54732761D01*
X12399571Y-53732761D02*
X12399571Y-53399428D01*
X12923380Y-53256571D02*
X12923380Y-53732761D01*
X12923380Y-53732761D02*
X11923380Y-53732761D01*
X11923380Y-53732761D02*
X11923380Y-53256571D01*
X12399571Y-52494666D02*
X12399571Y-52827999D01*
X12923380Y-52827999D02*
X11923380Y-52827999D01*
X11923380Y-52827999D02*
X11923380Y-52351809D01*
X11923380Y-51827999D02*
X12161476Y-51827999D01*
X12066238Y-52066094D02*
X12161476Y-51827999D01*
X12161476Y-51827999D02*
X12066238Y-51589904D01*
X12351952Y-51970856D02*
X12161476Y-51827999D01*
X12161476Y-51827999D02*
X12351952Y-51685142D01*
X11923380Y-51066094D02*
X12161476Y-51066094D01*
X12066238Y-51304189D02*
X12161476Y-51066094D01*
X12161476Y-51066094D02*
X12066238Y-50827999D01*
X12351952Y-51208951D02*
X12161476Y-51066094D01*
X12161476Y-51066094D02*
X12351952Y-50923237D01*
%TO.C,P1*%
X20216905Y-26878380D02*
X20216905Y-25878380D01*
X20216905Y-25878380D02*
X20597857Y-25878380D01*
X20597857Y-25878380D02*
X20693095Y-25926000D01*
X20693095Y-25926000D02*
X20740714Y-25973619D01*
X20740714Y-25973619D02*
X20788333Y-26068857D01*
X20788333Y-26068857D02*
X20788333Y-26211714D01*
X20788333Y-26211714D02*
X20740714Y-26306952D01*
X20740714Y-26306952D02*
X20693095Y-26354571D01*
X20693095Y-26354571D02*
X20597857Y-26402190D01*
X20597857Y-26402190D02*
X20216905Y-26402190D01*
X21740714Y-26878380D02*
X21169286Y-26878380D01*
X21455000Y-26878380D02*
X21455000Y-25878380D01*
X21455000Y-25878380D02*
X21359762Y-26021238D01*
X21359762Y-26021238D02*
X21264524Y-26116476D01*
X21264524Y-26116476D02*
X21169286Y-26164095D01*
D14*
%TO.C,REF\u002A\u002A*%
X45645000Y-22769000D02*
X44145000Y-22769000D01*
X53645000Y-22769000D02*
X53645000Y-15509000D01*
X53645000Y-22769000D02*
X52145000Y-22769000D01*
X44145000Y-22769000D02*
X44145000Y-15509000D01*
%TO.C,C8*%
X73298164Y-18394000D02*
X73513836Y-18394000D01*
X73298164Y-17674000D02*
X73513836Y-17674000D01*
%TO.C,C10*%
X73171164Y-20299000D02*
X73386836Y-20299000D01*
X73171164Y-19579000D02*
X73386836Y-19579000D01*
%TO.C,U4*%
X35733000Y-18390000D02*
X35733000Y-18977500D01*
X35008000Y-18390000D02*
X35733000Y-18390000D01*
X34613000Y-20980000D02*
X35733000Y-19860000D01*
X33318000Y-20980000D02*
X32593000Y-20980000D01*
X33318000Y-20980000D02*
X32593000Y-20980000D01*
X33318000Y-20980000D02*
X32593000Y-20980000D01*
X33318000Y-18390000D02*
X32593000Y-18390000D01*
X32593000Y-20980000D02*
X32593000Y-20392500D01*
X32593000Y-20980000D02*
X32593000Y-20392500D01*
X32593000Y-20980000D02*
X32593000Y-20392500D01*
X32593000Y-18390000D02*
X32593000Y-18977500D01*
D15*
X35713000Y-20860000D02*
G75*
G03*
X35713000Y-20860000I-100000J0D01*
G01*
D14*
%TO.C,U2*%
X34371000Y-33828000D02*
X34371000Y-33078000D01*
X35121000Y-33828000D02*
X34371000Y-33828000D01*
X41841000Y-33828000D02*
X42591000Y-33828000D01*
X34371000Y-25608000D02*
X34371000Y-26358000D01*
X35121000Y-25608000D02*
X34371000Y-25608000D01*
X42591000Y-25608000D02*
X42591000Y-26358000D01*
X41841000Y-25608000D02*
X42591000Y-25608000D01*
%TO.C,C16*%
X37738164Y-56028000D02*
X37953836Y-56028000D01*
X37738164Y-56748000D02*
X37953836Y-56748000D01*
%TO.C,C15*%
X37865164Y-52684000D02*
X38080836Y-52684000D01*
X37865164Y-51964000D02*
X38080836Y-51964000D01*
D11*
%TO.C,Y2*%
X39472000Y-57110000D02*
X39722000Y-57110000D01*
X39472000Y-57110000D02*
X39472000Y-52110000D01*
X42672000Y-57110000D02*
X42422000Y-57110000D01*
X39472000Y-52110000D02*
X39722000Y-52110000D01*
X42672000Y-52110000D02*
X42672000Y-57110000D01*
X42672000Y-52110000D02*
X42422000Y-52110000D01*
D14*
%TO.C,C14*%
X47731000Y-52431836D02*
X47731000Y-52216164D01*
X47011000Y-52431836D02*
X47011000Y-52216164D01*
%TO.C,U3*%
X50235000Y-59633000D02*
X49760000Y-59633000D01*
X45015000Y-54413000D02*
X45490000Y-54413000D01*
X45015000Y-59158000D02*
X45015000Y-59633000D01*
X50235000Y-59158000D02*
X50235000Y-59633000D01*
X45015000Y-59633000D02*
X45490000Y-59633000D01*
X45015000Y-54888000D02*
X45015000Y-54413000D01*
X50235000Y-54888000D02*
X50235000Y-54413000D01*
%TO.C,R12*%
X48261000Y-52477641D02*
X48261000Y-52170359D01*
X49021000Y-52477641D02*
X49021000Y-52170359D01*
%TO.C,R9*%
X34291000Y-23394641D02*
X34291000Y-23087359D01*
X35051000Y-23394641D02*
X35051000Y-23087359D01*
%TO.C,C9*%
X64789164Y-33168000D02*
X65004836Y-33168000D01*
X64789164Y-33888000D02*
X65004836Y-33888000D01*
%TO.C,C11*%
X61614164Y-33253000D02*
X61829836Y-33253000D01*
X61614164Y-32533000D02*
X61829836Y-32533000D01*
%TO.C,R7*%
X31977359Y-33529000D02*
X32284641Y-33529000D01*
X31977359Y-34289000D02*
X32284641Y-34289000D01*
%TO.C,R4*%
X43280359Y-34418000D02*
X43587641Y-34418000D01*
X43280359Y-35178000D02*
X43587641Y-35178000D01*
%TO.C,C4*%
X44048000Y-41509836D02*
X44048000Y-41294164D01*
X43328000Y-41509836D02*
X43328000Y-41294164D01*
%TO.C,C5*%
X39984000Y-41509836D02*
X39984000Y-41294164D01*
X39264000Y-41509836D02*
X39264000Y-41294164D01*
%TO.C,R1*%
X40232359Y-36196000D02*
X40539641Y-36196000D01*
X40232359Y-36956000D02*
X40539641Y-36956000D01*
D11*
%TO.C,Y1*%
X39029000Y-37301500D02*
X39029000Y-37551500D01*
X39029000Y-37301500D02*
X44029000Y-37301500D01*
X39029000Y-40501500D02*
X39029000Y-40251500D01*
X44029000Y-37301500D02*
X44029000Y-37551500D01*
X44029000Y-40501500D02*
X39029000Y-40501500D01*
X44029000Y-40501500D02*
X44029000Y-40251500D01*
D14*
%TO.C,C3*%
X28434420Y-40515000D02*
X28715580Y-40515000D01*
X28434420Y-39495000D02*
X28715580Y-39495000D01*
%TO.C,L1*%
X33018000Y-39715221D02*
X33018000Y-40040779D01*
X34038000Y-39715221D02*
X34038000Y-40040779D01*
%TO.C,C1*%
X27545420Y-38864000D02*
X27826580Y-38864000D01*
X27545420Y-37844000D02*
X27826580Y-37844000D01*
%TO.C,U1*%
X31242000Y-36863000D02*
X32242000Y-36863000D01*
X30242000Y-39083000D02*
X32242000Y-39083000D01*
%TO.C,SW1*%
X39035500Y-44632000D02*
X39595500Y-44632000D01*
X33715500Y-48332000D02*
X33715500Y-44632000D01*
X37095500Y-48332000D02*
X36535500Y-48332000D01*
X34595500Y-48332000D02*
X33715500Y-48332000D01*
X33415500Y-45332000D02*
X33415500Y-44332000D01*
X33415500Y-44332000D02*
X34415500Y-44332000D01*
X33715500Y-44632000D02*
X34565500Y-44632000D01*
X42415500Y-44632000D02*
X42415500Y-48332000D01*
X42415500Y-48332000D02*
X41545500Y-48332000D01*
X39585500Y-48332000D02*
X39035500Y-48332000D01*
X36565500Y-44632000D02*
X37095500Y-44632000D01*
X41535500Y-44632000D02*
X42415500Y-44632000D01*
%TO.C,R3*%
X32767000Y-30760641D02*
X32767000Y-30453359D01*
X33527000Y-30760641D02*
X33527000Y-30453359D01*
%TO.C,R2*%
X31258742Y-32907500D02*
X31733258Y-32907500D01*
X31258742Y-31862500D02*
X31733258Y-31862500D01*
%TO.C,F1*%
X27142221Y-27561000D02*
X27467779Y-27561000D01*
X27142221Y-26541000D02*
X27467779Y-26541000D01*
%TO.C,C2*%
X23878000Y-28461580D02*
X23878000Y-28180420D01*
X22858000Y-28461580D02*
X22858000Y-28180420D01*
%TO.C,J2*%
X90145000Y-28292000D02*
X90145000Y-27582000D01*
X90145000Y-28292000D02*
X76225000Y-28292000D01*
X90145000Y-18932000D02*
X90145000Y-25382000D01*
X90145000Y-13922000D02*
X90145000Y-17032000D01*
X90145000Y-13922000D02*
X76225000Y-13922000D01*
X76225000Y-28292000D02*
X76225000Y-27582000D01*
X76225000Y-18932000D02*
X76225000Y-25382000D01*
X76225000Y-13922000D02*
X76225000Y-17032000D01*
%TO.C,J1*%
X56088000Y-18981000D02*
X56088000Y-25431000D01*
X56088000Y-28341000D02*
X56088000Y-27631000D01*
X70008000Y-18981000D02*
X70008000Y-25431000D01*
X70008000Y-13971000D02*
X70008000Y-17081000D01*
X70008000Y-28341000D02*
X70008000Y-27631000D01*
X70008000Y-13971000D02*
X56088000Y-13971000D01*
X70008000Y-28341000D02*
X56088000Y-28341000D01*
X56088000Y-13971000D02*
X56088000Y-17081000D01*
%TO.C,REF\u002A\u002A*%
X21271000Y-61388000D02*
X21771000Y-61888000D01*
X20771000Y-61888000D02*
X21271000Y-61388000D01*
X13861000Y-61193000D02*
X21471000Y-61193000D01*
X13861000Y-44463000D02*
X21471000Y-44463000D01*
X21771000Y-61888000D02*
X20771000Y-61888000D01*
X29831000Y-44463000D02*
X24271000Y-44463000D01*
X13861000Y-61148000D02*
X13861000Y-44508000D01*
X29831000Y-61148000D02*
X29831000Y-44463000D01*
X29831000Y-61193000D02*
X24271000Y-61193000D01*
%TO.C,P1*%
X17705000Y-25436000D02*
X16205000Y-25436000D01*
X25705000Y-25436000D02*
X25705000Y-18176000D01*
X25705000Y-25436000D02*
X24205000Y-25436000D01*
X16205000Y-25436000D02*
X16205000Y-18176000D01*
%TD*%
M02*
