%TF.GenerationSoftware,KiCad,Pcbnew,(6.99.0-818-g79c7d55a40)*%
%TF.CreationDate,2022-02-15T05:40:37+08:00*%
%TF.ProjectId,Project,50726f6a-6563-4742-9e6b-696361645f70,rev?*%
%TF.SameCoordinates,Original*%
%TF.FileFunction,Copper,L2,Bot*%
%TF.FilePolarity,Positive*%
%FSLAX46Y46*%
G04 Gerber Fmt 4.6, Leading zero omitted, Abs format (unit mm)*
G04 Created by KiCad (PCBNEW (6.99.0-818-g79c7d55a40)) date 2022-02-15 05:40:37*
%MOMM*%
%LPD*%
G01*
G04 APERTURE LIST*
%TA.AperFunction,ComponentPad*%
%ADD10O,0.800000X1.400000*%
%TD*%
%TA.AperFunction,ComponentPad*%
%ADD11C,0.500000*%
%TD*%
%TA.AperFunction,SMDPad,CuDef*%
%ADD12R,3.025000X2.975000*%
%TD*%
%TA.AperFunction,SMDPad,CuDef*%
%ADD13R,1.375000X1.525000*%
%TD*%
%TA.AperFunction,ComponentPad*%
%ADD14R,1.600000X1.600000*%
%TD*%
%TA.AperFunction,ComponentPad*%
%ADD15C,1.600000*%
%TD*%
%TA.AperFunction,ComponentPad*%
%ADD16C,1.200000*%
%TD*%
%TA.AperFunction,ComponentPad*%
%ADD17O,1.200000X2.400000*%
%TD*%
%TA.AperFunction,ComponentPad*%
%ADD18O,1.200000X2.100000*%
%TD*%
%TA.AperFunction,ComponentPad*%
%ADD19R,1.500000X1.500000*%
%TD*%
%TA.AperFunction,ComponentPad*%
%ADD20C,1.500000*%
%TD*%
%TA.AperFunction,ComponentPad*%
%ADD21C,2.300000*%
%TD*%
%TA.AperFunction,ViaPad*%
%ADD22C,0.500000*%
%TD*%
%TA.AperFunction,Conductor*%
%ADD23C,0.200000*%
%TD*%
%TA.AperFunction,Conductor*%
%ADD24C,0.250000*%
%TD*%
G04 APERTURE END LIST*
D10*
%TO.P,REF\u002A\u002A,S1*%
%TO.N,N/C*%
X44404999Y-14558999D03*
X53384999Y-14558999D03*
X53024999Y-20508999D03*
X44764999Y-20508999D03*
%TD*%
D11*
%TO.P,U2,65*%
%TO.N,N/C*%
X37881000Y-30318000D03*
X39081000Y-30318000D03*
D12*
X38430999Y-29667999D03*
D11*
X37881000Y-29118000D03*
X39081000Y-29118000D03*
%TD*%
%TO.P,U3,33*%
%TO.N,N/C*%
X47625000Y-57023000D03*
D13*
X47562499Y-57135499D03*
%TD*%
D14*
%TO.P,SW1,1*%
%TO.N,N/C*%
X35565499Y-44881999D03*
D15*
%TO.P,SW1,2*%
X38065500Y-44882000D03*
%TO.P,SW1,3*%
X40565500Y-44882000D03*
%TO.P,SW1,4*%
X35565500Y-48082000D03*
%TO.P,SW1,5*%
X38065500Y-48082000D03*
%TO.P,SW1,6*%
X40565500Y-48082000D03*
%TD*%
D16*
%TO.P,J2,1*%
%TO.N,N/C*%
X86685000Y-25732000D03*
%TO.P,J2,2*%
X84185000Y-25732000D03*
%TO.P,J2,3*%
X82185000Y-25732000D03*
%TO.P,J2,4*%
X79685000Y-25732000D03*
%TO.P,J2,5*%
X79185000Y-27232000D03*
%TO.P,J2,6*%
X81185000Y-27232000D03*
%TO.P,J2,7*%
X83185000Y-27232000D03*
%TO.P,J2,8*%
X85185000Y-27232000D03*
%TO.P,J2,9*%
X87185000Y-27232000D03*
D17*
%TO.P,J2,10*%
X89584999Y-26481999D03*
D18*
X89584999Y-17981999D03*
D17*
X76784999Y-26481999D03*
D18*
X76784999Y-17981999D03*
%TD*%
D16*
%TO.P,J1,1*%
%TO.N,N/C*%
X66548000Y-25781000D03*
%TO.P,J1,2*%
X64048000Y-25781000D03*
%TO.P,J1,3*%
X62048000Y-25781000D03*
%TO.P,J1,4*%
X59548000Y-25781000D03*
%TO.P,J1,5*%
X59048000Y-27281000D03*
%TO.P,J1,6*%
X61048000Y-27281000D03*
%TO.P,J1,7*%
X63048000Y-27281000D03*
%TO.P,J1,8*%
X65048000Y-27281000D03*
%TO.P,J1,9*%
X67048000Y-27281000D03*
D18*
%TO.P,J1,10*%
X56647999Y-18030999D03*
D17*
X56647999Y-26530999D03*
D18*
X69447999Y-18030999D03*
D17*
X69447999Y-26530999D03*
%TD*%
D19*
%TO.P,REF\u002A\u002A,1*%
%TO.N,N/C*%
X21970999Y-56387999D03*
D20*
%TO.P,REF\u002A\u002A,2*%
X23751000Y-55372000D03*
%TO.P,REF\u002A\u002A,3*%
X21971000Y-54356000D03*
%TO.P,REF\u002A\u002A,4*%
X23751000Y-53340000D03*
%TO.P,REF\u002A\u002A,5*%
X21971000Y-52324000D03*
%TO.P,REF\u002A\u002A,6*%
X23751000Y-51308000D03*
%TO.P,REF\u002A\u002A,7*%
X21971000Y-50292000D03*
%TO.P,REF\u002A\u002A,8*%
X23751000Y-49276000D03*
D21*
%TO.P,REF\u002A\u002A,SH*%
X22861000Y-44698000D03*
X22861000Y-60958000D03*
%TD*%
D10*
%TO.P,P1,S1*%
%TO.N,N/C*%
X16464999Y-17225999D03*
X25444999Y-17225999D03*
X25084999Y-23175999D03*
X16824999Y-23175999D03*
%TD*%
D22*
%TO.N,*%
X63119000Y-24003000D03*
X59055000Y-24003000D03*
X56896000Y-24003000D03*
X45720000Y-17653000D03*
X38681000Y-25092000D03*
X37973000Y-22225000D03*
X38354000Y-24511000D03*
X49149000Y-38989000D03*
X49276000Y-36449000D03*
X49403000Y-41529000D03*
X48006000Y-43307000D03*
X61849000Y-35941000D03*
X57912000Y-28829000D03*
X75184000Y-35814000D03*
X79756000Y-24130000D03*
X84201000Y-20066000D03*
X77470000Y-20066000D03*
X80137000Y-15748000D03*
X78613000Y-15113000D03*
X85471000Y-25908000D03*
X75057000Y-18161000D03*
X72771000Y-18034000D03*
X72136000Y-20193000D03*
X83756500Y-20637500D03*
X81661000Y-21209000D03*
X41081000Y-24444000D03*
X40681000Y-24044000D03*
X40281000Y-23644000D03*
X39481000Y-23384000D03*
X38608000Y-23749000D03*
X41481000Y-24971000D03*
X40640000Y-30226000D03*
X40767000Y-32258000D03*
X38481000Y-37084000D03*
X35433000Y-27432000D03*
X41656000Y-26670000D03*
X35881000Y-24324000D03*
X35179000Y-21463000D03*
X27305000Y-23114000D03*
X51689000Y-55372000D03*
X54991000Y-37338000D03*
X50492000Y-38681000D03*
X50492000Y-37392000D03*
X51689000Y-28956000D03*
X50492000Y-29518000D03*
X46482000Y-53721000D03*
X47375000Y-55368000D03*
X43815000Y-59563000D03*
X43815000Y-58547000D03*
X19939000Y-51308000D03*
X19685000Y-54610000D03*
X24638000Y-56642000D03*
X43370500Y-57340500D03*
X50927000Y-57404000D03*
X48375000Y-60694000D03*
X46101000Y-53213000D03*
X44450000Y-56896000D03*
X46101000Y-55372000D03*
X47244000Y-26416000D03*
X47752000Y-34798000D03*
X47752000Y-41402000D03*
X36195000Y-41402000D03*
X61849000Y-24511000D03*
X63881000Y-23495000D03*
X43561000Y-33274000D03*
X43942000Y-32893000D03*
X67437000Y-24892000D03*
X86360000Y-23368000D03*
X34925000Y-37846000D03*
X29972000Y-36195000D03*
X31242000Y-28829000D03*
X33528000Y-24765000D03*
X43944000Y-34165000D03*
X21717000Y-21082000D03*
X21463000Y-22479000D03*
X21463000Y-25781000D03*
X20447000Y-25908000D03*
X20574000Y-22606000D03*
X20574000Y-20066000D03*
X36576000Y-32893000D03*
X36576000Y-32385000D03*
X25654000Y-28702000D03*
X24765000Y-29591000D03*
X27178000Y-30099000D03*
X27940000Y-29464000D03*
X28448000Y-32004000D03*
X28956000Y-31750000D03*
X36703000Y-34671000D03*
X37592000Y-34798000D03*
X23495000Y-22606000D03*
X22225000Y-22733000D03*
X22860000Y-26035000D03*
X25781000Y-31369000D03*
X27305000Y-32639000D03*
X37973000Y-36195000D03*
X37846000Y-35306000D03*
X27559000Y-31623000D03*
X26670000Y-30734000D03*
X23876000Y-25781000D03*
X40386000Y-42545000D03*
X26670000Y-37084000D03*
X33020000Y-29337000D03*
X16510000Y-29591000D03*
X17907000Y-21844000D03*
%TD*%
D23*
%TO.N,*%
X66548000Y-24003000D02*
X67437000Y-24892000D01*
X63119000Y-24003000D02*
X66548000Y-24003000D01*
X56896000Y-24003000D02*
X59055000Y-24003000D01*
X36957000Y-19177000D02*
X38481000Y-17653000D01*
X36957000Y-24257000D02*
X36957000Y-19177000D01*
X37792000Y-25092000D02*
X36957000Y-24257000D01*
X38681000Y-25092000D02*
X37792000Y-25092000D01*
X38481000Y-17653000D02*
X45720000Y-17653000D01*
X38354000Y-24511000D02*
X37973000Y-24130000D01*
X37973000Y-24130000D02*
X37973000Y-22225000D01*
X55372000Y-28067000D02*
X56388000Y-29083000D01*
X57658000Y-29083000D02*
X57912000Y-28829000D01*
X49530000Y-28448000D02*
X49911000Y-28067000D01*
X56388000Y-29083000D02*
X57658000Y-29083000D01*
X49530000Y-36195000D02*
X49530000Y-28448000D01*
X49276000Y-36449000D02*
X49530000Y-36195000D01*
X49911000Y-28067000D02*
X55372000Y-28067000D01*
X49149000Y-41275000D02*
X49403000Y-41529000D01*
X49149000Y-38989000D02*
X49149000Y-41275000D01*
X48006000Y-42926000D02*
X48006000Y-43307000D01*
X49403000Y-41529000D02*
X48006000Y-42926000D01*
X58547000Y-35941000D02*
X61849000Y-35941000D01*
X57912000Y-35306000D02*
X58547000Y-35941000D01*
X57912000Y-28829000D02*
X57912000Y-35306000D01*
X75184000Y-24257000D02*
X75184000Y-35814000D01*
X75311000Y-24130000D02*
X75184000Y-24257000D01*
X79756000Y-24130000D02*
X75311000Y-24130000D01*
X77470000Y-20066000D02*
X84201000Y-20066000D01*
X56261000Y-15113000D02*
X78613000Y-15113000D01*
X52959000Y-18415000D02*
X56261000Y-15113000D01*
X38608000Y-19050000D02*
X39243000Y-18415000D01*
X38608000Y-23749000D02*
X38608000Y-19050000D01*
X39243000Y-18415000D02*
X52959000Y-18415000D01*
X53340000Y-19050000D02*
X56642000Y-15748000D01*
X40894000Y-19050000D02*
X53340000Y-19050000D01*
X39481000Y-20463000D02*
X40894000Y-19050000D01*
X56642000Y-15748000D02*
X80137000Y-15748000D01*
X39481000Y-23384000D02*
X39481000Y-20463000D01*
X85471000Y-25019000D02*
X85471000Y-25908000D01*
X85852000Y-24638000D02*
X85471000Y-25019000D01*
X89154000Y-24638000D02*
X85852000Y-24638000D01*
X89154000Y-20955000D02*
X89154000Y-24638000D01*
X84709000Y-16510000D02*
X89154000Y-20955000D01*
X75946000Y-16510000D02*
X84709000Y-16510000D01*
X75819000Y-16637000D02*
X75946000Y-16510000D01*
X75819000Y-17399000D02*
X75819000Y-16637000D01*
X75057000Y-18161000D02*
X75819000Y-17399000D01*
X72517000Y-18034000D02*
X72771000Y-18034000D01*
X41275000Y-19685000D02*
X70866000Y-19685000D01*
X40281000Y-20679000D02*
X41275000Y-19685000D01*
X70866000Y-19685000D02*
X72517000Y-18034000D01*
X40281000Y-23644000D02*
X40281000Y-20679000D01*
X41529000Y-20193000D02*
X72136000Y-20193000D01*
X40681000Y-21041000D02*
X41529000Y-20193000D01*
X40681000Y-24044000D02*
X40681000Y-21041000D01*
X83756500Y-20637500D02*
X83820000Y-20574000D01*
X83693000Y-20701000D02*
X83756500Y-20637500D01*
X42037000Y-20701000D02*
X83693000Y-20701000D01*
X41148000Y-21590000D02*
X42037000Y-20701000D01*
X41148000Y-24377000D02*
X41148000Y-21590000D01*
X41081000Y-24444000D02*
X41148000Y-24377000D01*
X42291000Y-21209000D02*
X81661000Y-21209000D01*
X41481000Y-22019000D02*
X42291000Y-21209000D01*
X41481000Y-24971000D02*
X41481000Y-22019000D01*
X41656000Y-29210000D02*
X40640000Y-30226000D01*
X41656000Y-26670000D02*
X41656000Y-29210000D01*
X40259000Y-31750000D02*
X40767000Y-32258000D01*
X39370000Y-31750000D02*
X40259000Y-31750000D01*
X39370000Y-36195000D02*
X38481000Y-37084000D01*
X39370000Y-31750000D02*
X39370000Y-36195000D01*
X35433000Y-30988000D02*
X36195000Y-31750000D01*
X36195000Y-31750000D02*
X39370000Y-31750000D01*
X35433000Y-27432000D02*
X35433000Y-30988000D01*
X35881000Y-22165000D02*
X35881000Y-24324000D01*
X35179000Y-21463000D02*
X35881000Y-22165000D01*
D24*
X26924000Y-22733000D02*
X27305000Y-23114000D01*
X26924000Y-21844000D02*
X26924000Y-22733000D01*
D23*
X39843000Y-30318000D02*
X39081000Y-30318000D01*
X41043000Y-31518000D02*
X39843000Y-30318000D01*
X33528000Y-24765000D02*
X37881000Y-29118000D01*
X51685000Y-55368000D02*
X47375000Y-55368000D01*
X51689000Y-55372000D02*
X51685000Y-55368000D01*
X51689000Y-37338000D02*
X54991000Y-37338000D01*
X51689000Y-28956000D02*
X51689000Y-37338000D01*
X50492000Y-49711000D02*
X50492000Y-38681000D01*
X46482000Y-53721000D02*
X50492000Y-49711000D01*
X50492000Y-37392000D02*
X50492000Y-37411000D01*
X50492000Y-29518000D02*
X50492000Y-37392000D01*
X43815000Y-58547000D02*
X43942000Y-58547000D01*
X33655000Y-62611000D02*
X33655000Y-59563000D01*
X33655000Y-59563000D02*
X43815000Y-59563000D01*
X18796000Y-64516000D02*
X31750000Y-64516000D01*
X31750000Y-64516000D02*
X33655000Y-62611000D01*
X16764000Y-62484000D02*
X18796000Y-64516000D01*
X16764000Y-54483000D02*
X16764000Y-62484000D01*
X19939000Y-51308000D02*
X16764000Y-54483000D01*
X21717000Y-58547000D02*
X43815000Y-58547000D01*
X19685000Y-56515000D02*
X21717000Y-58547000D01*
X19685000Y-54610000D02*
X19685000Y-56515000D01*
X42672000Y-56642000D02*
X24638000Y-56642000D01*
X43370500Y-57340500D02*
X42672000Y-56642000D01*
X44450000Y-60555000D02*
X44450000Y-56896000D01*
X44589000Y-60694000D02*
X44450000Y-60555000D01*
X48375000Y-60694000D02*
X44589000Y-60694000D01*
X50927000Y-60198000D02*
X50431000Y-60694000D01*
X50927000Y-57404000D02*
X50927000Y-60198000D01*
X50431000Y-60694000D02*
X48375000Y-60694000D01*
X45085000Y-53213000D02*
X46101000Y-53213000D01*
X44450000Y-53848000D02*
X45085000Y-53213000D01*
X44450000Y-56896000D02*
X44450000Y-53848000D01*
D24*
X52832000Y-48641000D02*
X46101000Y-55372000D01*
X52832000Y-37973000D02*
X72263000Y-37973000D01*
X35052000Y-37973000D02*
X52832000Y-37973000D01*
X52832000Y-37973000D02*
X52832000Y-48641000D01*
D23*
X47752000Y-26924000D02*
X47244000Y-26416000D01*
X47752000Y-34798000D02*
X47752000Y-26924000D01*
X36195000Y-41402000D02*
X47752000Y-41402000D01*
X47625000Y-24511000D02*
X61849000Y-24511000D01*
X44958000Y-33528000D02*
X44958000Y-27178000D01*
X44958000Y-27178000D02*
X47625000Y-24511000D01*
X44450000Y-34036000D02*
X44958000Y-33528000D01*
X44323000Y-34036000D02*
X44450000Y-34036000D01*
X43561000Y-33274000D02*
X44323000Y-34036000D01*
X47498000Y-23495000D02*
X63881000Y-23495000D01*
X43942000Y-27051000D02*
X47498000Y-23495000D01*
X43942000Y-32893000D02*
X43942000Y-27051000D01*
D24*
X85090000Y-22098000D02*
X86360000Y-23368000D01*
X73279000Y-22098000D02*
X85090000Y-22098000D01*
X73279000Y-24003000D02*
X73279000Y-22098000D01*
X68326000Y-24003000D02*
X67437000Y-24892000D01*
X73279000Y-24003000D02*
X68326000Y-24003000D01*
X73279000Y-36957000D02*
X73279000Y-24003000D01*
X72263000Y-37973000D02*
X73279000Y-36957000D01*
X34925000Y-37846000D02*
X35052000Y-37973000D01*
D23*
X29972000Y-36195000D02*
X26670000Y-36195000D01*
D24*
X26670000Y-36195000D02*
X26670000Y-37084000D01*
X26670000Y-31750000D02*
X26670000Y-36195000D01*
D23*
X31242000Y-28829000D02*
X31242000Y-29337000D01*
D24*
X31242000Y-29337000D02*
X29083000Y-29337000D01*
X33020000Y-29337000D02*
X31242000Y-29337000D01*
D23*
X33528000Y-24765000D02*
X33401000Y-24765000D01*
X43690000Y-34165000D02*
X41043000Y-31518000D01*
X43944000Y-34165000D02*
X43690000Y-34165000D01*
X21463000Y-25781000D02*
X21463000Y-22479000D01*
X20574000Y-25781000D02*
X20447000Y-25908000D01*
X20574000Y-22606000D02*
X20574000Y-25781000D01*
X34036000Y-26162000D02*
X27940000Y-20066000D01*
X34036000Y-32766000D02*
X34036000Y-26162000D01*
X36068000Y-32385000D02*
X35179000Y-33274000D01*
X35179000Y-33274000D02*
X34544000Y-33274000D01*
X27940000Y-20066000D02*
X20574000Y-20066000D01*
X36576000Y-32385000D02*
X36068000Y-32385000D01*
X34544000Y-33274000D02*
X34036000Y-32766000D01*
X27432000Y-21082000D02*
X21717000Y-21082000D01*
X33528000Y-33782000D02*
X33528000Y-27178000D01*
X33528000Y-27178000D02*
X27432000Y-21082000D01*
X36576000Y-32893000D02*
X35687000Y-33782000D01*
X35687000Y-33782000D02*
X33528000Y-33782000D01*
X27051000Y-30099000D02*
X27178000Y-30099000D01*
X25654000Y-28702000D02*
X27051000Y-30099000D01*
X22860000Y-27686000D02*
X24765000Y-29591000D01*
X22860000Y-26035000D02*
X22860000Y-27686000D01*
X27559000Y-29464000D02*
X23876000Y-25781000D01*
X27940000Y-29464000D02*
X27559000Y-29464000D01*
X31877000Y-34671000D02*
X28956000Y-31750000D01*
X36703000Y-34671000D02*
X31877000Y-34671000D01*
X37211000Y-35179000D02*
X31623000Y-35179000D01*
X31623000Y-35179000D02*
X28448000Y-32004000D01*
X37592000Y-34798000D02*
X37211000Y-35179000D01*
X23495000Y-27559000D02*
X23495000Y-22606000D01*
X26670000Y-30734000D02*
X23495000Y-27559000D01*
X22225000Y-27813000D02*
X22225000Y-22733000D01*
X25781000Y-31369000D02*
X22225000Y-27813000D01*
X30861000Y-36195000D02*
X27305000Y-32639000D01*
X37973000Y-36195000D02*
X30861000Y-36195000D01*
X31496000Y-35560000D02*
X27559000Y-31623000D01*
X37592000Y-35560000D02*
X31496000Y-35560000D01*
X37846000Y-35306000D02*
X37592000Y-35560000D01*
X26670000Y-41529000D02*
X26670000Y-37084000D01*
X27686000Y-42545000D02*
X26670000Y-41529000D01*
X40386000Y-42545000D02*
X27686000Y-42545000D01*
D24*
X29083000Y-29337000D02*
X26670000Y-31750000D01*
X26924000Y-21844000D02*
X17907000Y-21844000D01*
X33020000Y-27940000D02*
X26924000Y-21844000D01*
X33020000Y-29337000D02*
X33020000Y-27940000D01*
X15621000Y-29210000D02*
X16002000Y-29591000D01*
X15621000Y-21971000D02*
X15621000Y-29210000D01*
X15748000Y-21844000D02*
X15621000Y-21971000D01*
X16002000Y-29591000D02*
X16510000Y-29591000D01*
X17907000Y-21844000D02*
X15748000Y-21844000D01*
%TD*%
M02*
