%TF.GenerationSoftware,KiCad,Pcbnew,(6.99.0-818-g79c7d55a40)*%
%TF.CreationDate,2022-02-15T05:40:37+08:00*%
%TF.ProjectId,Project,50726f6a-6563-4742-9e6b-696361645f70,rev?*%
%TF.SameCoordinates,Original*%
%TF.FileFunction,Copper,L1,Top*%
%TF.FilePolarity,Positive*%
%FSLAX46Y46*%
G04 Gerber Fmt 4.6, Leading zero omitted, Abs format (unit mm)*
G04 Created by KiCad (PCBNEW (6.99.0-818-g79c7d55a40)) date 2022-02-15 05:40:37*
%MOMM*%
%LPD*%
G01*
G04 APERTURE LIST*
G04 Aperture macros list*
%AMRoundRect*
0 Rectangle with rounded corners*
0 $1 Rounding radius*
0 $2 $3 $4 $5 $6 $7 $8 $9 X,Y pos of 4 corners*
0 Add a 4 corners polygon primitive as box body*
4,1,4,$2,$3,$4,$5,$6,$7,$8,$9,$2,$3,0*
0 Add four circle primitives for the rounded corners*
1,1,$1+$1,$2,$3*
1,1,$1+$1,$4,$5*
1,1,$1+$1,$6,$7*
1,1,$1+$1,$8,$9*
0 Add four rect primitives between the rounded corners*
20,1,$1+$1,$2,$3,$4,$5,0*
20,1,$1+$1,$4,$5,$6,$7,0*
20,1,$1+$1,$6,$7,$8,$9,0*
20,1,$1+$1,$8,$9,$2,$3,0*%
G04 Aperture macros list end*
%TA.AperFunction,SMDPad,CuDef*%
%ADD10R,0.300000X0.700000*%
%TD*%
%TA.AperFunction,ComponentPad*%
%ADD11O,0.800000X1.400000*%
%TD*%
%TA.AperFunction,SMDPad,CuDef*%
%ADD12RoundRect,0.140000X-0.140000X-0.170000X0.140000X-0.170000X0.140000X0.170000X-0.140000X0.170000X0*%
%TD*%
%TA.AperFunction,SMDPad,CuDef*%
%ADD13C,0.500000*%
%TD*%
%TA.AperFunction,SMDPad,CuDef*%
%ADD14RoundRect,0.050000X0.350000X0.050000X-0.350000X0.050000X-0.350000X-0.050000X0.350000X-0.050000X0*%
%TD*%
%TA.AperFunction,SMDPad,CuDef*%
%ADD15RoundRect,0.050000X0.050000X0.350000X-0.050000X0.350000X-0.050000X-0.350000X0.050000X-0.350000X0*%
%TD*%
%TA.AperFunction,ComponentPad*%
%ADD16C,0.500000*%
%TD*%
%TA.AperFunction,SMDPad,CuDef*%
%ADD17R,2.975000X2.875000*%
%TD*%
%TA.AperFunction,SMDPad,CuDef*%
%ADD18R,2.400000X1.800000*%
%TD*%
%TA.AperFunction,SMDPad,CuDef*%
%ADD19RoundRect,0.140000X0.170000X-0.140000X0.170000X0.140000X-0.170000X0.140000X-0.170000X-0.140000X0*%
%TD*%
%TA.AperFunction,SMDPad,CuDef*%
%ADD20RoundRect,0.062500X-0.062500X0.375000X-0.062500X-0.375000X0.062500X-0.375000X0.062500X0.375000X0*%
%TD*%
%TA.AperFunction,SMDPad,CuDef*%
%ADD21RoundRect,0.062500X-0.375000X0.062500X-0.375000X-0.062500X0.375000X-0.062500X0.375000X0.062500X0*%
%TD*%
%TA.AperFunction,SMDPad,CuDef*%
%ADD22R,1.350000X1.500000*%
%TD*%
%TA.AperFunction,SMDPad,CuDef*%
%ADD23RoundRect,0.135000X0.185000X-0.135000X0.185000X0.135000X-0.185000X0.135000X-0.185000X-0.135000X0*%
%TD*%
%TA.AperFunction,SMDPad,CuDef*%
%ADD24RoundRect,0.135000X-0.135000X-0.185000X0.135000X-0.185000X0.135000X0.185000X-0.135000X0.185000X0*%
%TD*%
%TA.AperFunction,SMDPad,CuDef*%
%ADD25R,1.800000X2.400000*%
%TD*%
%TA.AperFunction,SMDPad,CuDef*%
%ADD26RoundRect,0.225000X-0.225000X-0.250000X0.225000X-0.250000X0.225000X0.250000X-0.225000X0.250000X0*%
%TD*%
%TA.AperFunction,SMDPad,CuDef*%
%ADD27RoundRect,0.218750X-0.256250X0.218750X-0.256250X-0.218750X0.256250X-0.218750X0.256250X0.218750X0*%
%TD*%
%TA.AperFunction,SMDPad,CuDef*%
%ADD28RoundRect,0.062500X-0.325000X-0.062500X0.325000X-0.062500X0.325000X0.062500X-0.325000X0.062500X0*%
%TD*%
%TA.AperFunction,SMDPad,CuDef*%
%ADD29R,0.800000X1.200000*%
%TD*%
%TA.AperFunction,ComponentPad*%
%ADD30R,1.600000X1.600000*%
%TD*%
%TA.AperFunction,ComponentPad*%
%ADD31C,1.600000*%
%TD*%
%TA.AperFunction,SMDPad,CuDef*%
%ADD32RoundRect,0.200000X-0.200000X-0.275000X0.200000X-0.275000X0.200000X0.275000X-0.200000X0.275000X0*%
%TD*%
%TA.AperFunction,SMDPad,CuDef*%
%ADD33RoundRect,0.218750X-0.218750X-0.256250X0.218750X-0.256250X0.218750X0.256250X-0.218750X0.256250X0*%
%TD*%
%TA.AperFunction,SMDPad,CuDef*%
%ADD34RoundRect,0.225000X0.250000X-0.225000X0.250000X0.225000X-0.250000X0.225000X-0.250000X-0.225000X0*%
%TD*%
%TA.AperFunction,ComponentPad*%
%ADD35C,1.200000*%
%TD*%
%TA.AperFunction,ComponentPad*%
%ADD36O,1.200000X2.400000*%
%TD*%
%TA.AperFunction,ComponentPad*%
%ADD37O,1.200000X2.100000*%
%TD*%
%TA.AperFunction,ComponentPad*%
%ADD38R,1.500000X1.500000*%
%TD*%
%TA.AperFunction,ComponentPad*%
%ADD39C,1.500000*%
%TD*%
%TA.AperFunction,ComponentPad*%
%ADD40C,2.300000*%
%TD*%
%TA.AperFunction,ViaPad*%
%ADD41C,0.500000*%
%TD*%
%TA.AperFunction,Conductor*%
%ADD42C,0.200000*%
%TD*%
%TA.AperFunction,Conductor*%
%ADD43C,0.250000*%
%TD*%
G04 APERTURE END LIST*
D10*
%TO.P,REF\u002A\u002A,A1*%
%TO.N,N/C*%
X51644999Y-22418999D03*
%TO.P,REF\u002A\u002A,A2*%
X51144999Y-22418999D03*
%TO.P,REF\u002A\u002A,A3*%
X50644999Y-22418999D03*
%TO.P,REF\u002A\u002A,A4*%
X50144999Y-22418999D03*
%TO.P,REF\u002A\u002A,A5*%
X49644999Y-22418999D03*
%TO.P,REF\u002A\u002A,A6*%
X49144999Y-22418999D03*
%TO.P,REF\u002A\u002A,A7*%
X48644999Y-22418999D03*
%TO.P,REF\u002A\u002A,A8*%
X48144999Y-22418999D03*
%TO.P,REF\u002A\u002A,A9*%
X47644999Y-22418999D03*
%TO.P,REF\u002A\u002A,A10*%
X47144999Y-22418999D03*
%TO.P,REF\u002A\u002A,A11*%
X46644999Y-22418999D03*
%TO.P,REF\u002A\u002A,A12*%
X46144999Y-22418999D03*
%TO.P,REF\u002A\u002A,B1*%
X46394999Y-20718999D03*
%TO.P,REF\u002A\u002A,B2*%
X46894999Y-20718999D03*
%TO.P,REF\u002A\u002A,B3*%
X47394999Y-20718999D03*
%TO.P,REF\u002A\u002A,B4*%
X47894999Y-20718999D03*
%TO.P,REF\u002A\u002A,B5*%
X48394999Y-20718999D03*
%TO.P,REF\u002A\u002A,B6*%
X48894999Y-20718999D03*
%TO.P,REF\u002A\u002A,B7*%
X49394999Y-20718999D03*
%TO.P,REF\u002A\u002A,B8*%
X49894999Y-20718999D03*
%TO.P,REF\u002A\u002A,B9*%
X50394999Y-20718999D03*
%TO.P,REF\u002A\u002A,B10*%
X50894999Y-20718999D03*
%TO.P,REF\u002A\u002A,B11*%
X51394999Y-20718999D03*
%TO.P,REF\u002A\u002A,B12*%
X51894999Y-20718999D03*
D11*
%TO.P,REF\u002A\u002A,S1*%
X44404999Y-14558999D03*
X53384999Y-14558999D03*
X53024999Y-20508999D03*
X44764999Y-20508999D03*
%TD*%
D12*
%TO.P,C8,1*%
%TO.N,N/C*%
X72926000Y-18034000D03*
%TO.P,C8,2*%
X73886000Y-18034000D03*
%TD*%
%TO.P,C10,1*%
%TO.N,N/C*%
X72799000Y-19939000D03*
%TO.P,C10,2*%
X73759000Y-19939000D03*
%TD*%
D13*
%TO.P,U4,A1*%
%TO.N,N/C*%
X34863000Y-20385000D03*
%TO.P,U4,A2*%
X34163000Y-20385000D03*
%TO.P,U4,A3*%
X33463000Y-20385000D03*
%TO.P,U4,B1*%
X34863000Y-19685000D03*
%TO.P,U4,B2*%
X34163000Y-19685000D03*
%TO.P,U4,C1*%
X34863000Y-18985000D03*
%TO.P,U4,C2*%
X34163000Y-18985000D03*
%TO.P,U4,C3*%
X33463000Y-18985000D03*
%TD*%
D14*
%TO.P,U2,1*%
%TO.N,N/C*%
X42431000Y-32718000D03*
%TO.P,U2,2*%
X42431000Y-32318000D03*
%TO.P,U2,3*%
X42431000Y-31918000D03*
%TO.P,U2,4*%
X42431000Y-31518000D03*
%TO.P,U2,5*%
X42431000Y-31118000D03*
%TO.P,U2,6*%
X42431000Y-30718000D03*
%TO.P,U2,7*%
X42431000Y-30318000D03*
%TO.P,U2,8*%
X42431000Y-29918000D03*
%TO.P,U2,9*%
X42431000Y-29518000D03*
%TO.P,U2,10*%
X42431000Y-29118000D03*
%TO.P,U2,11*%
X42431000Y-28718000D03*
%TO.P,U2,12*%
X42431000Y-28318000D03*
%TO.P,U2,13*%
X42431000Y-27918000D03*
%TO.P,U2,14*%
X42431000Y-27518000D03*
%TO.P,U2,15*%
X42431000Y-27118000D03*
%TO.P,U2,16*%
X42431000Y-26718000D03*
D15*
%TO.P,U2,17*%
X41481000Y-25768000D03*
%TO.P,U2,18*%
X41081000Y-25768000D03*
%TO.P,U2,19*%
X40681000Y-25768000D03*
%TO.P,U2,20*%
X40281000Y-25768000D03*
%TO.P,U2,21*%
X39881000Y-25768000D03*
%TO.P,U2,22*%
X39481000Y-25768000D03*
%TO.P,U2,23*%
X39081000Y-25768000D03*
%TO.P,U2,24*%
X38681000Y-25768000D03*
%TO.P,U2,25*%
X38281000Y-25768000D03*
%TO.P,U2,26*%
X37881000Y-25768000D03*
%TO.P,U2,27*%
X37481000Y-25768000D03*
%TO.P,U2,28*%
X37081000Y-25768000D03*
%TO.P,U2,29*%
X36681000Y-25768000D03*
%TO.P,U2,30*%
X36281000Y-25768000D03*
%TO.P,U2,31*%
X35881000Y-25768000D03*
%TO.P,U2,32*%
X35481000Y-25768000D03*
D14*
%TO.P,U2,33*%
X34531000Y-26718000D03*
%TO.P,U2,34*%
X34531000Y-27118000D03*
%TO.P,U2,35*%
X34531000Y-27518000D03*
%TO.P,U2,36*%
X34531000Y-27918000D03*
%TO.P,U2,37*%
X34531000Y-28318000D03*
%TO.P,U2,38*%
X34531000Y-28718000D03*
%TO.P,U2,39*%
X34531000Y-29118000D03*
%TO.P,U2,40*%
X34531000Y-29518000D03*
%TO.P,U2,41*%
X34531000Y-29918000D03*
%TO.P,U2,42*%
X34531000Y-30318000D03*
%TO.P,U2,43*%
X34531000Y-30718000D03*
%TO.P,U2,44*%
X34531000Y-31118000D03*
%TO.P,U2,45*%
X34531000Y-31518000D03*
%TO.P,U2,46*%
X34531000Y-31918000D03*
%TO.P,U2,47*%
X34531000Y-32318000D03*
%TO.P,U2,48*%
X34531000Y-32718000D03*
D15*
%TO.P,U2,49*%
X35481000Y-33668000D03*
%TO.P,U2,50*%
X35881000Y-33668000D03*
%TO.P,U2,51*%
X36281000Y-33668000D03*
%TO.P,U2,52*%
X36681000Y-33668000D03*
%TO.P,U2,53*%
X37081000Y-33668000D03*
%TO.P,U2,54*%
X37481000Y-33668000D03*
%TO.P,U2,55*%
X37881000Y-33668000D03*
%TO.P,U2,56*%
X38281000Y-33668000D03*
%TO.P,U2,57*%
X38681000Y-33668000D03*
%TO.P,U2,58*%
X39081000Y-33668000D03*
%TO.P,U2,59*%
X39481000Y-33668000D03*
%TO.P,U2,60*%
X39881000Y-33668000D03*
%TO.P,U2,61*%
X40281000Y-33668000D03*
%TO.P,U2,62*%
X40681000Y-33668000D03*
%TO.P,U2,63*%
X41081000Y-33668000D03*
%TO.P,U2,64*%
X41481000Y-33668000D03*
D16*
%TO.P,U2,65*%
X37881000Y-30318000D03*
X39081000Y-30318000D03*
X37881000Y-29118000D03*
X39081000Y-29118000D03*
D17*
X38430999Y-29717999D03*
%TD*%
D12*
%TO.P,C16,1*%
%TO.N,N/C*%
X37366000Y-56388000D03*
%TO.P,C16,2*%
X38326000Y-56388000D03*
%TD*%
%TO.P,C15,1*%
%TO.N,N/C*%
X37493000Y-52324000D03*
%TO.P,C15,2*%
X38453000Y-52324000D03*
%TD*%
D18*
%TO.P,Y2,1*%
%TO.N,N/C*%
X41071999Y-56709999D03*
%TO.P,Y2,2*%
X41071999Y-52509999D03*
%TD*%
D19*
%TO.P,C14,1*%
%TO.N,N/C*%
X47371000Y-52804000D03*
%TO.P,C14,2*%
X47371000Y-51844000D03*
%TD*%
D20*
%TO.P,U3,1*%
%TO.N,N/C*%
X49375000Y-54585500D03*
%TO.P,U3,2*%
X48875000Y-54585500D03*
%TO.P,U3,3*%
X48375000Y-54585500D03*
%TO.P,U3,4*%
X47875000Y-54585500D03*
%TO.P,U3,5*%
X47375000Y-54585500D03*
%TO.P,U3,6*%
X46875000Y-54585500D03*
%TO.P,U3,7*%
X46375000Y-54585500D03*
%TO.P,U3,8*%
X45875000Y-54585500D03*
D21*
%TO.P,U3,9*%
X45187500Y-55273000D03*
%TO.P,U3,10*%
X45187500Y-55773000D03*
%TO.P,U3,11*%
X45187500Y-56273000D03*
%TO.P,U3,12*%
X45187500Y-56773000D03*
%TO.P,U3,13*%
X45187500Y-57273000D03*
%TO.P,U3,14*%
X45187500Y-57773000D03*
%TO.P,U3,15*%
X45187500Y-58273000D03*
%TO.P,U3,16*%
X45187500Y-58773000D03*
D20*
%TO.P,U3,17*%
X45875000Y-59460500D03*
%TO.P,U3,18*%
X46375000Y-59460500D03*
%TO.P,U3,19*%
X46875000Y-59460500D03*
%TO.P,U3,20*%
X47375000Y-59460500D03*
%TO.P,U3,21*%
X47875000Y-59460500D03*
%TO.P,U3,22*%
X48375000Y-59460500D03*
%TO.P,U3,23*%
X48875000Y-59460500D03*
%TO.P,U3,24*%
X49375000Y-59460500D03*
D21*
%TO.P,U3,25*%
X50062500Y-58773000D03*
%TO.P,U3,26*%
X50062500Y-58273000D03*
%TO.P,U3,27*%
X50062500Y-57773000D03*
%TO.P,U3,28*%
X50062500Y-57273000D03*
%TO.P,U3,29*%
X50062500Y-56773000D03*
%TO.P,U3,30*%
X50062500Y-56273000D03*
%TO.P,U3,31*%
X50062500Y-55773000D03*
%TO.P,U3,32*%
X50062500Y-55273000D03*
D22*
%TO.P,U3,33*%
X47574999Y-57122999D03*
D16*
X47625000Y-57023000D03*
%TD*%
D23*
%TO.P,R12,1*%
%TO.N,N/C*%
X48641000Y-52834000D03*
%TO.P,R12,2*%
X48641000Y-51814000D03*
%TD*%
%TO.P,R9,1*%
%TO.N,N/C*%
X34671000Y-23751000D03*
%TO.P,R9,2*%
X34671000Y-22731000D03*
%TD*%
D12*
%TO.P,C9,1*%
%TO.N,N/C*%
X64417000Y-33528000D03*
%TO.P,C9,2*%
X65377000Y-33528000D03*
%TD*%
%TO.P,C11,1*%
%TO.N,N/C*%
X61242000Y-32893000D03*
%TO.P,C11,2*%
X62202000Y-32893000D03*
%TD*%
D24*
%TO.P,R7,1*%
%TO.N,N/C*%
X31621000Y-33909000D03*
%TO.P,R7,2*%
X32641000Y-33909000D03*
%TD*%
%TO.P,R4,1*%
%TO.N,N/C*%
X42924000Y-34798000D03*
%TO.P,R4,2*%
X43944000Y-34798000D03*
%TD*%
D19*
%TO.P,C4,1*%
%TO.N,N/C*%
X43688000Y-41882000D03*
%TO.P,C4,2*%
X43688000Y-40922000D03*
%TD*%
%TO.P,C5,1*%
%TO.N,N/C*%
X39624000Y-41882000D03*
%TO.P,C5,2*%
X39624000Y-40922000D03*
%TD*%
D24*
%TO.P,R1,1*%
%TO.N,N/C*%
X39876000Y-36576000D03*
%TO.P,R1,2*%
X40896000Y-36576000D03*
%TD*%
D25*
%TO.P,Y1,1*%
%TO.N,N/C*%
X39428999Y-38901499D03*
%TO.P,Y1,2*%
X43628999Y-38901499D03*
%TD*%
D26*
%TO.P,C3,1*%
%TO.N,N/C*%
X27800000Y-40005000D03*
%TO.P,C3,2*%
X29350000Y-40005000D03*
%TD*%
D27*
%TO.P,L1,1*%
%TO.N,N/C*%
X33528000Y-39090500D03*
%TO.P,L1,2*%
X33528000Y-40665500D03*
%TD*%
D26*
%TO.P,C1,1*%
%TO.N,N/C*%
X26911000Y-38354000D03*
%TO.P,C1,2*%
X28461000Y-38354000D03*
%TD*%
D28*
%TO.P,U1,1*%
%TO.N,N/C*%
X30254500Y-37223000D03*
%TO.P,U1,2*%
X30254500Y-37723000D03*
%TO.P,U1,3*%
X30254500Y-38223000D03*
%TO.P,U1,4*%
X30254500Y-38723000D03*
%TO.P,U1,5*%
X32229500Y-38723000D03*
%TO.P,U1,6*%
X32229500Y-38223000D03*
%TO.P,U1,7*%
X32229500Y-37723000D03*
%TO.P,U1,8*%
X32229500Y-37223000D03*
D29*
%TO.P,U1,9*%
X31241999Y-37972999D03*
%TD*%
D30*
%TO.P,SW1,1*%
%TO.N,N/C*%
X35565499Y-44881999D03*
D31*
%TO.P,SW1,2*%
X38065500Y-44882000D03*
%TO.P,SW1,3*%
X40565500Y-44882000D03*
%TO.P,SW1,4*%
X35565500Y-48082000D03*
%TO.P,SW1,5*%
X38065500Y-48082000D03*
%TO.P,SW1,6*%
X40565500Y-48082000D03*
%TD*%
D23*
%TO.P,R3,1*%
%TO.N,N/C*%
X33147000Y-31117000D03*
%TO.P,R3,2*%
X33147000Y-30097000D03*
%TD*%
D32*
%TO.P,R2,1*%
%TO.N,N/C*%
X30671000Y-32385000D03*
%TO.P,R2,2*%
X32321000Y-32385000D03*
%TD*%
D33*
%TO.P,F1,1*%
%TO.N,N/C*%
X26517500Y-27051000D03*
%TO.P,F1,2*%
X28092500Y-27051000D03*
%TD*%
D34*
%TO.P,C2,1*%
%TO.N,N/C*%
X23368000Y-29096000D03*
%TO.P,C2,2*%
X23368000Y-27546000D03*
%TD*%
D35*
%TO.P,J2,1*%
%TO.N,N/C*%
X86685000Y-25732000D03*
%TO.P,J2,2*%
X84185000Y-25732000D03*
%TO.P,J2,3*%
X82185000Y-25732000D03*
%TO.P,J2,4*%
X79685000Y-25732000D03*
%TO.P,J2,5*%
X79185000Y-27232000D03*
%TO.P,J2,6*%
X81185000Y-27232000D03*
%TO.P,J2,7*%
X83185000Y-27232000D03*
%TO.P,J2,8*%
X85185000Y-27232000D03*
%TO.P,J2,9*%
X87185000Y-27232000D03*
D36*
%TO.P,J2,10*%
X89584999Y-26481999D03*
D37*
X89584999Y-17981999D03*
D36*
X76784999Y-26481999D03*
D37*
X76784999Y-17981999D03*
%TD*%
D35*
%TO.P,J1,1*%
%TO.N,N/C*%
X66548000Y-25781000D03*
%TO.P,J1,2*%
X64048000Y-25781000D03*
%TO.P,J1,3*%
X62048000Y-25781000D03*
%TO.P,J1,4*%
X59548000Y-25781000D03*
%TO.P,J1,5*%
X59048000Y-27281000D03*
%TO.P,J1,6*%
X61048000Y-27281000D03*
%TO.P,J1,7*%
X63048000Y-27281000D03*
%TO.P,J1,8*%
X65048000Y-27281000D03*
%TO.P,J1,9*%
X67048000Y-27281000D03*
D37*
%TO.P,J1,10*%
X56647999Y-18030999D03*
D36*
X56647999Y-26530999D03*
D37*
X69447999Y-18030999D03*
D36*
X69447999Y-26530999D03*
%TD*%
D38*
%TO.P,REF\u002A\u002A,1*%
%TO.N,N/C*%
X21970999Y-56387999D03*
D39*
%TO.P,REF\u002A\u002A,2*%
X23751000Y-55372000D03*
%TO.P,REF\u002A\u002A,3*%
X21971000Y-54356000D03*
%TO.P,REF\u002A\u002A,4*%
X23751000Y-53340000D03*
%TO.P,REF\u002A\u002A,5*%
X21971000Y-52324000D03*
%TO.P,REF\u002A\u002A,6*%
X23751000Y-51308000D03*
%TO.P,REF\u002A\u002A,7*%
X21971000Y-50292000D03*
%TO.P,REF\u002A\u002A,8*%
X23751000Y-49276000D03*
D40*
%TO.P,REF\u002A\u002A,SH*%
X22861000Y-44698000D03*
X22861000Y-60958000D03*
%TD*%
D10*
%TO.P,P1,A1*%
%TO.N,N/C*%
X23704999Y-25085999D03*
%TO.P,P1,A2*%
X23204999Y-25085999D03*
%TO.P,P1,A3*%
X22704999Y-25085999D03*
%TO.P,P1,A4*%
X22204999Y-25085999D03*
%TO.P,P1,A5*%
X21704999Y-25085999D03*
%TO.P,P1,A6*%
X21204999Y-25085999D03*
%TO.P,P1,A7*%
X20704999Y-25085999D03*
%TO.P,P1,A8*%
X20204999Y-25085999D03*
%TO.P,P1,A9*%
X19704999Y-25085999D03*
%TO.P,P1,A10*%
X19204999Y-25085999D03*
%TO.P,P1,A11*%
X18704999Y-25085999D03*
%TO.P,P1,A12*%
X18204999Y-25085999D03*
%TO.P,P1,B1*%
X18454999Y-23385999D03*
%TO.P,P1,B2*%
X18954999Y-23385999D03*
%TO.P,P1,B3*%
X19454999Y-23385999D03*
%TO.P,P1,B4*%
X19954999Y-23385999D03*
%TO.P,P1,B5*%
X20454999Y-23385999D03*
%TO.P,P1,B6*%
X20954999Y-23385999D03*
%TO.P,P1,B7*%
X21454999Y-23385999D03*
%TO.P,P1,B8*%
X21954999Y-23385999D03*
%TO.P,P1,B9*%
X22454999Y-23385999D03*
%TO.P,P1,B10*%
X22954999Y-23385999D03*
%TO.P,P1,B11*%
X23454999Y-23385999D03*
%TO.P,P1,B12*%
X23954999Y-23385999D03*
D11*
%TO.P,P1,S1*%
X16464999Y-17225999D03*
X25444999Y-17225999D03*
X25084999Y-23175999D03*
X16824999Y-23175999D03*
%TD*%
D41*
%TO.N,*%
X63119000Y-24003000D03*
X59055000Y-24003000D03*
X56896000Y-24003000D03*
X45720000Y-17653000D03*
X38681000Y-25092000D03*
X37973000Y-22225000D03*
X38354000Y-24511000D03*
X49149000Y-38989000D03*
X49276000Y-36449000D03*
X49403000Y-41529000D03*
X48006000Y-43307000D03*
X61849000Y-35941000D03*
X57912000Y-28829000D03*
X75184000Y-35814000D03*
X79756000Y-24130000D03*
X84201000Y-20066000D03*
X77470000Y-20066000D03*
X80137000Y-15748000D03*
X78613000Y-15113000D03*
X85471000Y-25908000D03*
X75057000Y-18161000D03*
X72771000Y-18034000D03*
X72136000Y-20193000D03*
X83756500Y-20637500D03*
X81661000Y-21209000D03*
X41081000Y-24444000D03*
X40681000Y-24044000D03*
X40281000Y-23644000D03*
X39481000Y-23384000D03*
X38608000Y-23749000D03*
X41481000Y-24971000D03*
X40640000Y-30226000D03*
X40767000Y-32258000D03*
X38481000Y-37084000D03*
X35433000Y-27432000D03*
X41656000Y-26670000D03*
X35881000Y-24324000D03*
X35179000Y-21463000D03*
X27305000Y-23114000D03*
X51689000Y-55372000D03*
X54991000Y-37338000D03*
X50492000Y-38681000D03*
X50492000Y-37392000D03*
X51689000Y-28956000D03*
X50492000Y-29518000D03*
X46482000Y-53721000D03*
X47375000Y-55368000D03*
X43815000Y-59563000D03*
X43815000Y-58547000D03*
X19939000Y-51308000D03*
X19685000Y-54610000D03*
X24638000Y-56642000D03*
X43370500Y-57340500D03*
X50927000Y-57404000D03*
X48375000Y-60694000D03*
X46101000Y-53213000D03*
X44450000Y-56896000D03*
X46101000Y-55372000D03*
X47244000Y-26416000D03*
X47752000Y-34798000D03*
X47752000Y-41402000D03*
X36195000Y-41402000D03*
X61849000Y-24511000D03*
X63881000Y-23495000D03*
X43561000Y-33274000D03*
X43942000Y-32893000D03*
X67437000Y-24892000D03*
X86360000Y-23368000D03*
X34925000Y-37846000D03*
X29972000Y-36195000D03*
X31242000Y-28829000D03*
X33528000Y-24765000D03*
X43944000Y-34165000D03*
X21717000Y-21082000D03*
X21463000Y-22479000D03*
X21463000Y-25781000D03*
X20447000Y-25908000D03*
X20574000Y-22606000D03*
X20574000Y-20066000D03*
X36576000Y-32893000D03*
X36576000Y-32385000D03*
X25654000Y-28702000D03*
X24765000Y-29591000D03*
X27178000Y-30099000D03*
X27940000Y-29464000D03*
X28448000Y-32004000D03*
X28956000Y-31750000D03*
X36703000Y-34671000D03*
X37592000Y-34798000D03*
X23495000Y-22606000D03*
X22225000Y-22733000D03*
X22860000Y-26035000D03*
X25781000Y-31369000D03*
X27305000Y-32639000D03*
X37973000Y-36195000D03*
X37846000Y-35306000D03*
X27559000Y-31623000D03*
X26670000Y-30734000D03*
X23876000Y-25781000D03*
X40386000Y-42545000D03*
X26670000Y-37084000D03*
X33020000Y-29337000D03*
X16510000Y-29591000D03*
X17907000Y-21844000D03*
%TD*%
D42*
%TO.N,*%
X59055000Y-24003000D02*
X63119000Y-24003000D01*
X50145000Y-23348000D02*
X50800000Y-24003000D01*
X50145000Y-22419000D02*
X50145000Y-23348000D01*
X50800000Y-24003000D02*
X56896000Y-24003000D01*
X56186000Y-22419000D02*
X59548000Y-25781000D01*
X51645000Y-22419000D02*
X56186000Y-22419000D01*
X51689000Y-21209000D02*
X51645000Y-21253000D01*
X51689000Y-21209000D02*
X51816000Y-21209000D01*
X46609000Y-21209000D02*
X51689000Y-21209000D01*
X51645000Y-21253000D02*
X51645000Y-22419000D01*
X51895000Y-21130000D02*
X51895000Y-20719000D01*
X51816000Y-21209000D02*
X51895000Y-21130000D01*
X46395000Y-20719000D02*
X46395000Y-20995000D01*
X46395000Y-20995000D02*
X46609000Y-21209000D01*
X49145000Y-21721000D02*
X49145000Y-22419000D01*
X45720000Y-17653000D02*
X45720000Y-20955000D01*
X45720000Y-20955000D02*
X46482000Y-21717000D01*
X46482000Y-21717000D02*
X49149000Y-21717000D01*
X49149000Y-21717000D02*
X49145000Y-21721000D01*
X38681000Y-25768000D02*
X38681000Y-25092000D01*
X48645000Y-22983000D02*
X48645000Y-22419000D01*
X48514000Y-23114000D02*
X48645000Y-22983000D01*
X45212000Y-23114000D02*
X48514000Y-23114000D01*
X44577000Y-21590000D02*
X44577000Y-22479000D01*
X43053000Y-20066000D02*
X44577000Y-21590000D01*
X44577000Y-22479000D02*
X45212000Y-23114000D01*
X38862000Y-20066000D02*
X43053000Y-20066000D01*
X37973000Y-20955000D02*
X38862000Y-20066000D01*
X37973000Y-22225000D02*
X37973000Y-20955000D01*
X38281000Y-24584000D02*
X38354000Y-24511000D01*
X38281000Y-25768000D02*
X38281000Y-24584000D01*
X49149000Y-36576000D02*
X49276000Y-36449000D01*
X49149000Y-38989000D02*
X49149000Y-36576000D01*
X46581000Y-41882000D02*
X48006000Y-43307000D01*
X43688000Y-41882000D02*
X46581000Y-41882000D01*
X61976000Y-35814000D02*
X61849000Y-35941000D01*
X75184000Y-35814000D02*
X61976000Y-35814000D01*
X57912000Y-25908000D02*
X57912000Y-28829000D01*
X58039000Y-25781000D02*
X57912000Y-25908000D01*
X59548000Y-25781000D02*
X58039000Y-25781000D01*
X79685000Y-24201000D02*
X79756000Y-24130000D01*
X79685000Y-25732000D02*
X79685000Y-24201000D01*
X78613000Y-26660000D02*
X79185000Y-27232000D01*
X78613000Y-15113000D02*
X78613000Y-26660000D01*
X81185000Y-16796000D02*
X81185000Y-27232000D01*
X80137000Y-15748000D02*
X81185000Y-16796000D01*
X85344000Y-20066000D02*
X85407500Y-20129500D01*
X85407500Y-20129500D02*
X88265000Y-22987000D01*
X84201000Y-20066000D02*
X85344000Y-20066000D01*
X77343000Y-19939000D02*
X77470000Y-20066000D01*
X73759000Y-19939000D02*
X77343000Y-19939000D01*
X85471000Y-26946000D02*
X85185000Y-27232000D01*
X85471000Y-25908000D02*
X85471000Y-26946000D01*
X73886000Y-18034000D02*
X74930000Y-18034000D01*
X74930000Y-18034000D02*
X75057000Y-18161000D01*
X72926000Y-18034000D02*
X72771000Y-18034000D01*
X88265000Y-22987000D02*
X88265000Y-26152000D01*
X88265000Y-26152000D02*
X87185000Y-27232000D01*
X72390000Y-19939000D02*
X72136000Y-20193000D01*
X72799000Y-19939000D02*
X72390000Y-19939000D01*
X83756500Y-20637500D02*
X84185000Y-21066000D01*
X84185000Y-21066000D02*
X84185000Y-25732000D01*
X82185000Y-21733000D02*
X82185000Y-25732000D01*
X81661000Y-21209000D02*
X82185000Y-21733000D01*
X39081000Y-24222000D02*
X38608000Y-23749000D01*
X39081000Y-25768000D02*
X39081000Y-24222000D01*
X39481000Y-25768000D02*
X39481000Y-23384000D01*
X40281000Y-25768000D02*
X40281000Y-23644000D01*
X40681000Y-25768000D02*
X40681000Y-24044000D01*
X41081000Y-25768000D02*
X41081000Y-24444000D01*
X41481000Y-25768000D02*
X41481000Y-24971000D01*
X42674000Y-25652000D02*
X42674000Y-22731000D01*
X41656000Y-26670000D02*
X42674000Y-25652000D01*
X42674000Y-22731000D02*
X34671000Y-22731000D01*
X43559000Y-22731000D02*
X42674000Y-22731000D01*
X40640000Y-32131000D02*
X40767000Y-32258000D01*
X40640000Y-30226000D02*
X40640000Y-32131000D01*
X36449000Y-37084000D02*
X38481000Y-37084000D01*
X36195000Y-36830000D02*
X36449000Y-37084000D01*
X36195000Y-34417000D02*
X36195000Y-36830000D01*
X36681000Y-33931000D02*
X36195000Y-34417000D01*
X36681000Y-33668000D02*
X36681000Y-33931000D01*
X41081000Y-32572000D02*
X40767000Y-32258000D01*
X41081000Y-33668000D02*
X41081000Y-32572000D01*
X35119000Y-27118000D02*
X35433000Y-27432000D01*
X34531000Y-27118000D02*
X35119000Y-27118000D01*
X35941000Y-27813000D02*
X35836000Y-27918000D01*
X35941000Y-27305000D02*
X35941000Y-27813000D01*
X35402000Y-26766000D02*
X35941000Y-27305000D01*
X35836000Y-27918000D02*
X34531000Y-27918000D01*
X35306000Y-26766000D02*
X35402000Y-26766000D01*
X41704000Y-26718000D02*
X41656000Y-26670000D01*
X42431000Y-26718000D02*
X41704000Y-26718000D01*
X35881000Y-25768000D02*
X35881000Y-24324000D01*
X38681000Y-32712000D02*
X38681000Y-33668000D01*
X37846000Y-31877000D02*
X38681000Y-32712000D01*
X36195000Y-31877000D02*
X37846000Y-31877000D01*
X36322000Y-33274000D02*
X36322000Y-33627000D01*
X36322000Y-33627000D02*
X36281000Y-33668000D01*
X36068000Y-33020000D02*
X36322000Y-33274000D01*
X36195000Y-31877000D02*
X36068000Y-32004000D01*
X36068000Y-32004000D02*
X36068000Y-33020000D01*
X36195000Y-26924000D02*
X36195000Y-31877000D01*
X36195000Y-26924000D02*
X35881000Y-26610000D01*
X35881000Y-26610000D02*
X35881000Y-25768000D01*
X37211000Y-26924000D02*
X36195000Y-26924000D01*
X37081000Y-26794000D02*
X37081000Y-25768000D01*
X37211000Y-26924000D02*
X37081000Y-26794000D01*
X40005000Y-26924000D02*
X37211000Y-26924000D01*
X41297000Y-26946000D02*
X41297000Y-27918000D01*
X40005000Y-26924000D02*
X41275000Y-26924000D01*
X39881000Y-26800000D02*
X40005000Y-26924000D01*
X41275000Y-26924000D02*
X41297000Y-26946000D01*
X39881000Y-25768000D02*
X39881000Y-26800000D01*
X41148000Y-28067000D02*
X41148000Y-30099000D01*
X41297000Y-27918000D02*
X41148000Y-28067000D01*
X42431000Y-27918000D02*
X41297000Y-27918000D01*
X41329000Y-29918000D02*
X42431000Y-29918000D01*
X41148000Y-30099000D02*
X41329000Y-29918000D01*
X41405000Y-31118000D02*
X41148000Y-30861000D01*
X41148000Y-30861000D02*
X41148000Y-30099000D01*
X42431000Y-31118000D02*
X41405000Y-31118000D01*
X35179000Y-20701000D02*
X35179000Y-21463000D01*
X34863000Y-20385000D02*
X35179000Y-20701000D01*
X34163000Y-20385000D02*
X33463000Y-20385000D01*
X31434000Y-18985000D02*
X27305000Y-23114000D01*
X33463000Y-18985000D02*
X31434000Y-18985000D01*
X34863000Y-19685000D02*
X34863000Y-18985000D01*
X34163000Y-18985000D02*
X34863000Y-18985000D01*
X33463000Y-18985000D02*
X34863000Y-18985000D01*
X34163000Y-22223000D02*
X34671000Y-22731000D01*
X34163000Y-20385000D02*
X34163000Y-22223000D01*
X34163000Y-19685000D02*
X34163000Y-20385000D01*
X54991000Y-52070000D02*
X51689000Y-55372000D01*
X54991000Y-37338000D02*
X54991000Y-52070000D01*
X50492000Y-37392000D02*
X50492000Y-38681000D01*
X42593000Y-28956000D02*
X51689000Y-28956000D01*
X42431000Y-29118000D02*
X42593000Y-28956000D01*
X42431000Y-29518000D02*
X50492000Y-29518000D01*
X46875000Y-54585500D02*
X46875000Y-54114000D01*
X46875000Y-54114000D02*
X46482000Y-53721000D01*
X47375000Y-54585500D02*
X47375000Y-55368000D01*
X44605000Y-58773000D02*
X43815000Y-59563000D01*
X45187500Y-58773000D02*
X44605000Y-58773000D01*
X43815000Y-58547000D02*
X44089000Y-58273000D01*
X44089000Y-58273000D02*
X45187500Y-58273000D01*
X19939000Y-51308000D02*
X19685000Y-51308000D01*
X23751000Y-51308000D02*
X19939000Y-51308000D01*
X19685000Y-54610000D02*
X19558000Y-54737000D01*
X19939000Y-54356000D02*
X19685000Y-54610000D01*
X21971000Y-54356000D02*
X19939000Y-54356000D01*
X24638000Y-56259000D02*
X23751000Y-55372000D01*
X24638000Y-56642000D02*
X24638000Y-56259000D01*
X43370500Y-57340500D02*
X43307000Y-57404000D01*
X43438000Y-57273000D02*
X43370500Y-57340500D01*
X45187500Y-57273000D02*
X43438000Y-57273000D01*
X23356000Y-57773000D02*
X21971000Y-56388000D01*
X45187500Y-57773000D02*
X23356000Y-57773000D01*
X50796000Y-57273000D02*
X50927000Y-57404000D01*
X50062500Y-57273000D02*
X50796000Y-57273000D01*
X48375000Y-60210000D02*
X48375000Y-60694000D01*
X48375000Y-60210000D02*
X48375000Y-59460500D01*
X48006000Y-60325000D02*
X48260000Y-60325000D01*
X47875000Y-60194000D02*
X48006000Y-60325000D01*
X48260000Y-60325000D02*
X48375000Y-60210000D01*
X47875000Y-59460500D02*
X47875000Y-60194000D01*
X46101000Y-53213000D02*
X46736000Y-53213000D01*
X45187500Y-56773000D02*
X44573000Y-56773000D01*
X44573000Y-56773000D02*
X44450000Y-56896000D01*
X37493250Y-52323750D02*
X37493250Y-50009750D01*
X37493250Y-50009750D02*
X38410500Y-50927000D01*
X37493000Y-52324000D02*
X37493250Y-52323750D01*
X35565500Y-48082000D02*
X37493250Y-50009750D01*
X37366000Y-52451000D02*
X37493000Y-52324000D01*
X37366000Y-56388000D02*
X37366000Y-52451000D01*
X38648000Y-56710000D02*
X41072000Y-56710000D01*
X38326000Y-56388000D02*
X38648000Y-56710000D01*
X38639000Y-52510000D02*
X38453000Y-52324000D01*
X41072000Y-52510000D02*
X38639000Y-52510000D01*
X43747000Y-56710000D02*
X41072000Y-56710000D01*
X45187500Y-55773000D02*
X44684000Y-55773000D01*
X44684000Y-55773000D02*
X43747000Y-56710000D01*
X45187500Y-52680500D02*
X45187500Y-55273000D01*
X45017000Y-52510000D02*
X45187500Y-52680500D01*
X41072000Y-52510000D02*
X45017000Y-52510000D01*
X46375000Y-55225000D02*
X46228000Y-55372000D01*
X46375000Y-54585500D02*
X46375000Y-55225000D01*
X46228000Y-55372000D02*
X46101000Y-55372000D01*
X46736000Y-50927000D02*
X47371000Y-50927000D01*
X47875000Y-54352000D02*
X46736000Y-53213000D01*
X38410500Y-50927000D02*
X46736000Y-50927000D01*
X46736000Y-53213000D02*
X46736000Y-50927000D01*
X47875000Y-54585500D02*
X47875000Y-54352000D01*
X47371000Y-51844000D02*
X47371000Y-50927000D01*
X47371000Y-50927000D02*
X48641000Y-50927000D01*
X48375000Y-53709000D02*
X48375000Y-54585500D01*
X47470000Y-52804000D02*
X48375000Y-53709000D01*
X47371000Y-52804000D02*
X47470000Y-52804000D01*
X48641000Y-50927000D02*
X48641000Y-51814000D01*
X47375000Y-58551000D02*
X47375000Y-59460500D01*
X47371000Y-58547000D02*
X47375000Y-58551000D01*
X47117000Y-58547000D02*
X47371000Y-58547000D01*
X46089000Y-57519000D02*
X47117000Y-58547000D01*
X46089000Y-56273000D02*
X46089000Y-57519000D01*
X46089000Y-56273000D02*
X45187500Y-56273000D01*
X46101000Y-56261000D02*
X46089000Y-56273000D01*
X46101000Y-56007000D02*
X46101000Y-56261000D01*
X47879000Y-55880000D02*
X46228000Y-55880000D01*
X46228000Y-55880000D02*
X46101000Y-56007000D01*
X48375000Y-55384000D02*
X47879000Y-55880000D01*
X48375000Y-54585500D02*
X48375000Y-55384000D01*
X48643000Y-52834000D02*
X48875000Y-53066000D01*
X48875000Y-53066000D02*
X48875000Y-54585500D01*
X48641000Y-52834000D02*
X48643000Y-52834000D01*
X49375000Y-43025000D02*
X49375000Y-54585500D01*
X47752000Y-41402000D02*
X49375000Y-43025000D01*
X47244000Y-26416000D02*
X43559000Y-22731000D01*
X47752000Y-41402000D02*
X47752000Y-34798000D01*
X35229750Y-42367250D02*
X35565500Y-42703000D01*
X35229750Y-42367250D02*
X36195000Y-41402000D01*
X33528000Y-40665500D02*
X35229750Y-42367250D01*
X34671000Y-22733000D02*
X34671000Y-22731000D01*
X34671000Y-24130000D02*
X34798000Y-24257000D01*
X34671000Y-23751000D02*
X34671000Y-24130000D01*
X34798000Y-26258000D02*
X34798000Y-24257000D01*
X35258000Y-26718000D02*
X34798000Y-26258000D01*
X35258000Y-26718000D02*
X35306000Y-26766000D01*
X35560000Y-26416000D02*
X35258000Y-26718000D01*
X35258000Y-26718000D02*
X34531000Y-26718000D01*
X35560000Y-25847000D02*
X35560000Y-26416000D01*
X35481000Y-25768000D02*
X35560000Y-25847000D01*
X61849000Y-25582000D02*
X62048000Y-25781000D01*
X61849000Y-24511000D02*
X61849000Y-25582000D01*
X64048000Y-23662000D02*
X64048000Y-25781000D01*
X63881000Y-23495000D02*
X64048000Y-23662000D01*
X42431000Y-32718000D02*
X43005000Y-32718000D01*
X43005000Y-32718000D02*
X43561000Y-33274000D01*
X43367000Y-32318000D02*
X43942000Y-32893000D01*
X42431000Y-32318000D02*
X43367000Y-32318000D01*
X65048000Y-30047000D02*
X62202000Y-32893000D01*
X65048000Y-27281000D02*
X65048000Y-30047000D01*
X67048000Y-33520000D02*
X67048000Y-27281000D01*
X67056000Y-33528000D02*
X67048000Y-33520000D01*
X65377000Y-33528000D02*
X67056000Y-33528000D01*
X43729000Y-31918000D02*
X42431000Y-31918000D01*
X45339000Y-33528000D02*
X43729000Y-31918000D01*
X64417000Y-33528000D02*
X45339000Y-33528000D01*
X45593000Y-32893000D02*
X60706000Y-32893000D01*
X42431000Y-31518000D02*
X44218000Y-31518000D01*
X44218000Y-31518000D02*
X45593000Y-32893000D01*
X59048000Y-29852000D02*
X59048000Y-27281000D01*
X58582000Y-30318000D02*
X59048000Y-29852000D01*
X42431000Y-30318000D02*
X58582000Y-30318000D01*
X61048000Y-29757000D02*
X61048000Y-27281000D01*
X60087000Y-30718000D02*
X61048000Y-29757000D01*
X42431000Y-30718000D02*
X60087000Y-30718000D01*
X42431000Y-31118000D02*
X42542000Y-31118000D01*
D43*
X86360000Y-25407000D02*
X86685000Y-25732000D01*
X86360000Y-23368000D02*
X86360000Y-25407000D01*
X67437000Y-24892000D02*
X66548000Y-25781000D01*
X33655000Y-36576000D02*
X34925000Y-37846000D01*
X29464000Y-36576000D02*
X33655000Y-36576000D01*
X29464000Y-36576000D02*
X29464000Y-37194500D01*
X29464000Y-32385000D02*
X29464000Y-36576000D01*
D42*
X19792000Y-26523000D02*
X22205000Y-26523000D01*
X19705000Y-26436000D02*
X19792000Y-26523000D01*
X19705000Y-25086000D02*
X19705000Y-26436000D01*
X29972000Y-35558000D02*
X29972000Y-36195000D01*
X31621000Y-33909000D02*
X29972000Y-35558000D01*
X33147000Y-33909000D02*
X32641000Y-33909000D01*
X33563000Y-33493000D02*
X33147000Y-33909000D01*
X35306000Y-33493000D02*
X33563000Y-33493000D01*
X35306000Y-33493000D02*
X35481000Y-33668000D01*
X35306000Y-31496000D02*
X35306000Y-33493000D01*
X35284000Y-31518000D02*
X34531000Y-31518000D01*
X35306000Y-29845000D02*
X35306000Y-31496000D01*
X35306000Y-31496000D02*
X35284000Y-31518000D01*
X34833000Y-30318000D02*
X34531000Y-30318000D01*
X35306000Y-29845000D02*
X34833000Y-30318000D01*
X34979000Y-29518000D02*
X35306000Y-29845000D01*
X34531000Y-29518000D02*
X34979000Y-29518000D01*
X31242000Y-27051000D02*
X31242000Y-28829000D01*
X33528000Y-24765000D02*
X31242000Y-27051000D01*
X43944000Y-34798000D02*
X43944000Y-34165000D01*
X41783000Y-34798000D02*
X42924000Y-34798000D01*
X41481000Y-34496000D02*
X41783000Y-34798000D01*
X41481000Y-33668000D02*
X41481000Y-34496000D01*
X21717000Y-22225000D02*
X21463000Y-22479000D01*
X21717000Y-21082000D02*
X21717000Y-22225000D01*
X21205000Y-25523000D02*
X21463000Y-25781000D01*
X21205000Y-25086000D02*
X21205000Y-25523000D01*
X20705000Y-25650000D02*
X20447000Y-25908000D01*
X20705000Y-25086000D02*
X20705000Y-25650000D01*
X20574000Y-22606000D02*
X20574000Y-20066000D01*
X37481000Y-33290000D02*
X36576000Y-32385000D01*
X37481000Y-33668000D02*
X37481000Y-33290000D01*
X37081000Y-33398000D02*
X36576000Y-32893000D01*
X37081000Y-33668000D02*
X37081000Y-33398000D01*
X25654000Y-28702000D02*
X24765000Y-29591000D01*
X28321000Y-29464000D02*
X27940000Y-29464000D01*
X28956000Y-30099000D02*
X28321000Y-29464000D01*
X28956000Y-31750000D02*
X28956000Y-30099000D01*
X28448000Y-31369000D02*
X27178000Y-30099000D01*
X28448000Y-32004000D02*
X28448000Y-31369000D01*
X37084000Y-34671000D02*
X36703000Y-34671000D01*
X37881000Y-33874000D02*
X37084000Y-34671000D01*
X37881000Y-33668000D02*
X37881000Y-33874000D01*
X37881000Y-33668000D02*
X37881000Y-34001000D01*
X38281000Y-34109000D02*
X37592000Y-34798000D01*
X38281000Y-33668000D02*
X38281000Y-34109000D01*
X23495000Y-23346000D02*
X23455000Y-23386000D01*
X23495000Y-22606000D02*
X23495000Y-23346000D01*
X22733000Y-22733000D02*
X22955000Y-22955000D01*
X22955000Y-22955000D02*
X22955000Y-23386000D01*
X22225000Y-22733000D02*
X22733000Y-22733000D01*
X22705000Y-25880000D02*
X22860000Y-26035000D01*
X22705000Y-25086000D02*
X22705000Y-25880000D01*
X27051000Y-32639000D02*
X25781000Y-31369000D01*
X27305000Y-32639000D02*
X27051000Y-32639000D01*
X39481000Y-34687000D02*
X37973000Y-36195000D01*
X39481000Y-33668000D02*
X39481000Y-34687000D01*
X39081000Y-34071000D02*
X37846000Y-35306000D01*
X39081000Y-33668000D02*
X39081000Y-34071000D01*
X26670000Y-30734000D02*
X27559000Y-31623000D01*
X23368000Y-25781000D02*
X23876000Y-25781000D01*
X23205000Y-25618000D02*
X23368000Y-25781000D01*
X23205000Y-25086000D02*
X23205000Y-25618000D01*
X41049000Y-41882000D02*
X43688000Y-41882000D01*
X40386000Y-42545000D02*
X41049000Y-41882000D01*
X39624000Y-41882000D02*
X39723000Y-41882000D01*
X39723000Y-41882000D02*
X40386000Y-42545000D01*
X43629000Y-40863000D02*
X43688000Y-40922000D01*
X43629000Y-38901500D02*
X43629000Y-40863000D01*
X39429000Y-40727000D02*
X39624000Y-40922000D01*
X39429000Y-38901500D02*
X39429000Y-40727000D01*
X43629000Y-37279000D02*
X43629000Y-38901500D01*
X42926000Y-36576000D02*
X43629000Y-37279000D01*
X40896000Y-36576000D02*
X42926000Y-36576000D01*
X39429000Y-37023000D02*
X39429000Y-38901500D01*
X39876000Y-36576000D02*
X39429000Y-37023000D01*
X40896000Y-36197000D02*
X40896000Y-36576000D01*
X40681000Y-35982000D02*
X40896000Y-36197000D01*
X39878000Y-34925000D02*
X39878000Y-36574000D01*
X40281000Y-34522000D02*
X39878000Y-34925000D01*
X39878000Y-36574000D02*
X39876000Y-36576000D01*
X40281000Y-33668000D02*
X40281000Y-34522000D01*
X40681000Y-33668000D02*
X40681000Y-35982000D01*
X40565500Y-42724500D02*
X40386000Y-42545000D01*
X40565500Y-44882000D02*
X40565500Y-42724500D01*
X40565500Y-44882000D02*
X40565500Y-48082000D01*
X35881000Y-38548000D02*
X35881000Y-33668000D01*
X38065500Y-44882000D02*
X38065500Y-40732500D01*
X38065500Y-40732500D02*
X35881000Y-38548000D01*
X38065500Y-48082000D02*
X38065500Y-44882000D01*
X35565500Y-44882000D02*
X35565500Y-48082000D01*
X35565500Y-42703000D02*
X35565500Y-44882000D01*
X26911000Y-39992000D02*
X26911000Y-38354000D01*
X26924000Y-40005000D02*
X26911000Y-39992000D01*
X27800000Y-40005000D02*
X26924000Y-40005000D01*
X29378500Y-40033500D02*
X29350000Y-40005000D01*
X30254500Y-40033500D02*
X29378500Y-40033500D01*
X30254500Y-40033500D02*
X30254500Y-38723000D01*
X30886500Y-40665500D02*
X30254500Y-40033500D01*
X33528000Y-40665500D02*
X30886500Y-40665500D01*
X32905000Y-37223000D02*
X33401000Y-37719000D01*
X33401000Y-37719000D02*
X33401000Y-38963500D01*
X32229500Y-37223000D02*
X32905000Y-37223000D01*
X33401000Y-38963500D02*
X33528000Y-39090500D01*
X28321000Y-37084000D02*
X26670000Y-37084000D01*
X29210000Y-37973000D02*
X28321000Y-37084000D01*
X31242000Y-37973000D02*
X29210000Y-37973000D01*
X32229500Y-37723000D02*
X31492000Y-37723000D01*
X31492000Y-37723000D02*
X31242000Y-37973000D01*
D43*
X26670000Y-38113000D02*
X26911000Y-38354000D01*
X26670000Y-37084000D02*
X26670000Y-38113000D01*
D42*
X28592000Y-38223000D02*
X28461000Y-38354000D01*
X30254500Y-38223000D02*
X28592000Y-38223000D01*
X29984000Y-38723000D02*
X29972000Y-38735000D01*
X30254500Y-38723000D02*
X29984000Y-38723000D01*
X29492500Y-37723000D02*
X29464000Y-37694500D01*
X30254500Y-37723000D02*
X29492500Y-37723000D01*
X30254500Y-37223000D02*
X29492500Y-37223000D01*
X29492500Y-37223000D02*
X29464000Y-37194500D01*
D43*
X29464000Y-37194500D02*
X29464000Y-37694500D01*
X33226000Y-32718000D02*
X34531000Y-32718000D01*
X33147000Y-32639000D02*
X33226000Y-32718000D01*
X33147000Y-32385000D02*
X33147000Y-32639000D01*
X32321000Y-32385000D02*
X33147000Y-32385000D01*
X33147000Y-31117000D02*
X33147000Y-32385000D01*
X33147000Y-29464000D02*
X33020000Y-29337000D01*
X33147000Y-30097000D02*
X33147000Y-29464000D01*
X30671000Y-32385000D02*
X29464000Y-32385000D01*
X29464000Y-27051000D02*
X29464000Y-32385000D01*
X28092500Y-27051000D02*
X29464000Y-27051000D01*
X26390500Y-26924000D02*
X26517500Y-27051000D01*
X23368000Y-26924000D02*
X26390500Y-26924000D01*
X22873000Y-29591000D02*
X16510000Y-29591000D01*
X23368000Y-29096000D02*
X22873000Y-29591000D01*
X23368000Y-27546000D02*
X23368000Y-26924000D01*
X22606000Y-26924000D02*
X23368000Y-26924000D01*
X22205000Y-26523000D02*
X22606000Y-26924000D01*
X22205000Y-25086000D02*
X22205000Y-26523000D01*
X17653000Y-22098000D02*
X17907000Y-21844000D01*
X17653000Y-23495000D02*
X17653000Y-22098000D01*
X18415000Y-24257000D02*
X17653000Y-23495000D01*
X18455000Y-24217000D02*
X18415000Y-24257000D01*
X18455000Y-23386000D02*
X18455000Y-24217000D01*
X23955000Y-23924000D02*
X23622000Y-24257000D01*
X23955000Y-23386000D02*
X23955000Y-23924000D01*
X23705000Y-24340000D02*
X23705000Y-25086000D01*
X18415000Y-24257000D02*
X23622000Y-24257000D01*
X23622000Y-24257000D02*
X23705000Y-24340000D01*
X18205000Y-24467000D02*
X18415000Y-24257000D01*
X18205000Y-25086000D02*
X18205000Y-24467000D01*
%TD*%
M02*
