%TF.GenerationSoftware,KiCad,Pcbnew,(6.99.0-818-g79c7d55a40)*%
%TF.CreationDate,2022-02-15T05:40:37+08:00*%
%TF.ProjectId,Project,50726f6a-6563-4742-9e6b-696361645f70,rev?*%
%TF.SameCoordinates,Original*%
%TF.FileFunction,Paste,Top*%
%TF.FilePolarity,Positive*%
%FSLAX46Y46*%
G04 Gerber Fmt 4.6, Leading zero omitted, Abs format (unit mm)*
G04 Created by KiCad (PCBNEW (6.99.0-818-g79c7d55a40)) date 2022-02-15 05:40:37*
%MOMM*%
%LPD*%
G01*
G04 APERTURE LIST*
G04 Aperture macros list*
%AMRoundRect*
0 Rectangle with rounded corners*
0 $1 Rounding radius*
0 $2 $3 $4 $5 $6 $7 $8 $9 X,Y pos of 4 corners*
0 Add a 4 corners polygon primitive as box body*
4,1,4,$2,$3,$4,$5,$6,$7,$8,$9,$2,$3,0*
0 Add four circle primitives for the rounded corners*
1,1,$1+$1,$2,$3*
1,1,$1+$1,$4,$5*
1,1,$1+$1,$6,$7*
1,1,$1+$1,$8,$9*
0 Add four rect primitives between the rounded corners*
20,1,$1+$1,$2,$3,$4,$5,0*
20,1,$1+$1,$4,$5,$6,$7,0*
20,1,$1+$1,$6,$7,$8,$9,0*
20,1,$1+$1,$8,$9,$2,$3,0*%
G04 Aperture macros list end*
%ADD10R,0.300000X0.700000*%
%ADD11RoundRect,0.140000X-0.140000X-0.170000X0.140000X-0.170000X0.140000X0.170000X-0.140000X0.170000X0*%
%ADD12C,0.500000*%
%ADD13RoundRect,0.250000X0.253488X0.253488X-0.253488X0.253488X-0.253488X-0.253488X0.253488X-0.253488X0*%
%ADD14RoundRect,0.050000X0.350000X0.050000X-0.350000X0.050000X-0.350000X-0.050000X0.350000X-0.050000X0*%
%ADD15RoundRect,0.050000X0.050000X0.350000X-0.050000X0.350000X-0.050000X-0.350000X0.050000X-0.350000X0*%
%ADD16R,2.400000X1.800000*%
%ADD17RoundRect,0.140000X0.170000X-0.140000X0.170000X0.140000X-0.170000X0.140000X-0.170000X-0.140000X0*%
%ADD18RoundRect,0.201557X-0.201556X0.201556X-0.201556X-0.201556X0.201556X-0.201556X0.201556X0.201556X0*%
%ADD19RoundRect,0.062500X-0.062500X0.375000X-0.062500X-0.375000X0.062500X-0.375000X0.062500X0.375000X0*%
%ADD20RoundRect,0.062500X-0.375000X0.062500X-0.375000X-0.062500X0.375000X-0.062500X0.375000X0.062500X0*%
%ADD21RoundRect,0.135000X0.185000X-0.135000X0.185000X0.135000X-0.185000X0.135000X-0.185000X-0.135000X0*%
%ADD22RoundRect,0.135000X-0.135000X-0.185000X0.135000X-0.185000X0.135000X0.185000X-0.135000X0.185000X0*%
%ADD23R,1.800000X2.400000*%
%ADD24RoundRect,0.225000X-0.225000X-0.250000X0.225000X-0.250000X0.225000X0.250000X-0.225000X0.250000X0*%
%ADD25RoundRect,0.218750X-0.256250X0.218750X-0.256250X-0.218750X0.256250X-0.218750X0.256250X0.218750X0*%
%ADD26RoundRect,0.080000X-0.080000X-0.160000X0.080000X-0.160000X0.080000X0.160000X-0.080000X0.160000X0*%
%ADD27RoundRect,0.062500X-0.325000X-0.062500X0.325000X-0.062500X0.325000X0.062500X-0.325000X0.062500X0*%
%ADD28RoundRect,0.200000X-0.200000X-0.275000X0.200000X-0.275000X0.200000X0.275000X-0.200000X0.275000X0*%
%ADD29RoundRect,0.218750X-0.218750X-0.256250X0.218750X-0.256250X0.218750X0.256250X-0.218750X0.256250X0*%
%ADD30RoundRect,0.225000X0.250000X-0.225000X0.250000X0.225000X-0.250000X0.225000X-0.250000X-0.225000X0*%
G04 APERTURE END LIST*
D10*
%TO.C,REF\u002A\u002A*%
X51644999Y-22418999D03*
X51144999Y-22418999D03*
X50644999Y-22418999D03*
X50144999Y-22418999D03*
X49644999Y-22418999D03*
X49144999Y-22418999D03*
X48644999Y-22418999D03*
X48144999Y-22418999D03*
X47644999Y-22418999D03*
X47144999Y-22418999D03*
X46644999Y-22418999D03*
X46144999Y-22418999D03*
X46394999Y-20718999D03*
X46894999Y-20718999D03*
X47394999Y-20718999D03*
X47894999Y-20718999D03*
X48394999Y-20718999D03*
X48894999Y-20718999D03*
X49394999Y-20718999D03*
X49894999Y-20718999D03*
X50394999Y-20718999D03*
X50894999Y-20718999D03*
X51394999Y-20718999D03*
X51894999Y-20718999D03*
%TD*%
D11*
%TO.C,C8*%
X72926000Y-18034000D03*
X73886000Y-18034000D03*
%TD*%
%TO.C,C10*%
X72799000Y-19939000D03*
X73759000Y-19939000D03*
%TD*%
D12*
%TO.C,U4*%
X34863000Y-20385000D03*
X34163000Y-20385000D03*
X33463000Y-20385000D03*
X34863000Y-19685000D03*
X34163000Y-19685000D03*
X34863000Y-18985000D03*
X34163000Y-18985000D03*
X33463000Y-18985000D03*
%TD*%
D13*
%TO.C,U2*%
X38481000Y-29718000D03*
D14*
X42431000Y-32718000D03*
X42431000Y-32318000D03*
X42431000Y-31918000D03*
X42431000Y-31518000D03*
X42431000Y-31118000D03*
X42431000Y-30718000D03*
X42431000Y-30318000D03*
X42431000Y-29918000D03*
X42431000Y-29518000D03*
X42431000Y-29118000D03*
X42431000Y-28718000D03*
X42431000Y-28318000D03*
X42431000Y-27918000D03*
X42431000Y-27518000D03*
X42431000Y-27118000D03*
X42431000Y-26718000D03*
D15*
X41481000Y-25768000D03*
X41081000Y-25768000D03*
X40681000Y-25768000D03*
X40281000Y-25768000D03*
X39881000Y-25768000D03*
X39481000Y-25768000D03*
X39081000Y-25768000D03*
X38681000Y-25768000D03*
X38281000Y-25768000D03*
X37881000Y-25768000D03*
X37481000Y-25768000D03*
X37081000Y-25768000D03*
X36681000Y-25768000D03*
X36281000Y-25768000D03*
X35881000Y-25768000D03*
X35481000Y-25768000D03*
D14*
X34531000Y-26718000D03*
X34531000Y-27118000D03*
X34531000Y-27518000D03*
X34531000Y-27918000D03*
X34531000Y-28318000D03*
X34531000Y-28718000D03*
X34531000Y-29118000D03*
X34531000Y-29518000D03*
X34531000Y-29918000D03*
X34531000Y-30318000D03*
X34531000Y-30718000D03*
X34531000Y-31118000D03*
X34531000Y-31518000D03*
X34531000Y-31918000D03*
X34531000Y-32318000D03*
X34531000Y-32718000D03*
D15*
X35481000Y-33668000D03*
X35881000Y-33668000D03*
X36281000Y-33668000D03*
X36681000Y-33668000D03*
X37081000Y-33668000D03*
X37481000Y-33668000D03*
X37881000Y-33668000D03*
X38281000Y-33668000D03*
X38681000Y-33668000D03*
X39081000Y-33668000D03*
X39481000Y-33668000D03*
X39881000Y-33668000D03*
X40281000Y-33668000D03*
X40681000Y-33668000D03*
X41081000Y-33668000D03*
X41481000Y-33668000D03*
%TD*%
D11*
%TO.C,C16*%
X37366000Y-56388000D03*
X38326000Y-56388000D03*
%TD*%
%TO.C,C15*%
X37493000Y-52324000D03*
X38453000Y-52324000D03*
%TD*%
D16*
%TO.C,Y2*%
X41071999Y-56709999D03*
X41071999Y-52509999D03*
%TD*%
D17*
%TO.C,C14*%
X47371000Y-52804000D03*
X47371000Y-51844000D03*
%TD*%
D18*
%TO.C,U3*%
X47125000Y-57523000D03*
X48125000Y-57523000D03*
X47125000Y-56523000D03*
X48125000Y-56523000D03*
D19*
X49375000Y-54585500D03*
X48875000Y-54585500D03*
X48375000Y-54585500D03*
X47875000Y-54585500D03*
X47375000Y-54585500D03*
X46875000Y-54585500D03*
X46375000Y-54585500D03*
X45875000Y-54585500D03*
D20*
X45187500Y-55273000D03*
X45187500Y-55773000D03*
X45187500Y-56273000D03*
X45187500Y-56773000D03*
X45187500Y-57273000D03*
X45187500Y-57773000D03*
X45187500Y-58273000D03*
X45187500Y-58773000D03*
D19*
X45875000Y-59460500D03*
X46375000Y-59460500D03*
X46875000Y-59460500D03*
X47375000Y-59460500D03*
X47875000Y-59460500D03*
X48375000Y-59460500D03*
X48875000Y-59460500D03*
X49375000Y-59460500D03*
D20*
X50062500Y-58773000D03*
X50062500Y-58273000D03*
X50062500Y-57773000D03*
X50062500Y-57273000D03*
X50062500Y-56773000D03*
X50062500Y-56273000D03*
X50062500Y-55773000D03*
X50062500Y-55273000D03*
%TD*%
D21*
%TO.C,R12*%
X48641000Y-52834000D03*
X48641000Y-51814000D03*
%TD*%
%TO.C,R9*%
X34671000Y-23751000D03*
X34671000Y-22731000D03*
%TD*%
D11*
%TO.C,C9*%
X64417000Y-33528000D03*
X65377000Y-33528000D03*
%TD*%
%TO.C,C11*%
X61242000Y-32893000D03*
X62202000Y-32893000D03*
%TD*%
D22*
%TO.C,R7*%
X31621000Y-33909000D03*
X32641000Y-33909000D03*
%TD*%
%TO.C,R4*%
X42924000Y-34798000D03*
X43944000Y-34798000D03*
%TD*%
D17*
%TO.C,C4*%
X43688000Y-41882000D03*
X43688000Y-40922000D03*
%TD*%
%TO.C,C5*%
X39624000Y-41882000D03*
X39624000Y-40922000D03*
%TD*%
D22*
%TO.C,R1*%
X39876000Y-36576000D03*
X40896000Y-36576000D03*
%TD*%
D23*
%TO.C,Y1*%
X39428999Y-38901499D03*
X43628999Y-38901499D03*
%TD*%
D24*
%TO.C,C3*%
X27800000Y-40005000D03*
X29350000Y-40005000D03*
%TD*%
D25*
%TO.C,L1*%
X33528000Y-39090500D03*
X33528000Y-40665500D03*
%TD*%
D24*
%TO.C,C1*%
X26911000Y-38354000D03*
X28461000Y-38354000D03*
%TD*%
D26*
%TO.C,U1*%
X31042000Y-38273000D03*
X31442000Y-37673000D03*
X31442000Y-38273000D03*
X31042000Y-37673000D03*
D27*
X30254500Y-37223000D03*
X30254500Y-37723000D03*
X30254500Y-38223000D03*
X30254500Y-38723000D03*
X32229500Y-38723000D03*
X32229500Y-38223000D03*
X32229500Y-37723000D03*
X32229500Y-37223000D03*
%TD*%
D21*
%TO.C,R3*%
X33147000Y-31117000D03*
X33147000Y-30097000D03*
%TD*%
D28*
%TO.C,R2*%
X30671000Y-32385000D03*
X32321000Y-32385000D03*
%TD*%
D29*
%TO.C,F1*%
X26517500Y-27051000D03*
X28092500Y-27051000D03*
%TD*%
D30*
%TO.C,C2*%
X23368000Y-29096000D03*
X23368000Y-27546000D03*
%TD*%
D10*
%TO.C,P1*%
X23704999Y-25085999D03*
X23204999Y-25085999D03*
X22704999Y-25085999D03*
X22204999Y-25085999D03*
X21704999Y-25085999D03*
X21204999Y-25085999D03*
X20704999Y-25085999D03*
X20204999Y-25085999D03*
X19704999Y-25085999D03*
X19204999Y-25085999D03*
X18704999Y-25085999D03*
X18204999Y-25085999D03*
X18454999Y-23385999D03*
X18954999Y-23385999D03*
X19454999Y-23385999D03*
X19954999Y-23385999D03*
X20454999Y-23385999D03*
X20954999Y-23385999D03*
X21454999Y-23385999D03*
X21954999Y-23385999D03*
X22454999Y-23385999D03*
X22954999Y-23385999D03*
X23454999Y-23385999D03*
X23954999Y-23385999D03*
%TD*%
M02*
