%TF.GenerationSoftware,KiCad,Pcbnew,(6.99.0-818-g79c7d55a40)*%
%TF.CreationDate,2022-02-15T05:40:37+08:00*%
%TF.ProjectId,Project,50726f6a-6563-4742-9e6b-696361645f70,rev?*%
%TF.SameCoordinates,Original*%
%TF.FileFunction,Soldermask,Bot*%
%TF.FilePolarity,Negative*%
%FSLAX46Y46*%
G04 Gerber Fmt 4.6, Leading zero omitted, Abs format (unit mm)*
G04 Created by KiCad (PCBNEW (6.99.0-818-g79c7d55a40)) date 2022-02-15 05:40:37*
%MOMM*%
%LPD*%
G01*
G04 APERTURE LIST*
%ADD10O,0.950000X0.650000*%
%ADD11C,0.650000*%
%ADD12O,0.800000X1.400000*%
%ADD13R,1.600000X1.600000*%
%ADD14C,1.600000*%
%ADD15C,1.200000*%
%ADD16O,1.200000X2.400000*%
%ADD17O,1.200000X2.100000*%
%ADD18C,3.250000*%
%ADD19R,1.500000X1.500000*%
%ADD20C,1.500000*%
%ADD21C,2.300000*%
G04 APERTURE END LIST*
D10*
%TO.C,REF\u002A\u002A*%
X45294999Y-21758999D03*
D11*
X52495000Y-21759000D03*
D12*
X44404999Y-14558999D03*
X53384999Y-14558999D03*
X53024999Y-20508999D03*
X44764999Y-20508999D03*
%TD*%
D13*
%TO.C,SW1*%
X35565499Y-44881999D03*
D14*
X38065500Y-44882000D03*
X40565500Y-44882000D03*
X35565500Y-48082000D03*
X38065500Y-48082000D03*
X40565500Y-48082000D03*
%TD*%
D15*
%TO.C,J2*%
X86685000Y-25732000D03*
X84185000Y-25732000D03*
X82185000Y-25732000D03*
X79685000Y-25732000D03*
X79185000Y-27232000D03*
X81185000Y-27232000D03*
X83185000Y-27232000D03*
X85185000Y-27232000D03*
X87185000Y-27232000D03*
D16*
X89584999Y-26481999D03*
D17*
X89584999Y-17981999D03*
D16*
X76784999Y-26481999D03*
D17*
X76784999Y-17981999D03*
%TD*%
D15*
%TO.C,J1*%
X66548000Y-25781000D03*
X64048000Y-25781000D03*
X62048000Y-25781000D03*
X59548000Y-25781000D03*
X59048000Y-27281000D03*
X61048000Y-27281000D03*
X63048000Y-27281000D03*
X65048000Y-27281000D03*
X67048000Y-27281000D03*
D17*
X56647999Y-18030999D03*
D16*
X56647999Y-26530999D03*
D17*
X69447999Y-18030999D03*
D16*
X69447999Y-26530999D03*
%TD*%
D18*
%TO.C,REF\u002A\u002A*%
X19431000Y-46478000D03*
X19431000Y-59178000D03*
D19*
X21970999Y-56387999D03*
D20*
X23751000Y-55372000D03*
X21971000Y-54356000D03*
X23751000Y-53340000D03*
X21971000Y-52324000D03*
X23751000Y-51308000D03*
X21971000Y-50292000D03*
X23751000Y-49276000D03*
D21*
X22861000Y-44698000D03*
X22861000Y-60958000D03*
%TD*%
D10*
%TO.C,P1*%
X17354999Y-24425999D03*
D11*
X24555000Y-24426000D03*
D12*
X16464999Y-17225999D03*
X25444999Y-17225999D03*
X25084999Y-23175999D03*
X16824999Y-23175999D03*
%TD*%
M02*
