M48
; DRILL file {KiCad (6.99.0-818-g79c7d55a40)} date Mon Feb 14 23:52:47 2022
; FORMAT={-:-/ absolute / inch / decimal}
; #@! TF.CreationDate,2022-02-14T23:52:47+08:00
; #@! TF.GenerationSoftware,Kicad,Pcbnew,(6.99.0-818-g79c7d55a40)
; #@! TF.FileFunction,Plated,1,2,PTH
FMAT,2
INCH
; #@! TA.AperFunction,Plated,PTH,ComponentDrill
T1C0.0079
; #@! TA.AperFunction,Plated,PTH,ViaDrill
T2C0.0118
; #@! TA.AperFunction,Plated,PTH,ComponentDrill
T3C0.0197
; #@! TA.AperFunction,Plated,PTH,ComponentDrill
T4C0.0236
; #@! TA.AperFunction,Plated,PTH,ComponentDrill
T5C0.0276
; #@! TA.AperFunction,Plated,PTH,ComponentDrill
T6C0.0315
; #@! TA.AperFunction,Plated,PTH,ComponentDrill
T7C0.0350
; #@! TA.AperFunction,Plated,PTH,ComponentDrill
T8C0.0618
%
G90
G05
T1
X1.4914Y-1.1464
X1.4914Y-1.1936
X1.5386Y-1.1464
X1.5386Y-1.1936
X1.875Y-2.245
T2
X0.65Y-1.165
X0.705Y-0.86
X0.775Y-2.15
X0.785Y-2.02
X0.805Y-1.02
X0.81Y-0.79
X0.81Y-0.89
X0.845Y-0.885
X0.845Y-1.015
X0.855Y-0.83
X0.875Y-0.895
X0.9Y-1.025
X0.925Y-0.89
X0.94Y-1.015
X0.97Y-2.23
X0.975Y-1.165
X1.01Y-1.13
X1.015Y-1.235
X1.05Y-1.21
X1.05Y-1.46
X1.07Y-1.185
X1.075Y-0.91
X1.075Y-1.285
X1.085Y-1.245
X1.1Y-1.16
X1.12Y-1.26
X1.14Y-1.25
X1.18Y-1.425
X1.23Y-1.135
X1.3Y-1.155
X1.32Y-0.975
X1.375Y-1.49
X1.385Y-0.845
X1.395Y-1.08
X1.4126Y-0.9576
X1.425Y-1.63
X1.44Y-1.275
X1.44Y-1.295
X1.445Y-1.365
X1.48Y-1.37
X1.49Y-1.39
X1.495Y-0.875
X1.495Y-1.425
X1.51Y-0.965
X1.515Y-1.46
X1.52Y-0.935
X1.5229Y-0.9879
X1.5544Y-0.9206
X1.5859Y-0.9309
X1.59Y-1.675
X1.6Y-1.19
X1.6016Y-0.9466
X1.605Y-1.27
X1.6174Y-0.9624
X1.6331Y-0.9831
X1.64Y-1.05
X1.7075Y-2.2575
X1.715Y-1.31
X1.725Y-2.305
X1.725Y-2.345
X1.73Y-1.295
X1.7301Y-1.3451
X1.75Y-2.24
X1.8Y-0.695
X1.815Y-2.095
X1.815Y-2.18
X1.83Y-2.115
X1.86Y-1.04
X1.8652Y-2.1798
X1.88Y-1.37
X1.88Y-1.63
X1.89Y-1.705
X1.9045Y-2.3895
X1.935Y-1.535
X1.94Y-1.435
X1.945Y-1.635
X1.9879Y-1.1621
X1.9879Y-1.4721
X1.9879Y-1.5229
X2.005Y-2.26
X2.035Y-1.14
X2.035Y-2.18
X2.165Y-1.47
X2.24Y-0.945
X2.28Y-1.135
X2.325Y-0.945
X2.435Y-0.965
X2.435Y-1.415
X2.485Y-0.945
X2.515Y-0.925
X2.655Y-0.98
X2.84Y-0.795
X2.865Y-0.71
X2.955Y-0.715
X2.96Y-1.41
X3.05Y-0.79
X3.095Y-0.595
X3.14Y-0.95
X3.155Y-0.62
X3.215Y-0.835
X3.2975Y-0.8125
X3.315Y-0.79
X3.365Y-1.02
X3.4Y-0.92
T5
X2.3247Y-1.0741
X2.3444Y-1.015
X2.4035Y-1.0741
X2.4428Y-1.015
X2.4822Y-1.0741
X2.5216Y-1.015
X2.5609Y-1.0741
X2.62Y-1.015
X2.6397Y-1.0741
X3.1175Y-1.0721
X3.1372Y-1.0131
X3.1963Y-1.0721
X3.2356Y-1.0131
X3.275Y-1.0721
X3.3144Y-1.0131
X3.3537Y-1.0721
X3.4128Y-1.0131
X3.4325Y-1.0721
T6
X1.4002Y-1.767
X1.4002Y-1.893
X1.4986Y-1.767
X1.4986Y-1.893
X1.5971Y-1.767
X1.5971Y-1.893
T7
X0.865Y-1.98
X0.865Y-2.06
X0.865Y-2.14
X0.865Y-2.22
X0.9351Y-1.94
X0.9351Y-2.02
X0.9351Y-2.1
X0.9351Y-2.18
T8
X0.9Y-1.7598
X0.9Y-2.3999
T3
G00X0.6482Y-0.69
M15
G01X0.6482Y-0.6664
M16
G05
G00X0.6624Y-0.9243
M15
G01X0.6624Y-0.9006
M16
G05
G00X0.9876Y-0.9243
M15
G01X0.9876Y-0.9006
M16
G05
G00X1.0018Y-0.69
M15
G01X1.0018Y-0.6664
M16
G05
G00X1.7482Y-0.585
M15
G01X1.7482Y-0.5614
M16
G05
G00X1.7624Y-0.8193
M15
G01X1.7624Y-0.7956
M16
G05
G00X2.0876Y-0.8193
M15
G01X2.0876Y-0.7956
M16
G05
G00X2.1018Y-0.585
M15
G01X2.1018Y-0.5614
M16
G05
T4
G00X2.2302Y-0.7256
M15
G01X2.2302Y-0.6941
M16
G05
G00X2.2302Y-1.0662
M15
G01X2.2302Y-1.0229
M16
G05
G00X2.7342Y-0.7256
M15
G01X2.7342Y-0.6941
M16
G05
G00X2.7342Y-1.0662
M15
G01X2.7342Y-1.0229
M16
G05
G00X3.023Y-0.7237
M15
G01X3.023Y-0.6922
M16
G05
G00X3.023Y-1.0643
M15
G01X3.023Y-1.0209
M16
G05
G00X3.527Y-0.7237
M15
G01X3.527Y-0.6922
M16
G05
G00X3.527Y-1.0643
M15
G01X3.527Y-1.0209
M16
G05
T0
M30
